<?xml version="1.0" encoding="UTF-8"?>
<svg width="297px" height="40px" viewBox="0 0 297 40" version="1.1" xmlns="http://www.w3.org/2000/svg" xmlns:xlink="http://www.w3.org/1999/xlink">
    <title>jhu-logo-white-horizontal</title>
    <g id="Shell-Components" stroke="none" stroke-width="1" fill="none" fill-rule="evenodd">
        <g id="jhu-logo-white-horizontal">
            <path d="M163.36,16.144 C164.864,16.144 166.112,15.808 167.52,15.024 L166.672,13.088 C165.36,13.616 164.576,13.808 163.488,13.808 C162.096,13.808 161.184,12.736 161.184,11.136 C161.184,9.328 162.032,8.416 163.648,8.416 C164.416,8.416 165.216,8.576 166.384,8.912 L167.168,6.96 C166.032,6.368 164.752,6.08 163.52,6.08 C160.4,6.08 158.544,7.904 158.544,11.136 C158.544,14.352 160.4,16.144 163.36,16.144 Z M173.28,16.144 C176.352,16.144 178.208,14.352 178.208,11.136 C178.208,7.904 176.352,6.08 173.28,6.08 C170.192,6.08 168.336,7.904 168.336,11.136 C168.336,14.352 170.192,16.144 173.28,16.144 Z M173.28,13.808 C171.824,13.808 170.976,12.896 170.976,11.136 C170.976,9.328 171.824,8.416 173.28,8.416 C174.72,8.416 175.568,9.328 175.568,11.136 C175.568,12.896 174.72,13.808 173.28,13.808 Z M182.288,16 L182.288,13.28 L183.616,13.28 L185.568,16 L188.352,16 L188.352,15.792 L186.176,12.848 C187.376,12.32 188.032,11.312 188.032,9.888 C188.032,7.552 186.48,6.24 183.728,6.24 L179.68,6.24 L179.68,16 L182.288,16 Z M183.76,11.248 L182.288,11.248 L182.288,8.48 L183.76,8.48 C184.848,8.48 185.456,8.992 185.456,9.888 C185.456,10.752 184.848,11.248 183.76,11.248 Z M193.968,16.144 C197.04,16.144 198.896,14.352 198.896,11.136 C198.896,7.904 197.04,6.08 193.968,6.08 C190.88,6.08 189.024,7.904 189.024,11.136 C189.024,14.352 190.88,16.144 193.968,16.144 Z M193.968,13.808 C192.512,13.808 191.664,12.896 191.664,11.136 C191.664,9.328 192.512,8.416 193.968,8.416 C195.408,8.416 196.256,9.328 196.256,11.136 C196.256,12.896 195.408,13.808 193.968,13.808 Z M202.976,16 L202.976,10.496 L207.104,16 L209.472,16 L209.472,6.24 L206.864,6.24 L206.864,11.808 L202.736,6.24 L200.368,6.24 L200.368,16 L202.976,16 Z M213.344,16 L213.888,14.448 L218.048,14.448 L218.592,16 L221.376,16 L217.744,6.24 L214.192,6.24 L210.544,16 L213.344,16 Z M217.216,12.08 L214.704,12.08 L215.68,9.28 C215.792,8.928 215.888,8.64 215.968,8.384 C216.032,8.64 216.128,8.928 216.24,9.28 L217.216,12.08 Z M228.336,16 L232.064,6.24 L229.296,6.24 L227.184,12.368 C227.072,12.704 226.976,13.04 226.896,13.376 C226.8,13.04 226.704,12.704 226.592,12.368 L224.608,6.24 L221.712,6.24 L225.44,16 L228.336,16 Z M235.792,16 L235.792,6.24 L233.184,6.24 L233.184,16 L235.792,16 Z M240.256,16 L240.256,13.28 L241.584,13.28 L243.536,16 L246.32,16 L246.32,15.792 L244.144,12.848 C245.344,12.32 246,11.312 246,9.888 C246,7.552 244.448,6.24 241.696,6.24 L237.648,6.24 L237.648,16 L240.256,16 Z M241.728,11.248 L240.256,11.248 L240.256,8.48 L241.728,8.48 C242.816,8.48 243.424,8.992 243.424,9.888 C243.424,10.752 242.816,11.248 241.728,11.248 Z M251.744,16.144 C254.752,16.144 256.208,14.592 256.208,11.344 L256.208,6.24 L253.6,6.24 L253.6,11.344 C253.6,13.008 252.976,13.808 251.744,13.808 C250.528,13.808 249.904,13.008 249.904,11.344 L249.904,6.24 L247.296,6.24 L247.296,11.344 C247.296,14.592 248.752,16.144 251.744,16.144 Z M262.032,16.144 C264.32,16.144 265.616,14.96 265.616,13.184 C265.616,11.552 264.976,10.816 262.992,10.144 C260.896,9.44 260.528,9.264 260.528,8.816 C260.528,8.4 260.992,8.176 261.552,8.176 C262.4,8.176 263.216,8.352 264.72,8.912 L265.488,7.008 C263.76,6.24 262.512,6.08 261.264,6.08 C259.056,6.08 257.856,7.344 257.856,9.008 C257.856,10.512 258.752,11.568 260.64,12.128 C262.528,12.688 262.784,12.848 262.784,13.264 C262.784,13.68 262.464,13.92 261.888,13.92 C260.944,13.92 259.888,13.6 258.4,12.784 L257.424,14.816 C258.768,15.632 260.768,16.144 262.032,16.144 Z M161.536,36 L161.536,33.28 L162.864,33.28 L164.816,36 L167.6,36 L167.6,35.792 L165.424,32.848 C166.624,32.32 167.28,31.312 167.28,29.888 C167.28,27.552 165.728,26.24 162.976,26.24 L158.928,26.24 L158.928,36 L161.536,36 Z M163.008,31.248 L161.536,31.248 L161.536,28.48 L163.008,28.48 C164.096,28.48 164.704,28.992 164.704,29.888 C164.704,30.752 164.096,31.248 163.008,31.248 Z M175.984,36 L175.984,33.68 L171.264,33.68 L171.264,32.32 L175.184,32.32 L175.184,30.08 L171.264,30.08 L171.264,28.608 L175.856,28.608 L175.856,26.24 L168.656,26.24 L168.656,36 L175.984,36 Z M181.664,36.144 C183.952,36.144 185.248,34.96 185.248,33.184 C185.248,31.552 184.608,30.816 182.624,30.144 C180.528,29.44 180.16,29.264 180.16,28.816 C180.16,28.4 180.624,28.176 181.184,28.176 C182.032,28.176 182.848,28.352 184.352,28.912 L185.12,27.008 C183.392,26.24 182.144,26.08 180.896,26.08 C178.688,26.08 177.488,27.344 177.488,29.008 C177.488,30.512 178.384,31.568 180.272,32.128 C182.16,32.688 182.416,32.848 182.416,33.264 C182.416,33.68 182.096,33.92 181.52,33.92 C180.576,33.92 179.52,33.6 178.032,32.784 L177.056,34.816 C178.4,35.632 180.4,36.144 181.664,36.144 Z M191.488,36.144 C194.56,36.144 196.416,34.352 196.416,31.136 C196.416,27.904 194.56,26.08 191.488,26.08 C188.4,26.08 186.544,27.904 186.544,31.136 C186.544,34.352 188.4,36.144 191.488,36.144 Z M191.488,33.808 C190.032,33.808 189.184,32.896 189.184,31.136 C189.184,29.328 190.032,28.416 191.488,28.416 C192.928,28.416 193.776,29.328 193.776,31.136 C193.776,32.896 192.928,33.808 191.488,33.808 Z M202.256,36.144 C205.264,36.144 206.72,34.592 206.72,31.344 L206.72,26.24 L204.112,26.24 L204.112,31.344 C204.112,33.008 203.488,33.808 202.256,33.808 C201.04,33.808 200.416,33.008 200.416,31.344 L200.416,26.24 L197.808,26.24 L197.808,31.344 C197.808,34.592 199.264,36.144 202.256,36.144 Z M211.104,36 L211.104,33.28 L212.432,33.28 L214.384,36 L217.168,36 L217.168,35.792 L214.992,32.848 C216.192,32.32 216.848,31.312 216.848,29.888 C216.848,27.552 215.296,26.24 212.544,26.24 L208.496,26.24 L208.496,36 L211.104,36 Z M212.576,31.248 L211.104,31.248 L211.104,28.48 L212.576,28.48 C213.664,28.48 214.272,28.992 214.272,29.888 C214.272,30.752 213.664,31.248 212.576,31.248 Z M222.656,36.144 C224.16,36.144 225.408,35.808 226.816,35.024 L225.968,33.088 C224.656,33.616 223.872,33.808 222.784,33.808 C221.392,33.808 220.48,32.736 220.48,31.136 C220.48,29.328 221.328,28.416 222.944,28.416 C223.712,28.416 224.512,28.576 225.68,28.912 L226.464,26.96 C225.328,26.368 224.048,26.08 222.816,26.08 C219.696,26.08 217.84,27.904 217.84,31.136 C217.84,34.352 219.696,36.144 222.656,36.144 Z M235.344,36 L235.344,33.68 L230.624,33.68 L230.624,32.32 L234.544,32.32 L234.544,30.08 L230.624,30.08 L230.624,28.608 L235.216,28.608 L235.216,26.24 L228.016,26.24 L228.016,36 L235.344,36 Z M244.608,36.144 C246.112,36.144 247.36,35.808 248.768,35.024 L247.92,33.088 C246.608,33.616 245.824,33.808 244.736,33.808 C243.344,33.808 242.432,32.736 242.432,31.136 C242.432,29.328 243.28,28.416 244.896,28.416 C245.664,28.416 246.464,28.576 247.632,28.912 L248.416,26.96 C247.28,26.368 246,26.08 244.768,26.08 C241.648,26.08 239.792,27.904 239.792,31.136 C239.792,34.352 241.648,36.144 244.608,36.144 Z M257.296,36 L257.296,33.68 L252.576,33.68 L252.576,32.32 L256.496,32.32 L256.496,30.08 L252.576,30.08 L252.576,28.608 L257.168,28.608 L257.168,26.24 L249.968,26.24 L249.968,36 L257.296,36 Z M261.536,36 L261.536,30.496 L265.664,36 L268.032,36 L268.032,26.24 L265.424,26.24 L265.424,31.808 L261.296,26.24 L258.928,26.24 L258.928,36 L261.536,36 Z M274.864,36 L274.864,28.608 L277.888,28.608 L277.888,26.24 L269.248,26.24 L269.248,28.608 L272.256,28.608 L272.256,36 L274.864,36 Z M286.432,36 L286.432,33.68 L281.712,33.68 L281.712,32.32 L285.632,32.32 L285.632,30.08 L281.712,30.08 L281.712,28.608 L286.304,28.608 L286.304,26.24 L279.104,26.24 L279.104,36 L286.432,36 Z M290.672,36 L290.672,33.28 L292,33.28 L293.952,36 L296.736,36 L296.736,35.792 L294.56,32.848 C295.76,32.32 296.416,31.312 296.416,29.888 C296.416,27.552 294.864,26.24 292.112,26.24 L288.064,26.24 L288.064,36 L290.672,36 Z M292.144,31.248 L290.672,31.248 L290.672,28.48 L292.144,28.48 C293.232,28.48 293.84,28.992 293.84,29.888 C293.84,30.752 293.232,31.248 292.144,31.248 Z" id="CORONAVIRUSRESOURCECENTER" fill="#FFFFFF" fill-rule="nonzero"></path>
            <g id="enterprise-medicine.logo.small.horizontal.white" transform="translate(0.000000, 6.000000)" fill="#FFFFFE">
                <path d="M3.64206247,3.18125402 C3.64206247,0.902437366 3.44184808,0.656449243 2.2540037,0.553292933 L1.75169904,0.512896057 C1.63001397,0.430659558 1.67033984,0.0613166875 1.79131744,0 C2.95864515,0.0403968765 3.64206247,0.0613166875 4.48749072,0.0613166875 C5.29330058,0.0613166875 5.97742537,0.0403968765 6.78252776,0 C6.90279788,0.0613166875 6.94312375,0.430659558 6.82356109,0.512896057 L6.52076336,0.553292933 C5.33433392,0.718487303 5.29330058,1.00415093 5.29330058,3.18125402 L5.29330058,10.7953439 C5.29330058,12.4155472 5.21194138,13.831602 4.83132179,14.7751576 C4.16559126,16.4184448 2.73791409,17.7313433 0.86452998,17.7313433 C0.623989724,17.7313433 0,17.7104235 0,17.2999624 C0,16.9508179 0.30067532,16.354964 0.723743183,16.354964 C0.965698382,16.354964 1.20765358,16.3960822 1.47012545,16.4790401 C1.75169904,16.5605552 2.03256517,16.6225933 2.31413876,16.6225933 C2.73791409,16.6225933 2.97916182,16.3758838 3.11994862,16.0887774 C3.58334235,15.1235806 3.64206247,12.0462043 3.64206247,10.9374543 L3.64206247,3.18125402" id="Fill-1"></path>
                <path d="M17.8798752,8.35928385 C17.8798752,5.5412598 16.5508535,2.49972993 13.0715643,2.49972993 C11.1763232,2.49972993 8.71789877,3.71335231 8.71789877,7.45458353 C8.71789877,9.98148057 10.0294633,13.2628877 13.6172905,13.2628877 C15.8039904,13.2628877 17.8798752,11.7253954 17.8798752,8.35928385 M6.89552239,8.00053565 C6.89552239,4.58459794 9.62870746,1.97014925 13.3804802,1.97014925 C17.5884164,1.97014925 19.7014925,4.8230516 19.7014925,7.82970317 C19.7014925,11.2805192 16.8962018,13.7910448 13.3804802,13.7910448 C9.33724868,13.7910448 6.89552239,11.0755202 6.89552239,8.00053565" id="Fill-2"></path>
                <path d="M23.5923166,8.00484066 C22.7459052,8.00484066 22.7106381,8.04107839 22.7106381,8.57429071 L22.7106381,11.0754336 C22.7106381,12.9390883 22.7988059,13.1875756 23.7862859,13.2940702 L24.2969247,13.348057 C24.4034608,13.4183138 24.367459,13.7377975 24.2623923,13.7910448 C23.3094448,13.754807 22.7106381,13.7377975 22.0221941,13.7377975 C21.2646853,13.7377975 20.665144,13.7740352 19.9774347,13.7910448 C19.8716333,13.7377975 19.8371009,13.453812 19.9414329,13.348057 L20.2412035,13.2940702 C21.2286835,13.1173188 21.2646853,12.9390883 21.2646853,11.0754336 L21.2646853,4.68576039 C21.2646853,2.82284523 21.1412504,2.52111066 20.2243047,2.44937475 L19.7650972,2.41387656 C19.6592957,2.34288019 19.6952976,2.02413608 19.801099,1.97014925 C20.665144,1.9871588 21.2646853,2.02413608 22.0221941,2.02413608 C22.7106381,2.02413608 23.3094448,2.00712653 24.0676883,1.97014925 C24.1734897,2.02413608 24.2094916,2.34288019 24.1029554,2.41387656 L23.7679176,2.44937475 C22.7459052,2.5558693 22.7106381,2.82284523 22.7106381,4.68576039 L22.7106381,6.72764556 C22.7106381,7.27786742 22.7459052,7.29561651 23.5923166,7.29561651 L28.6355177,7.29561651 C29.481929,7.29561651 29.5179309,7.27786742 29.5179309,6.72764556 L29.5179309,4.68576039 C29.5179309,2.82284523 29.481929,2.5558693 28.4415484,2.44937475 L28.1072453,2.41387656 C28.0007091,2.34288019 28.0352415,2.02413608 28.1417777,1.97014925 C28.9521872,2.00712653 29.5524633,2.02413608 30.2754397,2.02413608 C30.9631489,2.02413608 31.5626903,2.00712653 32.356201,1.97014925 C32.4605329,2.02413608 32.4965348,2.34288019 32.3922028,2.41387656 L32.0204284,2.44937475 C30.9991508,2.5558693 30.9631489,2.82284523 30.9631489,4.68576039 L30.9631489,11.0754336 C30.9631489,12.9390883 30.9991508,13.1698265 32.0204284,13.2940702 L32.4436341,13.348057 C32.5494355,13.4183138 32.5141684,13.7377975 32.4076322,13.7910448 C31.5626903,13.754807 30.9631489,13.7377975 30.2754397,13.7377975 C29.5524633,13.7377975 28.9183895,13.754807 28.1417777,13.7910448 C28.0352415,13.7377975 28.0007091,13.453812 28.1072453,13.348057 L28.4415484,13.2940702 C29.5179309,13.1173188 29.5179309,12.9390883 29.5179309,11.0754336 L29.5179309,8.57429071 C29.5179309,8.04107839 29.481929,8.00484066 28.6355177,8.00484066 L23.5923166,8.00484066" id="Fill-3"></path>
                <path d="M43.7573141,10.5534469 C43.7573141,11.0764826 43.7573141,13.1475876 43.8074344,13.599531 C43.7740209,13.7047185 43.6694221,13.7910448 43.4776576,13.7910448 C43.2691864,13.4965199 42.7621728,12.887158 41.2462166,11.1628088 L37.2017298,6.56647905 C36.7317616,6.02675851 35.5448558,4.59911061 35.17876,4.21753399 L35.1460729,4.21753399 C35.0741612,4.42573264 35.0574545,4.82544504 35.0574545,5.34775524 L35.0574545,9.14393482 C35.0574545,9.96149538 35.0741612,12.225565 35.3712509,12.7464244 C35.476576,12.939389 35.8252387,13.0431256 36.261067,13.0779463 L36.8007677,13.1309027 C36.9060929,13.26946 36.8879334,13.4791095 36.7659015,13.5654358 C35.9814105,13.5306151 35.3712509,13.5132048 34.7269513,13.5132048 C33.9940334,13.5132048 33.5240652,13.5306151 32.9131791,13.5654358 C32.7911472,13.4791095 32.7744404,13.2339139 32.8783129,13.1309027 L33.3490074,13.0779463 C33.7499695,13.0257152 34.0281732,12.9212532 34.1175181,12.7297395 C34.3594028,12.1036926 34.342696,9.97963115 34.342696,9.14393482 L34.342696,4.11234652 C34.342696,3.62413157 34.3259893,3.25778899 33.9598935,2.85880203 C33.7151032,2.61505727 33.2974344,2.49245946 32.8783129,2.44022844 L32.5819496,2.40613319 C32.4773508,2.30167115 32.4773508,2.04124148 32.6175422,1.97014925 C33.3490074,2.0231057 34.2722371,2.0231057 34.5867599,2.0231057 C34.86569,2.0231057 35.1627796,2.00569536 35.3894104,1.97014925 C35.7373466,2.85880203 37.7944563,5.15696693 38.3704761,5.80114951 L40.06149,7.69815116 C41.262197,9.03874735 42.1171469,10.0137264 42.9372305,10.8494227 L42.9728231,10.8494227 C43.0425557,10.7630965 43.0425557,10.4838056 43.0425557,10.1181884 L43.0425557,6.39237565 C43.0425557,5.57408966 43.0251225,3.31147088 42.6931666,2.78843524 C42.5885678,2.63174218 42.3096377,2.52728014 41.611586,2.44022844 L41.3159491,2.40613319 C41.1939172,2.30167115 41.2120767,2.0231057 41.3508154,1.97014925 C42.1527395,2.00569536 42.745466,2.0231057 43.4086515,2.0231057 C44.1568234,2.0231057 44.6093585,2.00569536 45.2028114,1.97014925 C45.3437292,2.05792639 45.3437292,2.30167115 45.238404,2.40613319 L44.9943402,2.44022844 C44.4372063,2.52728014 44.0878173,2.66728829 44.0173584,2.80584558 C43.7217215,3.43261783 43.7573141,5.5915 43.7573141,6.39237565 L43.7573141,10.5534469" id="Fill-4"></path>
                <path d="M48.5007255,13.7910448 C47.0365879,13.7910448 46.1144279,13.3475654 45.7843076,13.1596384 C45.5746269,12.7830725 45.3475332,11.5708007 45.3134328,10.7685516 C45.4004975,10.6475379 45.6624171,10.6140812 45.7320688,10.7172987 C45.9925373,11.5871731 46.7064677,13.2628559 48.7263682,13.2628559 C50.1890547,13.2628559 50.9029851,12.3225089 50.9029851,11.2981641 C50.9029851,10.5457441 50.7477197,9.70932643 49.4743988,8.90565359 L47.8208955,7.84571662 C46.9509743,7.28264734 45.941024,6.30813175 45.941024,4.90793294 C45.941024,3.28492669 47.2295813,1.97014925 49.4932629,1.97014925 C50.0323383,1.97014925 50.659204,2.07265491 51.1126658,2.191533 C51.3383085,2.2612938 51.581364,2.2947505 51.719942,2.2947505 C51.8773839,2.70406129 52.0348259,3.66149261 52.0348259,4.37832037 C51.9651741,4.48153787 51.6865672,4.53207886 51.5987769,4.43028504 C51.3731343,3.60952794 50.9029851,2.49904997 49.2306177,2.49904997 C47.5241501,2.49904997 47.1584784,3.60952794 47.1584784,4.39682834 C47.1584784,5.38629267 47.9957504,6.10383228 48.6393035,6.49748248 L50.0323383,7.35098445 C51.1293532,8.01727123 52.2089552,9.00815925 52.2089552,10.6311655 C52.2089552,12.5104359 50.7644071,13.7910448 48.5007255,13.7910448" id="Fill-5"></path>
                <path d="M62.6084194,7.04220465 C61.6321605,7.04220465 61.5913937,7.082242 61.5913937,7.70318479 L61.5913937,10.623727 C61.5913937,12.7973907 61.692238,13.0878434 62.8315643,13.2130511 L63.4230413,13.275655 C63.5446266,13.3579135 63.5038598,13.7306248 63.380844,13.7910448 C62.2829998,13.7502795 61.5913937,13.7306248 60.798228,13.7306248 C59.9220983,13.7306248 59.2304921,13.7713901 58.4373265,13.7910448 C58.3143107,13.7306248 58.2735439,13.3986788 58.3965597,13.275655 L58.7420051,13.2130511 C59.8813314,13.004857 59.9220983,12.7973907 59.9220983,10.623727 L59.9220983,3.16804576 C59.9220983,0.993654058 59.7797719,0.641325439 58.7219793,0.559066898 L58.1927254,0.517573652 C58.07114,0.435315111 58.1119069,0.0618758937 58.2334922,0 C59.2304921,0.0203826473 59.9220983,0.0618758937 60.798228,0.0618758937 C61.5913937,0.0618758937 62.2829998,0.0414932464 63.1576991,0 C63.2799997,0.0618758937 63.3207665,0.435315111 63.1977508,0.517573652 L62.8108232,0.559066898 C61.6321605,0.684274589 61.5913937,0.993654058 61.5913937,3.16804576 L61.5913937,5.54990369 C61.5913937,6.19195708 61.6321605,6.21161177 62.6084194,6.21161177 L68.4280666,6.21161177 C69.4043255,6.21161177 69.4443772,6.19195708 69.4443772,5.54990369 L69.4443772,3.16804576 C69.4443772,0.993654058 69.4043255,0.684274589 68.2027761,0.559066898 L67.8158486,0.517573652 C67.6942633,0.435315111 67.7350301,0.0618758937 67.8580459,0 C68.7913923,0.0414932464 69.485144,0.0618758937 70.3190765,0.0618758937 C71.1122421,0.0618758937 71.8052787,0.0414932464 72.7207449,0 C72.841615,0.0618758937 72.8838123,0.435315111 72.7607965,0.517573652 L72.3331021,0.559066898 C71.1544394,0.684274589 71.1122421,0.993654058 71.1122421,3.16804576 L71.1122421,10.623727 C71.1122421,12.7973907 71.1544394,13.0674608 72.3331021,13.2130511 L72.8223044,13.275655 C72.9438898,13.3579135 72.9031229,13.7306248 72.7801071,13.7910448 C71.8052787,13.7502795 71.1122421,13.7306248 70.3190765,13.7306248 C69.485144,13.7306248 68.7534863,13.7502795 67.8580459,13.7910448 C67.7350301,13.7306248 67.6942633,13.3986788 67.8158486,13.275655 L68.2027761,13.2130511 C69.4443772,13.004857 69.4443772,12.7973907 69.4443772,10.623727 L69.4443772,7.70318479 C69.4443772,7.082242 69.4043255,7.04220465 68.4280666,7.04220465 L62.6084194,7.04220465" id="Fill-6"></path>
                <path d="M83.8797672,8.35928385 C83.8797672,5.5412598 82.5514258,2.49972993 79.0704123,2.49972993 C77.177336,2.49972993 74.7180068,3.71335231 74.7180068,7.45458353 C74.7180068,9.98148057 76.029649,13.2628877 79.6176889,13.2628877 C81.8045184,13.2628877 83.8797672,11.7253954 83.8797672,8.35928385 M72.8955224,8.00053565 C72.8955224,4.58459794 75.6296285,1.97014925 79.3801056,1.97014925 C83.5890502,1.97014925 85.7014925,4.8230516 85.7014925,7.82970317 C85.7014925,11.2805192 82.8967946,13.7910448 79.3801056,13.7910448 C75.3373934,13.7910448 72.8955224,11.0755202 72.8955224,8.00053565" id="Fill-7"></path>
                <path d="M88.8566952,11.0756035 C88.8566952,12.9391416 88.8946669,13.1698654 90.0841865,13.2941013 L90.5871169,13.3473452 C90.698707,13.4353456 90.6622852,13.7378008 90.5491453,13.7910448 C89.4898141,13.7548093 88.8768435,13.7378008 88.1321345,13.7378008 C87.3510037,13.7378008 86.6822379,13.7548093 85.8631355,13.7910448 C85.7507705,13.7378008 85.7151237,13.4530936 85.8267138,13.3473452 L86.2172791,13.2941013 C87.2952086,13.1528569 87.3324053,12.9391416 87.3324053,11.0756035 L87.3324053,4.52733766 C87.3324053,3.01801969 87.2952086,2.716304 86.4582828,2.62682459 L85.7887421,2.55583266 C85.6585537,2.45008427 85.6763771,2.18386454 85.8267138,2.11287261 C86.8124264,1.98789724 87.9655242,1.97014925 89.5076376,1.97014925 C91.0513008,1.97014925 92.2051735,2.16463756 93.079296,2.68080803 C93.9348202,3.19476001 94.5671642,4.11839458 94.5671642,5.34226584 C94.5671642,6.97508018 93.5078331,7.79296635 92.707329,8.16493448 C91.8882266,8.5376421 90.9032889,8.69589494 90.1399815,8.69589494 C90.010568,8.64486949 90.010568,8.37791026 90.1221581,8.3424143 C92.1307801,7.98671516 92.8553409,6.90408825 92.8553409,5.36075332 C92.8553409,3.63845956 91.7960098,2.52181569 89.8617812,2.52181569 C88.8768435,2.52181569 88.8566952,2.59132862 88.8566952,3.16074305 L88.8566952,11.0756035" id="Fill-8"></path>
                <path d="M96.1852072,4.6855905 C96.1852072,2.82205239 96.1479305,2.53808468 95.0897306,2.45008427 L94.6325213,2.4145883 C94.5237343,2.34285688 94.561011,2.0233932 94.6690371,1.97014925 C95.5636764,2.00638472 96.1479305,2.0233932 96.969538,2.0233932 C97.680837,2.0233932 98.3023678,2.00638472 99.0882201,1.97014925 C99.197007,2.0233932 99.2335229,2.34285688 99.1239753,2.4145883 L98.7778351,2.45008427 C97.7181136,2.55583266 97.680837,2.82205239 97.680837,4.6855905 L97.680837,6.72808743 C97.680837,7.06455959 97.7181136,7.40103175 97.9204725,7.40103175 C98.0840333,7.40103175 98.3023678,7.29528336 98.4301734,7.20580395 C98.6857846,6.99356766 99.1612519,6.53138063 99.3613285,6.35390081 L101.333186,4.45560624 C101.679327,4.13540306 102.575487,3.23025598 102.756545,2.98252373 C102.848596,2.85754835 102.885872,2.76880844 102.885872,2.69781652 C102.885872,2.62756409 102.812841,2.57432014 102.575487,2.5210762 L102.082523,2.4145883 C101.954717,2.28961293 101.972214,2.05962866 102.117517,1.97014925 C102.756545,2.00638472 103.487624,2.0233932 104.126652,2.0233932 C104.76568,2.0233932 105.38645,2.00638472 105.933427,1.97014925 C106.062754,2.05962866 106.080252,2.30810041 105.970704,2.4145883 C105.496758,2.45008427 104.784698,2.62756409 104.273476,2.9115318 C103.763014,3.19476001 102.739048,4.02891517 101.716603,4.97029771 L100.073388,6.47813669 C99.8177771,6.72808743 99.6526949,6.88707977 99.6526949,7.02832413 C99.6526949,7.154039 99.7630033,7.29528336 100.000357,7.57851157 C101.7341,9.51230211 103.139962,11.11036 104.564842,12.5656945 C105.003033,12.9916461 105.33624,13.2231094 105.955489,13.2941013 L106.307715,13.3473452 C106.437042,13.4353456 106.399766,13.7370613 106.270439,13.7910448 C105.796493,13.7548093 105.295921,13.7370613 104.437037,13.7370613 C103.689983,13.7370613 103.049433,13.7548093 102.209568,13.7910448 C102.082523,13.7548093 102.026988,13.4523541 102.137297,13.3473452 L102.556469,13.2748743 C102.812841,13.2401178 102.994659,13.1868739 102.994659,13.0988735 C102.994659,12.9916461 102.866854,12.8504017 102.739048,12.6899304 C102.391386,12.2639788 101.917441,11.7847833 101.223639,11.0216201 L99.7630033,9.4243017 C98.7230613,8.28917035 98.4301734,7.93421071 97.9919828,7.93421071 C97.7181136,7.93421071 97.680837,8.16493448 97.680837,8.78611385 L97.680837,11.0756035 C97.680837,12.9384021 97.7181136,13.1868739 98.7405585,13.2941013 L99.2335229,13.3473452 C99.3423098,13.4183372 99.3073155,13.7370613 99.197007,13.7910448 C98.3023678,13.7548093 97.680837,13.7370613 96.969538,13.7370613 C96.2202016,13.7370613 95.600953,13.7548093 94.8523773,13.7910448 C94.7428297,13.7370613 94.7047923,13.4715811 94.8151007,13.3473452 L95.1802595,13.2941013 C96.1479305,13.1521174 96.1852072,12.9384021 96.1852072,11.0756035 L96.1852072,4.6855905" id="Fill-9"></path>
                <path d="M108.077243,4.72182597 C108.077243,2.84053987 108.040321,2.53808468 106.926377,2.45008427 L106.456603,2.4145883 C106.343481,2.34285688 106.380403,2.0241327 106.494311,1.97014925 C107.436214,2.00638472 108.077243,2.0241327 108.869101,2.0241327 C109.624038,2.0241327 110.265067,2.00638472 111.207756,1.97014925 C111.320878,2.0241327 111.3578,2.34285688 111.245463,2.4145883 L110.773333,2.45008427 C109.66096,2.53808468 109.624038,2.84053987 109.624038,4.72182597 L109.624038,11.0393681 C109.624038,12.9213937 109.66096,13.1698654 110.773333,13.2941013 L111.245463,13.3473452 C111.3578,13.4183372 111.320878,13.7370613 111.207756,13.7910448 C110.265067,13.7548093 109.624038,13.7370613 108.869101,13.7370613 C108.077243,13.7370613 107.508487,13.7548093 106.565798,13.7910448 C106.452676,13.7370613 106.415754,13.4530936 106.529662,13.3473452 L106.926377,13.2941013 C108.040321,13.1698654 108.077243,12.9213937 108.077243,11.0393681 L108.077243,4.72182597" id="Fill-10"></path>
                <path d="M123.546906,10.5534469 C123.546906,11.0764826 123.546906,13.1475876 123.600658,13.599531 C123.565066,13.7047185 123.460467,13.7910448 123.268702,13.7910448 C123.060231,13.4965199 122.553944,12.887158 121.037261,11.1628088 L116.992775,6.56647905 C116.522806,6.02675851 115.336627,4.59911061 114.970531,4.21753399 L114.936391,4.21753399 C114.865932,4.42573264 114.848499,4.82544504 114.848499,5.34775524 L114.848499,9.14393482 C114.848499,9.96149538 114.865932,12.225565 115.162296,12.7464244 C115.267621,12.939389 115.616283,13.0431256 116.052112,13.0779463 L116.592539,13.1309027 C116.695685,13.26946 116.678978,13.4791095 116.556946,13.5654358 C115.772455,13.5306151 115.162296,13.5132048 114.517996,13.5132048 C113.785805,13.5132048 113.31511,13.5306151 112.70495,13.5654358 C112.582918,13.4791095 112.564759,13.2339139 112.669358,13.1309027 L113.140779,13.0779463 C113.541014,13.0257152 113.819944,12.9212532 113.907836,12.7297395 C114.1519,12.1036926 114.133741,9.97963115 114.133741,9.14393482 L114.133741,4.11234652 C114.133741,3.62413157 114.117034,3.25778899 113.750938,2.85880203 C113.506874,2.61505727 113.088479,2.49245946 112.669358,2.44022844 L112.372994,2.40613319 C112.268396,2.30167115 112.268396,2.04124148 112.408587,1.97014925 C113.140779,2.0231057 114.064008,2.0231057 114.377805,2.0231057 C114.657461,2.0231057 114.953824,2.00569536 115.180455,1.97014925 C115.529844,2.85880203 117.585501,5.15696693 118.160068,5.80114951 L119.852535,7.69815116 C121.055421,9.03874735 121.908192,10.0137264 122.728275,10.8494227 L122.763868,10.8494227 C122.8336,10.7630965 122.8336,10.4838056 122.8336,10.1181884 L122.8336,6.39237565 C122.8336,5.57408966 122.816167,3.31147088 122.484211,2.78843524 C122.379613,2.63174218 122.101409,2.52728014 121.40481,2.44022844 L121.108447,2.40613319 C120.984962,2.30167115 121.003122,2.0231057 121.14186,1.97014925 C121.943784,2.00569536 122.536511,2.0231057 123.19897,2.0231057 C123.950047,2.0231057 124.402582,2.00569536 124.993856,1.97014925 C125.134774,2.05792639 125.134774,2.30167115 125.029449,2.40613319 L124.785385,2.44022844 C124.227525,2.52728014 123.878862,2.66728829 123.80913,2.80584558 C123.512766,3.43261783 123.546906,5.5915 123.546906,6.39237565 L123.546906,10.5534469" id="Fill-11"></path>
                <path d="M128.292551,13.7910448 C126.828721,13.7910448 125.906755,13.3475654 125.575253,13.1596384 C125.366342,12.7830725 125.140022,11.5708007 125.104478,10.7685516 C125.192249,10.6475379 125.454839,10.6140812 125.5223,10.7172987 C125.78489,11.5871731 126.49867,13.2628559 128.51742,13.2628559 C129.979799,13.2628559 130.693579,12.3225089 130.693579,11.2981641 C130.693579,10.5457441 130.53617,9.70932643 129.265294,8.90565359 L127.613589,7.84571662 C126.7424,7.28264734 125.731937,6.30813175 125.731937,4.90793294 C125.731937,3.28492669 127.020223,1.97014925 129.284154,1.97014925 C129.823841,1.97014925 130.449849,2.07265491 130.903216,2.191533 C131.130262,2.2612938 131.372541,2.2947505 131.51109,2.2947505 C131.668498,2.70406129 131.825907,3.66149261 131.825907,4.37832037 C131.754819,4.48153787 131.476996,4.53207886 131.389225,4.43028504 C131.164355,3.60952794 130.693579,2.49904997 129.023015,2.49904997 C127.316181,2.49904997 126.950586,3.60952794 126.950586,4.39682834 C126.950586,5.38629267 127.786231,6.10383228 128.429649,6.49748248 L129.823841,7.35098445 C130.920625,8.01727123 132,9.00815925 132,10.6311655 C132,12.5104359 130.55503,13.7910448 128.292551,13.7910448" id="Fill-12"></path>
                <path d="M11.5090166,23.88227 C11.5090166,23.3432978 11.4901344,22.3418481 11.324128,22.0807834 C11.2548931,21.9755154 11.0794456,21.9151618 10.83555,21.8976171 L10.5916544,21.8800724 C10.5326474,21.8197188 10.5523164,21.7067311 10.6105366,21.6716418 C10.9818874,21.6884847 11.3430103,21.6976079 11.7230154,21.6976079 C12.1337041,21.6976079 12.3972688,21.6884847 12.7481638,21.6716418 C12.8268398,21.7144508 12.8166119,21.8274384 12.7686195,21.8800724 L12.5333783,21.8976171 C12.2894826,21.9151618 12.104594,21.9937619 12.0463738,22.1067496 C11.9094775,22.3937803 11.9094775,23.39523 11.9094775,23.88227 L11.9094775,24.8668767 C11.9094775,25.6241046 11.7725813,26.4248432 11.225783,26.9469726 C10.8056531,27.3561142 10.0834074,27.5820896 9.36194835,27.5820896 C8.68848171,27.5820896 8.01501508,27.4698037 7.53587818,27.1041728 C7.01976356,26.7209972 6.77508117,26.0851785 6.77508117,25.0493413 L6.77508117,22.9952115 C6.77508117,22.0899067 6.75541217,21.9418297 6.18973167,21.8976171 L5.94583604,21.8800724 C5.88682903,21.8456849 5.90728479,21.6976079 5.96550504,21.6716418 C6.45250954,21.6884847 6.78452229,21.6976079 7.17554206,21.6976079 C7.57600295,21.6976079 7.89700106,21.6884847 8.37613796,21.6716418 C8.43514496,21.6976079 8.45402721,21.8456849 8.3950202,21.8800724 L8.16135245,21.8976171 C7.59488519,21.9418297 7.57600295,22.0899067 7.57600295,22.9952115 L7.57600295,24.8752982 C7.57600295,26.2767663 8.06300744,27.1996158 9.55706485,27.1996158 C10.9716595,27.1996158 11.5090166,26.2072894 11.5090166,24.8837196 L11.5090166,23.88227" id="Fill-13"></path>
                <path d="M19.8483983,25.9625581 C19.8483983,26.2242935 19.8483983,27.2600077 19.8763974,27.4866579 C19.8582359,27.5385839 19.8014809,27.5820896 19.6985653,27.5820896 C19.5850554,27.4340301 19.3126317,27.1294909 18.4968739,26.2677991 L16.3182408,23.9690187 C16.0654921,23.6995646 15.4268098,22.9859323 15.2293026,22.7943672 L15.211141,22.7943672 C15.1733043,22.898921 15.1642235,23.0989065 15.1642235,23.3599402 L15.1642235,25.2580479 C15.1642235,25.667141 15.1733043,26.7982869 15.3322182,27.0600222 C15.3889731,27.1554539 15.5766428,27.2073799 15.8112299,27.2249225 L16.102572,27.2515872 C16.1585702,27.3210559 16.1494894,27.4256097 16.0836537,27.4691153 C15.6613969,27.4515727 15.3322182,27.4424506 14.9848779,27.4424506 C14.591377,27.4424506 14.3378716,27.4515727 14.0094496,27.4691153 C13.9436139,27.4256097 13.9345331,27.3035133 13.991288,27.2515872 L14.2440367,27.2249225 C14.4597055,27.1989595 14.6095386,27.1470334 14.6572127,27.0509001 C14.7881274,26.7379404 14.7790467,25.6755614 14.7790467,25.2580479 L14.7790467,22.7417395 C14.7790467,22.4989501 14.7692091,22.3158055 14.5724587,22.11582 C14.4407872,21.9937237 14.2160376,21.9326755 13.991288,21.9067124 L13.8308607,21.8884681 C13.7748625,21.8365421 13.7748625,21.706727 13.8505358,21.6716418 C14.2440367,21.6976048 14.74121,21.6976048 14.9107181,21.6976048 C15.0605512,21.6976048 15.2202218,21.6884827 15.3428124,21.6716418 C15.5304821,22.11582 16.6375819,23.2645085 16.9478423,23.5865904 L17.8581916,24.5352934 C18.5059547,25.2054201 18.9652914,25.693104 19.4072232,26.1106175 L19.4253848,26.1106175 C19.4632214,26.0671119 19.4632214,25.9281746 19.4632214,25.74503 L19.4632214,23.8820075 C19.4632214,23.4729144 19.4541407,22.3417685 19.2755518,22.0807349 C19.2195535,22.0021441 19.0697205,21.9495163 18.6936244,21.9067124 L18.5339538,21.8884681 C18.4688748,21.8365421 18.4771989,21.6976048 18.5528721,21.6716418 C18.9842097,21.6884827 19.3043076,21.6976048 19.6599719,21.6976048 C20.0640671,21.6976048 20.307735,21.6884827 20.6270762,21.6716418 C20.7027494,21.7144457 20.7027494,21.8365421 20.6467512,21.8884681 L20.514323,21.9067124 C20.2139002,21.9495163 20.0262305,22.0196867 19.9899073,22.089857 C19.8302368,22.4028167 19.8483983,23.4820366 19.8483983,23.8820075 L19.8483983,25.9625581" id="Fill-14"></path>
                <path d="M22.3481991,23.0473125 C22.3481991,22.1058758 22.3330036,21.9549312 21.8874721,21.9112932 L21.6996559,21.8926934 C21.6534616,21.8583553 21.6686571,21.6981108 21.7142436,21.6716418 C22.0916994,21.6888108 22.3481991,21.6981108 22.6642652,21.6981108 C22.9663514,21.6981108 23.2216355,21.6888108 23.5996991,21.6716418 C23.6440699,21.6981108 23.6598732,21.8583553 23.6148946,21.8926934 L23.425255,21.9112932 C22.980939,21.9549312 22.9663514,22.1058758 22.9663514,23.0473125 L22.9663514,26.2064189 C22.9663514,27.1471401 22.980939,27.2709004 23.425255,27.3331382 L23.6148946,27.3603226 C23.6598732,27.3953761 23.6440699,27.5549052 23.5996991,27.5820896 C23.2216355,27.5642051 22.9663514,27.5549052 22.6642652,27.5549052 C22.3481991,27.5549052 22.0916994,27.5642051 21.7142436,27.5820896 C21.6686571,27.5549052 21.6534616,27.4132605 21.6996559,27.3603226 L21.8874721,27.3331382 C22.3330036,27.2709004 22.3481991,27.1471401 22.3481991,26.2064189 L22.3481991,23.0473125" id="Fill-15"></path>
                <path d="M25.6373549,22.6196431 C25.4133536,22.1326609 25.2671633,21.9495163 24.8490277,21.9067124 L24.6713986,21.8884681 C24.6053772,21.8365421 24.6132369,21.7144457 24.6918338,21.6716418 C24.9739968,21.6884827 25.2875986,21.6976048 25.7057342,21.6976048 C26.1348735,21.6976048 26.4759842,21.6884827 26.8854742,21.6716418 C26.9538536,21.706727 26.9735028,21.8365421 26.9051235,21.8884681 L26.7589332,21.9067124 C26.3879556,21.9495163 26.3101447,22.0021441 26.300713,22.0716127 C26.3211482,22.158624 26.4862018,22.6287652 26.7888,23.2904715 C27.2375885,24.3002227 27.6848051,25.3015535 28.173678,26.2937621 C28.4747042,25.719067 28.8841943,24.8222901 29.1081955,24.3612709 C29.3911445,23.7690333 29.8493646,22.7859468 30.0152042,22.4112372 C30.0938011,22.2287943 30.1040187,22.1326609 30.1040187,22.0716127 C30.1040187,22.0105645 30.0065585,21.9417976 29.6638759,21.9067124 L29.4886047,21.8884681 C29.4202254,21.8365421 29.4398746,21.706727 29.5090399,21.6716418 C29.7809853,21.6884827 30.1527488,21.6976048 30.5221544,21.6976048 C30.8444018,21.6976048 31.147,21.6884827 31.4684615,21.6716418 C31.5368408,21.706727 31.5368408,21.8449625 31.4873247,21.8884681 L31.1949442,21.9067124 C30.9607253,21.9235533 30.815321,22.0288088 30.6879939,22.21055 C30.4160485,22.6196431 30.0364253,23.324855 29.5970685,24.2132115 L29.070469,25.2840109 C28.6806282,26.0839528 28.2216221,27.0944057 28.0557826,27.5561265 C28.0259158,27.5736691 27.9874033,27.5820896 27.9481048,27.5820896 C27.9001607,27.5820896 27.8506446,27.5736691 27.8019145,27.5561265 C27.6950227,27.1905391 27.5197515,26.7639034 27.353912,26.3983159 L25.6373549,22.6196431" id="Fill-16"></path>
                <path d="M32.4139169,23.0287126 C32.4139169,22.1058758 32.3964196,21.973531 31.8627536,21.9120086 L31.7176723,21.8926934 C31.6637225,21.8583553 31.6819488,21.6981108 31.7358986,21.6716418 C32.1252123,21.6888108 32.4321432,21.6981108 32.8025016,21.6981108 L34.5033797,21.6981108 C35.0822469,21.6981108 35.616642,21.6981108 35.7245417,21.6716418 C35.7784915,21.8225864 35.8324414,22.460703 35.868894,22.8512991 C35.8324414,22.9049524 35.6880891,22.9228368 35.6436169,22.8698989 C35.5072842,22.4528339 35.4256304,22.1416447 34.9553919,22.026469 C34.7665675,21.9814002 34.4764048,21.973531 34.0783424,21.973531 L33.4280281,21.973531 C33.1560918,21.973531 33.1560918,21.9907001 33.1560918,22.3283582 L33.1560918,24.1024941 C33.1560918,24.3514454 33.1830667,24.3514454 33.455003,24.3514454 L33.9784623,24.3514454 C34.3590274,24.3514454 34.6397124,24.333561 34.7476121,24.2985075 C34.8562408,24.2627386 34.9203974,24.2098007 34.9648696,23.9873183 L35.0370457,23.6239066 C35.0822469,23.5702533 35.2360769,23.5702533 35.2718004,23.6324911 C35.2718004,23.8456736 35.2360769,24.1919162 35.2360769,24.528859 C35.2360769,24.8486327 35.2718004,25.1855754 35.2718004,25.3808734 C35.2360769,25.4431112 35.0822469,25.4431112 35.0370457,25.3894579 L34.9553919,25.0439307 C34.9203974,24.8836861 34.8562408,24.750626 34.675436,24.7062726 C34.5485809,24.6705037 34.3320525,24.6619192 33.9784623,24.6619192 L33.455003,24.6619192 C33.1830667,24.6619192 33.1560918,24.6705037 33.1560918,24.9015706 L33.1560918,26.1527656 C33.1560918,26.6234839 33.1830667,26.9253731 33.328148,27.0756024 C33.4360477,27.1821936 33.6256012,27.2802003 34.4217259,27.2802003 C35.1179705,27.2802003 35.3804292,27.2444314 35.5794604,27.1471401 C35.742768,27.0584333 35.9862713,26.7479595 36.2217551,26.2858258 C36.2859117,26.2414724 36.4120376,26.2686567 36.4477612,26.3480636 C36.3843337,26.6585374 36.1590566,27.3424381 36.0409502,27.5820896 C35.2265992,27.5642051 34.4217259,27.5549052 33.6168526,27.5549052 L32.8025016,27.5549052 C32.4139169,27.5549052 32.106257,27.5642051 31.57332,27.5820896 C31.5186411,27.5549052 31.5011439,27.4132605 31.5550937,27.3603226 L31.853276,27.3331382 C32.3687157,27.2887848 32.4139169,27.1557246 32.4139169,26.2243033 L32.4139169,23.0287126" id="Fill-17"></path>
                <path d="M39.0060913,24.2758864 C39.0060913,24.4335267 39.0060913,24.5303729 39.0343396,24.5657182 C39.0618446,24.5918738 39.2008564,24.6088395 39.671415,24.6088395 C40.0022185,24.6088395 40.3530931,24.5742011 40.6207094,24.3812156 C40.8689978,24.1967129 41.0816041,23.8899153 41.0816041,23.2939929 C41.0816041,22.6005173 40.6296299,21.9438009 39.6059977,21.9438009 C39.0343396,21.9438009 39.0060913,21.9777324 39.0060913,22.223736 L39.0060913,24.2758864 Z M38.2500753,23.0218338 C38.2500753,22.1883907 38.2225703,22.0392333 37.844934,21.996112 L37.5498127,21.9607667 C37.4843954,21.9169385 37.4843954,21.776264 37.5587333,21.7409187 C38.0753814,21.6977973 38.7117134,21.6716418 39.6149183,21.6716418 C40.1865763,21.6716418 40.7307294,21.7147631 41.1551985,21.9339042 C41.5975088,22.1537522 41.9208784,22.5482062 41.9208784,23.1618013 C41.9208784,23.9952444 41.228793,24.4511993 40.7678983,24.6265122 C40.7225522,24.6795302 40.7678983,24.7671867 40.8139878,24.8371704 C41.5514193,25.9682213 42.0405624,26.6701798 42.6679738,27.1699629 C42.8248267,27.3014476 43.055274,27.3975869 43.3035625,27.4152595 C43.3503953,27.4329322 43.3585725,27.502916 43.3132264,27.5382613 C43.229968,27.5644169 43.082779,27.5820896 42.9073417,27.5820896 C42.1230774,27.5820896 41.6532622,27.3629484 40.9983457,26.4771942 C40.7582344,26.152724 40.3813415,25.5476118 40.0951408,25.1531578 C39.956129,24.9594653 39.8089401,24.8718089 39.4402243,24.8718089 C39.0246757,24.8718089 39.0060913,24.8809987 39.0060913,25.0655013 L39.0060913,26.1703967 C39.0060913,27.0907893 39.0246757,27.1961184 39.5599082,27.2653953 L39.75393,27.2929647 C39.8089401,27.336086 39.7903556,27.4852433 39.7346022,27.5121058 C39.319797,27.4944331 39.0060913,27.4852433 38.6373755,27.4852433 C38.2500753,27.4852433 37.9185285,27.4944331 37.4843954,27.5121058 C37.4293854,27.4852433 37.410801,27.3537587 37.4665543,27.2929647 L37.6970017,27.2653953 C38.2322342,27.2046013 38.2500753,27.0907893 38.2500753,26.1703967 L38.2500753,23.0218338 L38.2500753,23.0218338 Z" id="Fill-18"></path>
                <path d="M45.1642884,27.5820896 C44.3279573,27.5820896 43.8011408,27.3596904 43.6119039,27.2660486 C43.4932298,27.0780765 43.3633299,26.4714707 43.3432836,26.0700505 C43.3929984,26.0101473 43.5429446,25.9929337 43.5822353,26.0445744 C43.7313797,26.4804217 44.1395222,27.3170007 45.2925847,27.3170007 C46.1289159,27.3170007 46.5362564,26.8474148 46.5362564,26.3351393 C46.5362564,25.9591952 46.4472509,25.5405614 45.7207734,25.1391412 L44.7761923,24.6096521 C44.2790443,24.3273497 43.7017112,23.8405503 43.7017112,23.1403027 C43.7017112,22.3291998 44.4378109,21.6716418 45.7311975,21.6716418 C46.0399103,21.6716418 46.3967343,21.7225939 46.6557323,21.7824971 C46.7848304,21.8169242 46.9243526,21.8334492 47.0045378,21.8334492 C47.0935433,22.0386349 47.1833506,22.5164833 47.1833506,22.8759024 C47.1440599,22.9268545 46.9844915,22.9523306 46.9339748,22.9013785 C46.8056786,22.4910072 46.5362564,21.9353535 45.5820531,21.9353535 C44.6070016,21.9353535 44.3985202,22.4910072 44.3985202,22.8841649 C44.3985202,23.3792269 44.8756219,23.738646 45.2436718,23.9348806 L46.0399103,24.3617769 C46.6661564,24.6950314 47.2835821,25.1900933 47.2835821,26.0018848 C47.2835821,26.9417451 46.4568731,27.5820896 45.1642884,27.5820896" id="Fill-19"></path>
                <path d="M48.9448588,23.0473125 C48.9448588,22.1058758 48.9296613,21.9549312 48.484071,21.9112932 L48.2962301,21.8926934 C48.2506377,21.8583553 48.2658351,21.6981108 48.3108197,21.6716418 C48.6883252,21.6888108 48.9448588,21.6981108 49.2615744,21.6981108 C49.5630925,21.6981108 49.8190182,21.6888108 50.1965237,21.6716418 C50.2415083,21.6981108 50.2567057,21.8583553 50.2117212,21.8926934 L50.0226645,21.9112932 C49.5776821,21.9549312 49.5630925,22.1058758 49.5630925,23.0473125 L49.5630925,26.2064189 C49.5630925,27.1471401 49.5776821,27.2709004 50.0226645,27.3331382 L50.2117212,27.3603226 C50.2567057,27.3953761 50.2415083,27.5549052 50.1965237,27.5820896 C49.8190182,27.5642051 49.5630925,27.5549052 49.2615744,27.5549052 C48.9448588,27.5549052 48.6883252,27.5642051 48.3108197,27.5820896 C48.2658351,27.5549052 48.2506377,27.4132605 48.2962301,27.3603226 L48.484071,27.3331382 C48.9296613,27.2709004 48.9448588,27.1471401 48.9448588,26.2064189 L48.9448588,23.0473125" id="Fill-20"></path>
                <path d="M54.5425337,26.2826731 C54.5425337,27.1740536 54.5595752,27.3013937 55.0937902,27.3438404 L55.3879418,27.3698561 C55.4427711,27.4034027 55.4235068,27.5560738 55.3686775,27.5820896 C54.8448356,27.564974 54.5321606,27.5560738 54.1646562,27.5560738 C53.7971519,27.5560738 53.4763265,27.564974 52.8872823,27.5820896 C52.8317121,27.5560738 52.8139296,27.4116182 52.8872823,27.3698561 L53.2184807,27.3438404 C53.7423226,27.3013937 53.7882607,27.1740536 53.7882607,26.2826731 L53.7882607,22.4857482 C53.7882607,22.2221679 53.7882607,22.2146371 53.5118915,22.2146371 L53.0073139,22.2146371 C52.612395,22.2146371 52.1063356,22.231068 51.8766454,22.4261859 C51.6558464,22.6137729 51.5639703,22.7999906 51.463203,23.0129087 C51.3891094,23.0635709 51.2601865,23.0211242 51.2238806,22.9533464 C51.370586,22.5706416 51.5084001,22.0270501 51.5728615,21.6874765 C51.6002762,21.6710456 51.7203078,21.6621455 51.7484634,21.6874765 C51.8032927,21.9599569 52.1063356,21.9510568 52.5294101,21.9510568 L56.2518734,21.9510568 C56.7483006,21.9510568 56.8305445,21.9339412 56.9683587,21.7128076 C57.0142967,21.6963767 57.115805,21.7052768 57.1343284,21.7381387 C57.0328201,22.0866124 56.9683587,22.7746595 56.9965142,23.0293397 C56.9594674,23.0978021 56.8031299,23.0978021 56.7564509,23.0464553 C56.7290363,22.8342218 56.6653158,22.5199794 56.5275016,22.4261859 C56.3163348,22.2817302 55.966613,22.2146371 55.4612945,22.2146371 L54.8085297,22.2146371 C54.5321606,22.2146371 54.5425337,22.2221679 54.5425337,22.5028638 L54.5425337,26.2826731" id="Fill-21"></path>
                <path d="M61.4010716,26.2064189 C61.4010716,27.1557246 61.4589278,27.2980847 61.9757762,27.3331382 L62.3383414,27.3603226 C62.3961976,27.4125451 62.378455,27.5549052 62.3198275,27.5820896 C61.7266089,27.5642051 61.4010716,27.5549052 61.0184495,27.5549052 C60.6157706,27.5549052 60.2724907,27.5642051 59.7648993,27.5820896 C59.708586,27.5549052 59.6877577,27.4125451 59.7456139,27.3603226 L60.0418375,27.3331382 C60.5964852,27.2802003 60.6157706,27.1557246 60.6157706,26.2064189 L60.6157706,25.753585 C60.6157706,25.2656977 60.5872282,25.1498065 60.3102901,24.6533346 L59.1809377,22.6116476 C58.8554004,22.026469 58.7126885,21.9814002 58.4249505,21.9377622 L58.1572694,21.8926934 C58.1001846,21.8304556 58.1086702,21.7074107 58.1757833,21.6716418 C58.4828067,21.6888108 58.826858,21.6981108 59.2858503,21.6981108 C59.7263285,21.6981108 60.0703798,21.6888108 60.3102901,21.6716418 C60.3959172,21.6981108 60.3959172,21.8390401 60.3388324,21.8926934 L60.2138631,21.9112932 C59.8790688,21.9549312 59.8119556,22 59.8119556,22.070107 C59.8119556,22.1595292 60.0626657,22.6653009 60.109722,22.7540077 C60.4638017,23.4107242 60.8178815,24.111794 61.1904752,24.724157 C61.4866987,24.2534387 61.8029791,23.7390824 62.0899456,23.224726 C62.3583982,22.7625923 62.712478,22.1595292 62.712478,22.0529379 C62.712478,22 62.5404523,21.9377622 62.3105705,21.9112932 L62.1377734,21.8926934 C62.0714317,21.8304556 62.0806887,21.7074107 62.1570588,21.6716418 C62.5011101,21.6888108 62.7795911,21.6981108 63.0758147,21.6981108 C63.3728096,21.6981108 63.6397194,21.6888108 63.9660282,21.6716418 C64.0423983,21.7152798 64.0516553,21.8390401 63.986085,21.8926934 L63.716861,21.9377622 C63.219298,22.0171691 62.93156,22.5765942 62.4532824,23.3399018 L61.8508068,24.307092 C61.4303854,24.9816928 61.4010716,25.0610997 61.4010716,25.7450005 L61.4010716,26.2064189" id="Fill-22"></path>
                <path d="M67.9006248,24.0604596 C67.9949173,24.3677349 68.2397738,24.6226176 68.616944,24.6226176 C68.8625608,24.6226176 69.0701565,24.4817241 69.0701565,24.2445415 C69.0701565,24.0250592 68.9013424,23.7786725 68.541662,23.7786725 C68.2032734,23.7786725 67.9477711,23.9988629 67.9006248,24.0604596 M69.8062467,22.2160997 C69.8062467,22.4093857 69.6457973,22.5665634 69.4473267,22.5665634 C69.2785126,22.5665634 69.2214808,22.4617783 69.1834596,22.3031846 C69.155324,22.1891954 69.0321353,22.0490099 68.8435502,22.0490099 C68.6648506,22.0490099 68.457255,22.1283067 68.2314091,22.3293809 C67.843593,22.6727646 67.759186,23.1549178 67.759186,23.4452009 C67.759186,23.6214948 67.7781966,23.7524762 67.8154573,23.823277 C67.938646,23.7092878 68.2314091,23.5152937 68.5888083,23.5152937 C69.2115953,23.5152937 69.4100659,23.9280621 69.4100659,24.2445415 C69.4100659,24.7104106 69.0138851,24.9737894 68.5888083,24.9737894 C68.1173456,24.9737894 67.7873217,24.6927104 67.6458828,24.3939312 C67.5135691,24.5695171 67.4010264,24.8505961 67.4010264,25.2895608 C67.4010264,26.0535011 68.0321781,27.0291356 69.5606298,27.0291356 C70.137031,27.0291356 70.6647651,26.8528417 71.0419352,26.5809668 C71.4852623,26.2644873 71.9187038,25.6322365 71.9187038,24.9560892 C71.9187038,24.3939312 71.7681399,24.0951519 71.7118685,24.0342633 C71.6548368,23.9634625 71.4662517,23.9110699 71.0883211,23.9110699 C70.7309219,23.9110699 70.3910125,24.104356 70.3910125,24.5079204 C70.3910125,24.6750102 70.5142012,24.753599 70.5795976,24.753599 C70.6457545,24.753599 70.6830152,24.7189067 70.7309219,24.6396098 C70.7871933,24.561021 70.8434646,24.473228 70.9856639,24.473228 C71.1552384,24.473228 71.2776666,24.5957133 71.2776666,24.753599 C71.2776666,24.9907816 71.0236851,25.1139749 70.7689431,25.1139749 C70.3438662,25.1139749 70.0891243,24.7982035 70.0891243,24.4817241 C70.0891243,24.2976421 70.1552812,24.0866558 70.3339807,23.9018659 C70.5986082,23.6122907 71.0883211,23.54149 71.3529485,23.54149 C71.5415336,23.54149 71.7301187,23.5506941 72.1270599,23.5506941 C72.579512,23.5506941 73.5315625,23.54149 73.5315625,22.619664 C73.5315625,22.0921983 73.0418496,21.9088243 72.8053579,21.9088243 C72.6646795,21.9088243 72.6167728,22.0306017 72.6167728,22.066002 C72.6167728,22.1106065 72.6365438,22.1460069 72.7118257,22.1983995 C72.7871077,22.250792 72.9095359,22.3293809 72.9095359,22.4879746 C72.9095359,22.7513534 72.7019402,22.8568466 72.5042301,22.8568466 C72.2396026,22.8568466 72.0418924,22.6543564 72.0418924,22.4001817 C72.0418924,22.0752061 72.3057595,21.6978381 72.8623896,21.6978381 C73.381759,21.6978381 73.880597,22.1283067 73.880597,22.803746 C73.880597,23.1995223 73.7307935,23.4452009 73.4950622,23.6561872 C73.0418496,24.0512555 72.2396026,24.0165631 72.1270599,24.0165631 C72.0228818,24.0165631 72.0046317,24.0512555 72.0418924,24.1652447 C72.0700281,24.2445415 72.295874,24.6750102 72.295874,25.1932718 C72.295874,26.3614844 71.1924991,27.5820896 69.523369,27.5820896 C67.5515903,27.5820896 66.9850746,26.3083838 66.9850746,25.4481545 C66.9850746,24.9475931 67.1843056,24.4555278 67.5135691,24.0866558 C67.4664228,23.9457623 67.4291621,23.7616803 67.4291621,23.4890974 C67.4291621,23.0409286 67.5987366,22.5665634 67.9006248,22.2245958 C68.2207632,21.8550158 68.6929863,21.6716418 69.0511459,21.6716418 C69.5332545,21.6716418 69.8062467,21.9350206 69.8062467,22.2160997" id="Fill-23"></path>
                <path d="M80.2059827,25.1489588 C80.4183525,25.5616778 80.6225256,25.9659017 80.8438372,26.3524276 L80.8624662,26.3524276 C81.1120938,25.9397086 81.3430925,25.4830983 81.5740912,25.0349832 L82.4429445,23.357914 C82.8594873,22.5586691 83.1269987,22.0751578 83.1463728,21.6716418 C83.4608291,21.6978349 83.6538248,21.6978349 83.8386238,21.6978349 C84.0703677,21.6978349 84.375137,21.6886319 84.6612773,21.6716418 C84.7171641,21.7070379 84.7171641,21.8564097 84.6717095,21.8903899 L84.4772235,21.9087959 C83.8945106,21.9611822 83.82074,22.1275441 83.8304271,22.742729 C83.8483109,23.6736476 83.8579979,25.2983305 83.9317685,26.5626807 C83.9593393,27.0023007 83.9503974,27.2394549 84.384824,27.2741431 L84.6799062,27.3010442 C84.7350479,27.3534305 84.7268511,27.4851041 84.6612773,27.5205003 C84.2827375,27.5028022 83.9041976,27.4943071 83.5711124,27.4943071 C83.2477142,27.4943071 82.8319165,27.5028022 82.4526315,27.5205003 C82.3878028,27.476609 82.378861,27.3534305 82.4347477,27.3010442 L82.7022592,27.2741431 C83.1545695,27.2302519 83.1545695,27.0900832 83.1545695,26.5279924 L83.1269987,22.8651997 L83.109115,22.8651997 C83.0442863,22.9621851 82.6925721,23.6644446 82.5077731,24.0077872 L81.6851197,25.5446876 C81.269322,26.3170314 80.8527791,27.1424695 80.6866091,27.5466934 C80.6679802,27.5728866 80.6314675,27.5820896 80.5942096,27.5820896 C80.5755807,27.5820896 80.5293809,27.5728866 80.510752,27.5466934 C80.3550141,27.0808802 79.9109005,26.2207539 79.6985307,25.7903369 L78.865445,24.0955696 C78.6724493,23.6913456 78.4772181,23.2347354 78.2745354,22.8305115 L78.2559065,22.8305115 C78.2186486,23.3749041 78.1903326,23.8846086 78.1627618,24.394313 C78.135191,24.9295027 78.0986783,25.7110495 78.0986783,26.4579081 C78.0986783,27.1077813 78.1538199,27.24795 78.5152212,27.2741431 L78.865445,27.3010442 C78.9302737,27.3534305 78.9213318,27.4943071 78.8572483,27.5205003 C78.542792,27.5028022 78.1821359,27.4943071 77.8304217,27.4943071 C77.5345943,27.4943071 77.2022543,27.5028022 76.8877979,27.5205003 C76.8326563,27.476609 76.8140274,27.3442275 76.8684239,27.3010442 L77.0725969,27.2741431 C77.4608238,27.2217568 77.5904811,27.1693705 77.6463679,26.5541856 C77.7015096,25.9743968 77.7477093,25.4915934 77.8028509,24.6222642 C77.8483055,23.8931037 77.8863085,23.146953 77.9041923,22.6634417 C77.9228212,22.1105539 77.8483055,21.9781724 77.2849667,21.9087959 L77.1366804,21.8903899 C77.0912258,21.8380037 77.1001677,21.7070379 77.1746834,21.6716418 C77.4511367,21.6886319 77.6739387,21.6978349 77.9041923,21.6978349 C78.1173072,21.6978349 78.3669349,21.6978349 78.6724493,21.6716418 C78.6344463,22.0135685 78.865445,22.5586691 79.1523305,23.1207598 L80.2059827,25.1489588" id="Fill-24"></path>
                <path d="M86.5943473,23.0287126 C86.5943473,22.1058758 86.5753948,21.973531 86.0418077,21.9120086 L85.8982058,21.8926934 C85.842806,21.8583553 85.8610296,21.6981108 85.9157004,21.6716418 C86.3042276,21.6888108 86.611842,21.6981108 86.9828745,21.6981108 L88.682772,21.6981108 C89.2615535,21.6981108 89.7944116,21.6981108 89.9037532,21.6716418 C89.9576951,21.8225864 90.0123659,22.460703 90.0480841,22.8512991 C90.0123659,22.9049524 89.867306,22.9228368 89.8213825,22.8698989 C89.6865279,22.4528339 89.6056151,22.1416447 89.1347172,22.026469 C88.9444629,21.9814002 88.655801,21.973531 88.2577976,21.973531 L87.6061216,21.973531 C87.3349544,21.973531 87.3349544,21.9907001 87.3349544,22.3283582 L87.3349544,24.1024941 C87.3349544,24.3514454 87.3626543,24.3514454 87.6338215,24.3514454 L88.1579323,24.3514454 C88.5377121,24.3514454 88.8183555,24.333561 88.9269682,24.2985075 C89.0355809,24.2627386 89.09827,24.2098007 89.1441935,23.9873183 L89.216359,23.6239066 C89.2615535,23.5702533 89.4153607,23.5702533 89.4518079,23.6324911 C89.4518079,23.8456736 89.4153607,24.1919162 89.4153607,24.528859 C89.4153607,24.8486327 89.4518079,25.1855754 89.4518079,25.3808734 C89.4153607,25.4431112 89.2615535,25.4431112 89.216359,25.3894579 L89.1347172,25.0439307 C89.09827,24.8836861 89.0355809,24.750626 88.8548027,24.7062726 C88.7279665,24.6705037 88.5107412,24.6619192 88.1579323,24.6619192 L87.6338215,24.6619192 C87.3626543,24.6619192 87.3349544,24.6705037 87.3349544,24.9015706 L87.3349544,26.1527656 C87.3349544,26.6234839 87.3626543,26.9253731 87.5069852,27.0756024 C87.6155979,27.1821936 87.8058523,27.2802003 88.6018592,27.2802003 C89.2980007,27.2802003 89.5596916,27.2444314 89.7594223,27.1471401 C89.9212479,27.0584333 90.1654441,26.7479595 90.400893,26.2858258 C90.4635822,26.2414724 90.5904185,26.2686567 90.6268657,26.3480636 C90.5634475,26.6585374 90.3367459,27.3424381 90.2201149,27.5820896 C89.4058844,27.5642051 88.6018592,27.5549052 87.796376,27.5549052 L86.9828745,27.5549052 C86.5943473,27.5549052 86.2867329,27.5642051 85.752417,27.5820896 C85.6977462,27.5549052 85.6802515,27.4132605 85.7341934,27.3603226 L86.0330604,27.3331382 C86.5484238,27.2887848 86.5943473,27.1557246 86.5943473,26.2243033 L86.5943473,23.0287126" id="Fill-25"></path>
                <path d="M93.0508284,25.9873195 C93.0508284,26.4545318 93.0769658,26.7364212 93.2214093,26.9480158 C93.4084981,27.2206746 93.73384,27.3087207 94.2710325,27.3087207 C95.9259429,27.3087207 96.6687954,26.1903935 96.6687954,24.5523105 C96.6687954,23.5823836 96.2162057,21.9450107 93.9807697,21.9450107 C93.4772808,21.9450107 93.2042137,22.0145955 93.1361189,22.0671391 C93.0673362,22.1211028 93.0508284,22.3405079 93.0508284,22.7374253 L93.0508284,25.9873195 Z M92.3513089,22.8425126 C92.3513089,22.22619 92.3086637,22.0408673 91.9496183,21.9883236 L91.7625295,21.9620518 C91.6944346,21.9187388 91.6848051,21.776729 91.7707834,21.7419366 C92.4964403,21.6979136 93.187018,21.6716418 93.9126749,21.6716418 C94.6293901,21.6716418 95.2346773,21.7241854 95.7897533,21.93578 C96.9418625,22.3667797 97.5223881,23.3714991 97.5223881,24.5338493 C97.5223881,25.6528865 97.0010156,26.6128727 96.028429,27.1589004 C95.4733531,27.4670616 94.7745214,27.5820896 94.1169594,27.5820896 C93.5708252,27.5820896 93.0253788,27.5110847 92.7261743,27.5110847 C92.3678167,27.5110847 92.0610461,27.5203153 91.6593555,27.5380665 C91.6084563,27.5110847 91.5919485,27.370495 91.6428477,27.3179513 L91.839566,27.2909695 C92.3341132,27.2206746 92.3513089,27.1148773 92.3513089,26.1903935 L92.3513089,22.8425126 L92.3513089,22.8425126 Z" id="Fill-26"></path>
                <path d="M100.168079,23.0473125 C100.168079,22.1058758 100.153489,21.9549312 99.7085122,21.9112932 L99.5200655,21.8926934 C99.4744736,21.8583553 99.4896709,21.6981108 99.5352628,21.6716418 C99.9115482,21.6888108 100.168079,21.6981108 100.485399,21.6981108 C100.786913,21.6981108 101.043444,21.6888108 101.420337,21.6716418 C101.465929,21.6981108 101.480518,21.8583553 101.434926,21.8926934 L101.24648,21.9112932 C100.80211,21.9549312 100.786913,22.1058758 100.786913,23.0473125 L100.786913,26.2064189 C100.786913,27.1471401 100.80211,27.2709004 101.24648,27.3331382 L101.434926,27.3603226 C101.480518,27.3953761 101.465929,27.5549052 101.420337,27.5820896 C101.043444,27.5642051 100.786913,27.5549052 100.485399,27.5549052 C100.168079,27.5549052 99.9115482,27.5642051 99.5352628,27.5820896 C99.4896709,27.5549052 99.4744736,27.4132605 99.5200655,27.3603226 L99.7085122,27.3331382 C100.153489,27.2709004 100.168079,27.1471401 100.168079,26.2064189 L100.168079,23.0473125" id="Fill-27"></path>
                <path d="M103.625478,22.3966769 C104.308583,21.9098775 105.17943,21.6716418 106.15131,21.6716418 C106.656477,21.6716418 107.367479,21.764595 107.80705,21.8768274 C107.919393,21.9023035 107.984235,21.9188285 108.068681,21.9098775 C108.077728,22.1068006 108.124475,22.6452407 108.199873,23.1664673 C108.153126,23.2256819 108.012132,23.2339444 107.948044,23.1829923 C107.80705,22.6018625 107.385575,21.9353535 106.029165,21.9353535 C104.598866,21.9353535 103.382696,22.7650471 103.382696,24.5325354 C103.382696,26.3261883 104.626763,27.3170007 106.160358,27.3170007 C107.367479,27.3170007 107.900543,26.5995396 108.115427,26.0955266 C108.181024,26.0528369 108.322018,26.0700505 108.358209,26.1299537 C108.294121,26.5740635 108.049831,27.1379797 107.909591,27.2997872 C107.797248,27.3170007 107.685659,27.3514279 107.582364,27.3851664 C107.376527,27.4540207 106.703223,27.5820896 106.104563,27.5820896 C105.263122,27.5820896 104.457871,27.4285446 103.77552,27.0099108 C103.027572,26.5396364 102.447761,25.7622721 102.447761,24.6606042 C102.447761,23.7131699 102.915229,22.9013785 103.625478,22.3966769" id="Fill-28"></path>
                <path d="M110.019764,23.0473125 C110.019764,22.1058758 110.00396,21.9549312 109.558995,21.9112932 L109.370553,21.8926934 C109.32557,21.8583553 109.340159,21.6981108 109.38575,21.6716418 C109.763241,21.6888108 110.019764,21.6981108 110.336468,21.6981108 C110.637366,21.6981108 110.89389,21.6888108 111.270773,21.6716418 C111.315755,21.6981108 111.33156,21.8583553 111.286577,21.8926934 L111.097528,21.9112932 C110.652563,21.9549312 110.637366,22.1058758 110.637366,23.0473125 L110.637366,26.2064189 C110.637366,27.1471401 110.652563,27.2709004 111.097528,27.3331382 L111.286577,27.3603226 C111.33156,27.3953761 111.315755,27.5549052 111.270773,27.5820896 C110.89389,27.5642051 110.637366,27.5549052 110.336468,27.5549052 C110.019764,27.5549052 109.763241,27.5642051 109.38575,27.5820896 C109.340159,27.5549052 109.32557,27.4132605 109.370553,27.3603226 L109.558995,27.3331382 C110.00396,27.2709004 110.019764,27.1471401 110.019764,26.2064189 L110.019764,23.0473125" id="Fill-29"></path>
                <path d="M118.355879,25.9625581 C118.355879,26.2242935 118.355879,27.2600077 118.383878,27.4866579 C118.36496,27.5385839 118.308206,27.5820896 118.205293,27.5820896 C118.092542,27.4340301 117.820881,27.1294909 117.003628,26.2677991 L114.826556,23.9690187 C114.572299,23.6995646 113.933631,22.9859323 113.736128,22.7943672 L113.717967,22.7943672 C113.680888,22.898921 113.671807,23.0989065 113.671807,23.3599402 L113.671807,25.2580479 C113.671807,25.667141 113.680888,26.7982869 113.840555,27.0600222 C113.896552,27.1554539 114.083461,27.2073799 114.319556,27.2249225 L114.610135,27.2515872 C114.666889,27.3210559 114.656295,27.4256097 114.591217,27.4691153 C114.16897,27.4515727 113.840555,27.4424506 113.493222,27.4424506 C113.098973,27.4424506 112.845473,27.4515727 112.516302,27.4691153 C112.451224,27.4256097 112.442144,27.3035133 112.49814,27.2515872 L112.75164,27.2249225 C112.967304,27.1989595 113.117891,27.1470334 113.164807,27.0509001 C113.294962,26.7379404 113.286639,25.6755614 113.286639,25.2580479 L113.286639,22.7417395 C113.286639,22.4989501 113.277558,22.3158055 113.079298,22.11582 C112.94763,21.9937237 112.723642,21.9326755 112.49814,21.9067124 L112.338473,21.8884681 C112.282476,21.8365421 112.282476,21.706727 112.356635,21.6716418 C112.75164,21.6976048 113.24956,21.6976048 113.418307,21.6976048 C113.568137,21.6976048 113.727804,21.6884827 113.849635,21.6716418 C114.037301,22.11582 115.14589,23.2645085 115.45463,23.5865904 L116.364959,24.5352934 C117.013465,25.2054201 117.473548,25.693104 117.913957,26.1106175 L117.932875,26.1106175 C117.970711,26.0671119 117.970711,25.9281746 117.970711,25.74503 L117.970711,23.8820075 C117.970711,23.4729144 117.960874,22.3417685 117.783045,22.0807349 C117.726292,22.0021441 117.577219,21.9495163 117.201887,21.9067124 L117.04222,21.8884681 C116.975629,21.8365421 116.983953,21.6976048 117.059625,21.6716418 C117.49171,21.6884827 117.811044,21.6976048 118.168214,21.6976048 C118.571543,21.6976048 118.815206,21.6884827 119.13454,21.6716418 C119.210212,21.7144457 119.210212,21.8365421 119.154215,21.8884681 L119.022546,21.9067124 C118.721373,21.9495163 118.533708,22.0196867 118.495872,22.089857 C118.336961,22.4028167 118.355879,23.4820366 118.355879,23.8820075 L118.355879,25.9625581" id="Fill-30"></path>
                <path d="M121.070517,23.0287126 C121.070517,22.1058758 121.05302,21.973531 120.519338,21.9120086 L120.374253,21.8926934 C120.320301,21.8583553 120.338528,21.6981108 120.393209,21.6716418 C120.781804,21.6888108 121.089473,21.6981108 121.459113,21.6981108 L123.16004,21.6981108 C123.738924,21.6981108 124.273335,21.6981108 124.381237,21.6716418 C124.435189,21.8225864 124.489869,22.460703 124.525594,22.8512991 C124.489869,22.9049524 124.344784,22.9228368 124.30031,22.8698989 C124.163974,22.4528339 124.082317,22.1416447 123.612794,22.026469 C123.423236,21.9814002 123.133065,21.973531 122.734991,21.973531 L122.084658,21.973531 C121.812714,21.973531 121.812714,21.9907001 121.812714,22.3283582 L121.812714,24.1024941 C121.812714,24.3514454 121.839689,24.3514454 122.111633,24.3514454 L122.635108,24.3514454 C123.015684,24.3514454 123.296377,24.333561 123.40428,24.2985075 C123.512912,24.2627386 123.57707,24.2098007 123.621543,23.9873183 L123.693722,23.6239066 C123.738924,23.5702533 123.892758,23.5702533 123.928483,23.6324911 C123.928483,23.8456736 123.892758,24.1919162 123.892758,24.528859 C123.892758,24.8486327 123.928483,25.1855754 123.928483,25.3808734 C123.892758,25.4431112 123.738924,25.4431112 123.693722,25.3894579 L123.612794,25.0439307 C123.57707,24.8836861 123.512912,24.750626 123.332101,24.7062726 C123.205243,24.6705037 122.988708,24.6619192 122.635108,24.6619192 L122.111633,24.6619192 C121.839689,24.6619192 121.812714,24.6705037 121.812714,24.9015706 L121.812714,26.1527656 C121.812714,26.6234839 121.839689,26.9253731 121.984775,27.0756024 C122.093407,27.1821936 122.282236,27.2802003 123.078384,27.2802003 C123.774649,27.2802003 124.037844,27.2444314 124.236152,27.1471401 C124.400193,27.0584333 124.643704,26.7479595 124.878465,26.2858258 C124.942623,26.2414724 125.069482,26.2686567 125.104478,26.3480636 C125.041777,26.6585374 124.815765,27.3424381 124.697655,27.5820896 C123.88401,27.5642051 123.078384,27.5549052 122.274217,27.5549052 L121.459113,27.5549052 C121.070517,27.5549052 120.762849,27.5642051 120.229896,27.5820896 C120.175216,27.5549052 120.157718,27.4132605 120.212399,27.3603226 L120.50986,27.3331382 C121.025315,27.2887848 121.070517,27.1557246 121.070517,26.2243033 L121.070517,23.0287126" id="Fill-31"></path>
            </g>
            <line x1="143.5" y1="2.12885265e-14" x2="143.5" y2="40" id="Line-2-Copy" stroke="#FFFFFF"></line>
        </g>
    </g>
</svg>