<svg xmlns="http://www.w3.org/2000/svg" width="38" height="38" viewBox="0 0 38 38">
    <g fill="none" fill-rule="evenodd">
        <circle cx="19" cy="19" r="19" fill="#00A4F8"/>
        <path fill="#FFF" d="M31 14.01c-.772.344-1.602.573-2.477.68.889-.53 1.575-1.378 1.896-2.379-.834.493-1.757.852-2.736 1.042C26.899 12.518 25.78 12 24.54 12c-2.379 0-4.309 1.921-4.309 4.291 0 .335.039.662.112.978-3.58-.179-6.756-1.89-8.879-4.486-.374.634-.583 1.376-.583 2.162 0 1.488.758 2.8 1.916 3.572-.706-.02-1.372-.22-1.953-.536v.05c0 2.082 1.486 3.815 3.454 4.212-.36.098-.74.153-1.132.153-.278 0-.55-.032-.811-.08.547 1.701 2.137 2.945 4.024 2.981-1.477 1.15-3.334 1.839-5.352 1.839-.349 0-.69-.02-1.028-.062C11.91 28.288 14.174 29 16.605 29c7.924 0 12.26-6.54 12.26-12.214 0-.186-.007-.371-.016-.552.845-.602 1.575-1.358 2.151-2.223"/>
    </g>
</svg>
