<svg width="155" height="40" viewBox="0 0 155 40" fill="none" xmlns="http://www.w3.org/2000/svg">
<path d="M51.7772 15.117C51.7772 13.9741 52.7112 12.9351 54.8905 12.9351C56.7585 12.9351 58.9378 13.5066 61.0134 14.2858L62.3106 10.0261C60.0794 8.93514 57.6925 8.36372 54.8905 8.36372C49.7016 8.36372 46.5883 11.2728 46.5883 15.5325C46.5883 23.3767 57.6925 21.5585 57.6925 25.5585C57.6925 27.065 56.7066 28.0001 54.5273 28.0001C52.3998 28.0001 49.7016 27.065 47.5742 26.13L46.1732 30.4936C48.5082 31.7403 51.3621 32.5196 54.4235 32.5196C59.5086 32.5196 63.037 29.6105 63.037 25.4027C63.037 17.1429 51.7772 19.2209 51.7772 15.117ZM89.2408 8.31177C86.4907 8.31177 83.9482 9.55852 82.2877 11.6884C81.1462 9.45463 78.8631 8.31177 76.5281 8.31177C74.0893 8.31177 71.7024 9.45463 70.1977 11.7403V8.8832H65.1645V32.0001H70.4571V18.3377C70.4571 15.4287 71.7024 13.1429 74.7639 13.1429C77.514 13.1429 78.3442 15.1689 78.3442 18.5455V32.0001H83.6368V18.3377C83.6368 15.4806 84.9341 13.1429 87.9436 13.1429C90.7456 13.1429 91.5758 15.2209 91.5758 18.7533V32.0001H96.8685V19.2728C96.8685 17.7144 96.8166 16.3637 96.6609 15.2209C96.142 10.3897 92.9768 8.31177 89.2408 8.31177ZM110.1 8.31177C104.133 8.31177 98.9959 13.091 98.9959 20.6754C98.9959 27.4287 103.147 32.4157 109.581 32.4157C115.652 32.4157 120.685 27.4806 120.685 20.052C120.685 12.6235 115.964 8.31177 110.1 8.31177ZM109.841 27.9481C106.364 27.9481 104.548 24.2079 104.548 20.4676C104.548 15.7403 106.624 12.9351 109.893 12.9351C113.369 12.9351 115.185 16.6235 115.185 20.3637C115.185 25.1429 112.954 27.9481 109.841 27.9481ZM128.054 12.5196V8.8832H123.02V32.0001H128.313V20.4157C128.313 16.1559 130.389 13.6105 134.799 13.4546V8.36372C131.945 8.46761 129.506 10.2338 128.054 12.5196ZM154.88 19.8962C154.88 13.091 151.871 8.41566 145.696 8.41566C139.002 8.41566 134.903 14.5975 134.903 20.7793C134.903 28.9352 139.677 32.4676 145.54 32.4676C148.757 32.4676 151.611 31.4806 154.257 30.2339L152.96 26.078C151.144 26.8572 149.12 27.7403 146.578 27.7403C142.894 27.7403 140.455 26.13 140.247 21.8702H154.776C154.88 21.1949 154.88 20.6235 154.88 19.8962ZM140.351 18.1819C140.663 15.6884 142.479 12.9871 145.488 12.9871C148.446 12.9871 149.743 15.1689 149.743 18.1819H140.351Z" fill="#505060"/>
<path fill-rule="evenodd" clip-rule="evenodd" d="M0.976431 32.1745C0.976431 32.1745 1.2502 31.8484 2.28491 31.9805C2.88248 32.0567 3.80387 32.1434 4.69613 32.2275C7.95858 34.0112 11.9708 34.7925 15.5944 34.8284C20.0012 34.8719 23.3807 34.1957 25.9693 33.0819C27.5481 33.0705 29.0493 33.0819 30.3265 33.185C31.5408 33.2838 31.7001 33.6872 31.7001 33.6872C31.7001 33.6872 32.1767 34.091 32.0213 35.0461C31.9011 35.7785 31.7608 36.8153 31.6398 37.5532C31.5531 38.1239 31.2935 38.6547 30.8958 39.0746C30.8958 39.0746 30.7764 39.3308 29.7801 39.3809C24.534 39.6445 8.73699 39.707 3.0432 39.9922C1.8499 40.0521 1.46254 39.7457 1.46254 39.7457C1.46254 39.7457 1.11014 39.5348 1.05162 38.6891C0.927713 36.9036 0.713784 35.3796 0.580607 33.4562C0.510179 32.4389 0.976431 32.1745 0.976431 32.1745Z" fill="#875140"/>
<path fill-rule="evenodd" clip-rule="evenodd" d="M30.711 19.9108C30.558 19.877 30.4415 19.3943 30.4179 18.8776C29.9114 7.85558 19.9657 2.44551 15.1539 0.464652C13.606 -0.172788 13.0725 0.0309956 13.0725 0.0309956C12.7355 0.108237 12.6918 0.821865 12.753 1.37547C13.0972 4.50098 12.9139 7.68185 11.4379 10.9342C11.1077 11.6615 10.7116 12.3024 10.2078 12.2623C9.72404 12.2908 9.40315 11.3836 8.94034 10.6956C7.70467 8.85867 6.3721 7.76041 5.52008 6.96374C4.7978 6.28834 4.61619 6.59257 4.61619 6.59257C4.61619 6.59257 4.2291 6.64291 4.50869 7.467C4.60515 7.85509 4.65335 8.25351 4.65219 8.6533C4.70514 9.99909 4.41071 11.8017 3.14116 13.8546C2.18509 15.3991 -1.84333 20.4686 0.998938 26.379C3.58147 31.748 10.1863 33.8583 15.7729 33.9165C32.4847 34.091 33.0113 22.2715 32.612 18.1147C32.5363 17.327 32.1113 17.192 31.8527 17.2735C31.4396 17.4072 31.4918 17.9394 31.482 18.246C31.4317 19.9501 30.711 19.9108 30.711 19.9108Z" fill="#F39C67"/>
<path fill-rule="evenodd" clip-rule="evenodd" d="M13.5443 15.6628C13.5707 15.392 13.6644 15.132 13.8167 14.9062C13.8167 14.9062 14.1252 14.8424 14.6772 15.4432C14.9171 15.7046 15.1318 15.9879 15.3187 16.2891C15.4511 16.5037 15.5306 16.7407 15.7212 16.7515C15.8489 16.5379 15.9497 16.3095 16.0214 16.0714C16.4479 14.6305 16.735 13.1523 16.8787 11.657C16.9224 11.2376 16.9052 11.1274 17.156 10.834C17.569 10.8553 17.6204 10.9658 17.9542 11.2821C20.4806 13.6864 23.4029 18.0159 23.638 22.343C23.6644 22.8317 23.6319 23.2208 23.7357 23.3326C23.7357 23.3326 23.88 23.4789 24.2334 22.9148C24.5158 22.464 24.7688 21.9956 24.9909 21.5125C25.1498 21.1638 25.1789 20.9091 25.3616 20.805C25.5861 20.8224 25.6412 21.1158 25.7177 21.6043C26.217 24.7923 23.8974 31.4451 16.1284 31.4451C12.4291 31.4451 8.47799 30.0819 7.14252 26.2736C5.88647 22.6909 8.69563 15.841 9.32207 15.9011C9.96915 15.9628 9.11899 21.7875 11.5395 22.2784C12.8503 22.5177 13.387 16.3529 13.5443 15.6628Z" fill="#FFDCA9"/>
</svg>
