<?xml version="1.0" encoding="UTF-8" standalone="no"?>
<svg width="12px" height="16px" viewBox="0 0 12 16" version="1.1" xmlns="http://www.w3.org/2000/svg" xmlns:xlink="http://www.w3.org/1999/xlink">
    <!-- Generator: sketchtool 39.1 (31720) - http://www.bohemiancoding.com/sketch -->
    <title>6D373C6B-BFA3-424A-8A16-84D08D95D563</title>
    <desc>Created with sketchtool.</desc>
    <defs></defs>
    <g id="Atoms---End-User" stroke="none" stroke-width="1" fill="none" fill-rule="evenodd">
        <g id="Part-2---Icons" transform="translate(-437.000000, -83.000000)" fill="#333333">
            <g id="icon-pdf" transform="translate(435.000000, 83.000000)">
                <path d="M8.957,9.819 C8.217,9.995 7.429,10.243 6.705,10.527 C7.056,9.679 7.384,8.742 7.632,7.874 C8.021,8.582 8.489,9.269 8.957,9.819 L8.957,9.819 Z M7.337,4.992 C7.36,4.936 7.388,4.918 7.422,4.907 C7.437,4.902 7.447,4.899 7.455,4.898 C7.508,4.977 7.568,5.292 7.455,6.035 C7.318,5.603 7.248,5.203 7.337,4.992 L7.337,4.992 Z M10.782,10.144 C11.09,10.144 11.215,10.191 11.257,10.214 C11.249,10.239 11.229,10.286 11.178,10.359 C11.071,10.511 10.964,10.53 10.883,10.53 C10.698,10.53 10.448,10.41 10.166,10.19 C10.399,10.16 10.607,10.144 10.782,10.144 L10.782,10.144 Z M4.579,12.946 C4.416,12.82 4.426,12.735 4.429,12.703 C4.451,12.508 4.753,12.162 5.494,11.741 C4.932,12.791 4.63,12.93 4.579,12.946 L4.579,12.946 Z M7.907,4.524 C7.798,4.383 7.642,4.306 7.467,4.306 C7.394,4.306 7.316,4.32 7.237,4.346 C7.037,4.414 6.886,4.557 6.8,4.76 C6.555,5.34 6.891,6.328 7.237,7.09 C6.942,8.28 6.446,9.705 5.924,10.86 C4.61,11.469 3.912,12.067 3.849,12.638 C3.826,12.846 3.875,13.151 4.236,13.424 C4.334,13.499 4.451,13.538 4.571,13.538 C4.874,13.538 5.181,13.304 5.536,12.799 C5.794,12.432 6.072,11.931 6.362,11.309 C7.29,10.898 8.439,10.527 9.423,10.319 C9.97,10.851 10.461,11.12 10.883,11.12 C11.193,11.12 11.459,10.976 11.652,10.702 C11.853,10.418 11.899,10.163 11.788,9.945 C11.654,9.681 11.325,9.554 10.782,9.554 C10.463,9.554 10.072,9.595 9.617,9.679 C8.983,8.998 8.321,8.003 7.854,7.027 C8.317,5.053 8.009,4.655 7.907,4.524 L7.907,4.524 Z M13.375,15.078 C13.375,15.247 13.237,15.385 13.068,15.385 L2.922,15.385 C2.752,15.385 2.614,15.247 2.614,15.078 L2.614,0.923 C2.614,0.754 2.752,0.616 2.922,0.616 L9.071,0.616 L9.071,4.616 C9.071,4.786 9.209,4.923 9.379,4.923 L13.375,4.923 L13.375,15.078 Z M9.686,1.051 L12.941,4.308 L9.686,4.308 L9.686,1.051 Z M13.987,4.615 C13.987,4.536 13.959,4.457 13.9,4.398 L9.596,0.09 C9.537,0.031 9.459,0 9.379,0 L2.922,0 C2.413,0 2,0.415 2,0.923 L2,15.078 C2,15.587 2.413,16 2.922,16 L13.068,16 C13.576,16 14,15.586 14,15.077 L14,4.615 L13.987,4.615 Z" id="pdf"></path>
            </g>
        </g>
    </g>
</svg>