<?xml version="1.0" encoding="UTF-8" standalone="no"?>
<svg width="28px" height="28px" viewBox="0 0 28 28" version="1.1" xmlns="http://www.w3.org/2000/svg" xmlns:xlink="http://www.w3.org/1999/xlink">
    <!-- Generator: Sketch 47.1 (45422) - http://www.bohemiancoding.com/sketch -->
    <title>x</title>
    <desc>Created with Sketch.</desc>
    <defs>
        <circle id="path-1" cx="14" cy="14" r="12"></circle>
        <filter x="-37.5%" y="-37.5%" width="175.0%" height="175.0%" filterUnits="objectBoundingBox" id="filter-2">
            <feMorphology radius="1" operator="dilate" in="SourceAlpha" result="shadowSpreadOuter1"></feMorphology>
            <feOffset dx="0" dy="0" in="shadowSpreadOuter1" result="shadowOffsetOuter1"></feOffset>
            <feGaussianBlur stdDeviation="1" in="shadowOffsetOuter1" result="shadowBlurOuter1"></feGaussianBlur>
            <feComposite in="shadowBlurOuter1" in2="SourceAlpha" operator="out" result="shadowBlurOuter1"></feComposite>
            <feColorMatrix values="0 0 0 0 1   0 0 0 0 1   0 0 0 0 1  0 0 0 0.5 0" type="matrix" in="shadowBlurOuter1" result="shadowMatrixOuter1"></feColorMatrix>
            <feMorphology radius="0.5" operator="dilate" in="SourceAlpha" result="shadowSpreadOuter2"></feMorphology>
            <feOffset dx="0" dy="0" in="shadowSpreadOuter2" result="shadowOffsetOuter2"></feOffset>
            <feGaussianBlur stdDeviation="1" in="shadowOffsetOuter2" result="shadowBlurOuter2"></feGaussianBlur>
            <feComposite in="shadowBlurOuter2" in2="SourceAlpha" operator="out" result="shadowBlurOuter2"></feComposite>
            <feColorMatrix values="0 0 0 0 1   0 0 0 0 1   0 0 0 0 1  0 0 0 0.5 0" type="matrix" in="shadowBlurOuter2" result="shadowMatrixOuter2"></feColorMatrix>
            <feMerge>
                <feMergeNode in="shadowMatrixOuter1"></feMergeNode>
                <feMergeNode in="shadowMatrixOuter2"></feMergeNode>
            </feMerge>
        </filter>
    </defs>
    <g id="Page-1" stroke="none" stroke-width="1" fill="none" fill-rule="evenodd">
        <g id="x">
            <g id="Oval">
                <use fill="black" fill-opacity="1" filter="url(#filter-2)" xlink:href="#path-1"></use>
                <use fill-opacity="0.5" fill="#000000" fill-rule="evenodd" xlink:href="#path-1"></use>
            </g>
            <path d="M14,15.0332851 L9.42608696,19.6005789 C9.25217304,19.7742411 9.12463809,19.8813312 9.04347826,19.9218524 C8.96231843,19.9623736 8.8637687,19.9826339 8.74782609,19.9826339 C8.53912939,19.9826339 8.36231957,19.9102757 8.2173913,19.7655572 C8.07246304,19.6208386 8,19.4442847 8,19.23589 C8,19.0390728 8.133332,18.8133153 8.4,18.5586107 L12.9565217,13.9913169 L8.3826087,9.42402315 C8.12753496,9.16931855 8,8.94356104 8,8.74674385 C8,8.53834918 8.07246304,8.36179522 8.2173913,8.2170767 C8.36231957,8.07235818 8.53912939,8 8.74782609,8 C8.94492852,8 9.17101322,8.13313904 9.42608696,8.39942113 L14,12.9667149 L18.5391304,8.41678726 C18.8057984,8.16208266 19.0376802,8.03473227 19.2347826,8.03473227 C19.4434793,8.03473227 19.6173906,8.10709045 19.7565217,8.25180897 C19.8956529,8.3965275 19.9652174,8.57308145 19.9652174,8.78147612 C19.9652174,8.97829331 19.8376824,9.20405082 19.5826087,9.45875543 L15.0434783,13.9913169 L19.6173913,18.5586107 C19.872465,18.8248928 20,19.056439 20,19.2532562 C20,19.4616508 19.927537,19.6382048 19.7826087,19.7829233 C19.6376804,19.9276418 19.4608706,20 19.2521739,20 C19.1478256,20 19.0608699,19.9768454 18.9913043,19.9305355 C18.8753617,19.8842255 18.7362327,19.7742411 18.573913,19.6005789 L14,15.0332851 Z" id="×" fill="#FFFFFF"></path>
        </g>
    </g>
</svg>