<svg width="260" height="32" viewBox="0 0 292 37" fill="none" xmlns="http://www.w3.org/2000/svg">
    <path
        d="M11.584 12C12.0747 12 12.4693 12.128 12.768 12.384C13.088 12.64 13.248 12.9387 13.248 13.28C13.248 13.536 13.152 13.76 12.96 13.952C12.256 14.72 10.8053 15.5413 8.608 16.416C6.58133 17.2267 5.216 18.1653 4.512 19.232C5.70667 19.9573 7.27467 20.7467 9.216 21.6C12.3093 22.9867 13.9093 23.7013 14.016 23.744C14.4213 23.936 14.624 24.2453 14.624 24.672C14.6667 25.2053 14.4533 25.664 13.984 26.048C13.536 26.4107 13.0133 26.592 12.416 26.592C12.1813 26.592 11.9573 26.5493 11.744 26.464C11.488 26.208 11.136 25.9093 10.688 25.568C7.872 24.032 4.864 22.5707 1.664 21.184C1.344 21.056 1.024 20.9387 0.704 20.832C0.298667 20.64 0.064 20.3627 0 20C0 19.0827 0.405333 18.2293 1.216 17.44C2.19733 16.6507 3.81867 15.744 6.08 14.72C8.27733 13.7387 9.86667 12.832 10.848 12C10.848 12 11.0933 12 11.584 12Z"
        fill="#858590" />
    <path
        d="M15.2025 17.539C11.8767 17.4303 9.38233 17.376 7.71944 17.376C6.33377 17.376 5.14195 17.5716 4.14421 17.9629C3.20181 18.3542 2.84169 18.8216 3.06332 19.3651C3.11867 19.5608 3.61754 19.7021 4.55993 19.789C8.27365 20.1803 11.9598 20.376 15.6182 20.376C19.2212 20.376 22.7687 20.1803 26.2607 19.789C28.0346 19.5282 29.0599 19.3651 29.3371 19.2999C30.4458 19.0173 31 18.6477 31 18.1912C31 18.0825 30.9722 17.9629 30.9169 17.8325C30.418 17.4195 29.6419 17.3216 28.5888 17.539C26.7596 17.6477 24.7919 17.7021 22.6855 17.7021C21.0226 17.7021 18.5283 17.6477 15.2025 17.539Z"
        fill="#858590" />
    <path
        d="M44.812 22.156C44.812 22.0253 44.8027 20.9333 44.784 18.88C44.7653 17.5733 44.7747 16.4813 44.812 15.604C44.8493 14.4093 44.952 13.2987 45.12 12.272C45.288 11.2267 45.848 10.704 46.8 10.704C47.248 10.704 47.7053 10.8627 48.172 11.18C48.396 11.3853 48.508 11.6 48.508 11.824C48.508 11.88 48.4987 11.936 48.48 11.992C47.92 13.616 47.64 15.5667 47.64 17.844C47.64 18.572 47.6867 19.86 47.78 21.708C47.8547 23.332 47.8827 24.6107 47.864 25.544C47.8453 25.8427 47.5187 25.992 46.884 25.992C46.5667 25.992 46.2867 25.9267 46.044 25.796C45.4467 25.4973 45.0733 24.9747 44.924 24.228C44.8493 23.9107 44.812 23.22 44.812 22.156ZM53.1877 14.484C53.2811 13.8493 53.4211 12.8973 53.6077 11.628C53.6824 10.8813 54.1677 10.508 55.0637 10.508C55.6051 10.508 56.1091 10.6573 56.5757 10.956C56.7997 11.18 56.8464 11.4973 56.7157 11.908C55.9877 13.476 55.6237 15.38 55.6237 17.62C57.3971 17.452 58.2464 17.368 58.1717 17.368C59.1424 17.368 59.6277 17.6387 59.6277 18.18C59.6277 18.292 59.6091 18.4133 59.5717 18.544C59.3851 19.1413 58.7877 19.5053 57.7797 19.636C57.4251 19.692 56.5477 19.72 55.1477 19.72C55.1104 19.9253 55.0917 20.2333 55.0917 20.644C55.0917 21.54 55.2131 23.3973 55.4557 26.216C55.6611 28.848 55.7451 30.4253 55.7077 30.948C55.6704 31.5827 55.3437 31.9 54.7277 31.9C54.1491 31.9 53.7571 31.6013 53.5517 31.004C53.3837 30.5373 53.2064 28.652 53.0197 25.348C52.8517 22.1933 52.6184 20.3453 52.3197 19.804C51.5544 20.3827 50.7984 20.672 50.0517 20.672C49.7157 20.672 49.4171 20.5787 49.1557 20.392C48.8384 20.1867 48.6797 19.9253 48.6797 19.608C48.6797 19.216 48.9224 18.8613 49.4077 18.544C49.6504 18.432 50.2384 18.264 51.1717 18.04C51.8997 17.8907 52.3851 17.6667 52.6277 17.368C52.8704 17.0693 53.0197 16.6213 53.0757 16.024C53.1131 15.5013 53.1504 14.988 53.1877 14.484ZM61.7126 11.04C62.366 9.73333 63.066 9.08 63.8126 9.08C63.9806 9.08 64.1673 9.192 64.3726 9.416C64.5966 9.64 64.6806 9.836 64.6246 10.004C63.9713 11.7587 63.038 13.1867 61.8246 14.288C61.414 14.68 61.0406 14.876 60.7046 14.876C60.518 14.876 60.3966 14.8013 60.3406 14.652C60.2846 14.484 60.2566 14.3253 60.2566 14.176C60.2566 13.728 60.434 13.196 60.7886 12.58C61.106 12.076 61.414 11.5627 61.7126 11.04ZM70.4972 14.484C71.2065 14.764 71.9159 15.0533 72.6252 15.352C73.3905 15.7253 73.9132 16.192 74.1932 16.752C74.2492 16.8267 74.2772 16.9293 74.2772 17.06C74.2772 17.5827 74.0999 17.956 73.7452 18.18C73.5772 18.2733 73.3905 18.32 73.1852 18.32C72.8679 18.32 72.2705 18.0587 71.3932 17.536C70.5159 17.0133 69.8252 16.752 69.3212 16.752C68.9479 16.752 68.5839 16.8547 68.2292 17.06C68.0612 17.172 67.9772 17.3307 67.9772 17.536C67.9772 17.7973 68.1265 18.096 68.4252 18.432C68.7425 18.768 69.0225 18.9827 69.2652 19.076C71.2065 19.7667 72.6812 20.5787 73.6892 21.512C74.0252 21.8293 74.1932 22.268 74.1932 22.828C74.1932 23.4813 73.9879 24.144 73.5772 24.816C73.1852 25.488 72.5319 26.0573 71.6172 26.524C70.7212 26.972 69.7972 27.196 68.8452 27.196C67.1652 27.196 65.9892 26.496 65.3172 25.096C65.2612 24.984 65.2332 24.8533 65.2332 24.704C65.2332 24.3867 65.3825 24.0973 65.6812 23.836C65.9799 23.556 66.2972 23.4067 66.6332 23.388C66.8945 23.3507 67.1279 23.5187 67.3332 23.892C67.5759 24.3213 67.7719 24.5733 67.9212 24.648C68.2572 24.816 68.6399 24.9 69.0692 24.9C69.7225 24.9 70.2919 24.732 70.7772 24.396C71.2812 24.0413 71.5332 23.584 71.5332 23.024C71.5332 22.5947 71.1039 22.184 70.2452 21.792C69.2932 21.3813 68.3505 20.98 67.4172 20.588C66.4092 20.0653 65.7092 19.4027 65.3172 18.6C65.2052 18.3573 65.1492 18.1147 65.1492 17.872C65.1492 17.032 65.6812 16.22 66.7452 15.436C67.7532 14.6893 68.7425 14.316 69.7132 14.316C70.0119 14.316 70.2732 14.372 70.4972 14.484ZM86.6615 27.588C86.5122 27.4947 86.3535 27.2893 86.1855 26.972C86.0362 26.7107 85.8962 26.58 85.7655 26.58C84.7762 26.412 83.7775 26.244 82.7695 26.076C81.6682 25.796 80.8842 25.2547 80.4175 24.452C80.1188 24.06 79.9695 23.5373 79.9695 22.884C79.9695 21.932 80.2028 21.148 80.6695 20.532C81.7895 19.02 83.4322 18.264 85.5975 18.264C86.5308 18.264 86.9788 18.292 86.9415 18.348C87.0908 18.124 87.1655 17.8067 87.1655 17.396C87.1655 16.9107 87.0255 16.64 86.7455 16.584C86.4655 16.5093 86.1855 16.472 85.9055 16.472C85.4202 16.472 84.8788 16.5933 84.2815 16.836C83.7028 17.06 83.1335 17.2747 82.5735 17.48C82.4802 17.5173 82.3962 17.536 82.3215 17.536C82.0228 17.536 81.7802 17.3213 81.5935 16.892C81.4442 16.556 81.3695 16.192 81.3695 15.8C81.3695 15.5573 81.3975 15.408 81.4535 15.352C82.6855 14.512 84.0762 14.092 85.6255 14.092C87.2495 14.092 88.3415 14.6707 88.9015 15.828C89.2002 16.4627 89.3495 17.1533 89.3495 17.9C89.3495 18.516 89.2282 19.384 88.9855 20.504C88.7055 21.736 88.5375 22.632 88.4815 23.192C88.3882 24.592 88.2948 25.544 88.2015 26.048C87.9775 27.1867 87.6228 27.756 87.1375 27.756C86.9882 27.756 86.8295 27.7 86.6615 27.588ZM86.1575 24.2C86.2135 23.9387 86.3348 23.472 86.5215 22.8C86.6895 22.2773 86.7735 21.848 86.7735 21.512C86.7735 21.12 86.6895 20.728 86.5215 20.336C85.5695 20.5413 84.6268 20.7373 83.6935 20.924C82.5922 21.2413 82.0322 21.8947 82.0135 22.884C81.9948 23.3133 82.4055 23.6773 83.2455 23.976C83.9735 24.256 84.7015 24.396 85.4295 24.396C85.8588 24.396 86.1015 24.3307 86.1575 24.2ZM92.4719 14.652C92.9386 15.2307 93.1253 16.1733 93.0319 17.48C92.9199 19.104 92.9199 20.14 93.0319 20.588C93.1439 21.148 93.2559 21.6987 93.3679 22.24C93.5173 22.8933 93.7319 23.4067 94.0119 23.78C94.1239 23.9107 94.2359 23.976 94.3479 23.976C94.5346 23.976 94.7306 23.8173 94.9359 23.5C95.1599 23.1827 95.4866 22.5387 95.9159 21.568C96.2706 20.784 96.6439 20.196 97.0359 19.804C97.4279 19.412 97.7826 19.216 98.0999 19.216C98.3986 19.216 98.7253 19.384 99.0799 19.72C99.4533 20.056 99.9106 20.7933 100.452 21.932C100.937 22.94 101.441 23.612 101.964 23.948C102.001 23.9667 102.039 23.976 102.076 23.976C102.263 23.976 102.487 23.752 102.748 23.304C103.252 22.4453 103.504 21.344 103.504 20C103.504 19.7947 103.504 19.496 103.504 19.104C103.485 18.6933 103.476 18.3947 103.476 18.208C103.476 17.48 103.551 16.8733 103.7 16.388C103.831 15.9773 104.176 15.772 104.736 15.772C105.632 15.772 106.136 16.22 106.248 17.116C106.341 18.068 106.388 18.908 106.388 19.636C106.388 22.5667 105.492 24.6387 103.7 25.852C103.047 26.2813 102.365 26.496 101.656 26.496C101.171 26.496 100.685 26.384 100.2 26.16C99.7893 25.9733 99.3413 25.5067 98.8559 24.76C98.3893 24.0133 98.0999 23.6307 97.9879 23.612C97.8573 23.5933 97.5493 23.9853 97.0639 24.788C96.4853 25.684 95.9999 26.244 95.6079 26.468C94.9919 26.8227 94.3293 27 93.6199 27C92.8546 27 92.2946 26.776 91.9399 26.328C90.5399 24.4987 89.8399 22.044 89.8399 18.964C89.8399 18.012 89.9053 16.808 90.0359 15.352C90.1106 14.568 90.5679 14.176 91.4079 14.176C91.8559 14.176 92.2106 14.3347 92.4719 14.652ZM107.014 19.104C106.996 17.8347 107.369 16.78 108.134 15.94C108.9 15.0813 109.88 14.652 111.074 14.652C112.344 14.652 113.464 15.1373 114.434 16.108C115.424 17.06 115.909 18.18 115.89 19.468C115.722 19.9907 115.022 20.616 113.79 21.344C112.26 22.2587 111.41 22.8 111.242 22.968C110.925 23.1173 110.766 23.276 110.766 23.444C110.766 23.7427 110.972 24.0133 111.382 24.256C111.793 24.48 112.157 24.592 112.474 24.592C113.09 24.592 113.977 24.2933 115.134 23.696C115.489 23.9573 115.666 24.312 115.666 24.76C115.666 25.1147 115.554 25.4413 115.33 25.74C115.106 26.0387 114.817 26.216 114.462 26.272C113.268 26.4587 112.512 26.552 112.194 26.552C111.56 26.552 110.99 26.44 110.486 26.216C108.265 25.2267 107.108 22.856 107.014 19.104ZM110.066 20.532C111.728 20.4573 112.736 19.8693 113.09 18.768C113.165 18.6187 113.202 18.4693 113.202 18.32C113.202 17.928 112.997 17.6107 112.586 17.368C112.176 17.1253 111.718 17.004 111.214 17.004C110.841 17.004 110.524 17.0787 110.262 17.228C109.721 17.508 109.45 18.096 109.45 18.992C109.45 19.9813 109.656 20.4947 110.066 20.532ZM121.767 14.484C122.476 14.764 123.185 15.0533 123.895 15.352C124.66 15.7253 125.183 16.192 125.463 16.752C125.519 16.8267 125.547 16.9293 125.547 17.06C125.547 17.5827 125.369 17.956 125.015 18.18C124.847 18.2733 124.66 18.32 124.455 18.32C124.137 18.32 123.54 18.0587 122.663 17.536C121.785 17.0133 121.095 16.752 120.591 16.752C120.217 16.752 119.853 16.8547 119.499 17.06C119.331 17.172 119.247 17.3307 119.247 17.536C119.247 17.7973 119.396 18.096 119.695 18.432C120.012 18.768 120.292 18.9827 120.535 19.076C122.476 19.7667 123.951 20.5787 124.959 21.512C125.295 21.8293 125.463 22.268 125.463 22.828C125.463 23.4813 125.257 24.144 124.847 24.816C124.455 25.488 123.801 26.0573 122.887 26.524C121.991 26.972 121.067 27.196 120.115 27.196C118.435 27.196 117.259 26.496 116.587 25.096C116.531 24.984 116.503 24.8533 116.503 24.704C116.503 24.3867 116.652 24.0973 116.951 23.836C117.249 23.556 117.567 23.4067 117.903 23.388C118.164 23.3507 118.397 23.5187 118.603 23.892C118.845 24.3213 119.041 24.5733 119.191 24.648C119.527 24.816 119.909 24.9 120.339 24.9C120.992 24.9 121.561 24.732 122.047 24.396C122.551 24.0413 122.803 23.584 122.803 23.024C122.803 22.5947 122.373 22.184 121.515 21.792C120.563 21.3813 119.62 20.98 118.687 20.588C117.679 20.0653 116.979 19.4027 116.587 18.6C116.475 18.3573 116.419 18.1147 116.419 17.872C116.419 17.032 116.951 16.22 118.015 15.436C119.023 14.6893 120.012 14.316 120.983 14.316C121.281 14.316 121.543 14.372 121.767 14.484ZM128.507 23.332C126.976 22.4547 126.211 21.064 126.211 19.16C126.211 18.6747 126.276 18.1987 126.407 17.732C126.575 17.1347 126.883 16.5093 127.331 15.856C127.854 15.128 128.143 14.6987 128.199 14.568C128.479 13.9333 128.974 13.616 129.683 13.616C130.523 13.616 131.251 13.9613 131.867 14.652C132.483 15.3427 132.95 16.2667 133.267 17.424C133.379 17.8533 133.435 18.2733 133.435 18.684C133.435 20.14 132.735 21.6053 131.335 23.08C130.999 23.4347 130.476 23.612 129.767 23.612C129.263 23.612 128.843 23.5187 128.507 23.332ZM129.403 20.56C129.552 20.5973 129.692 20.616 129.823 20.616C130.663 20.616 131.083 20.1027 131.083 19.076C131.083 18.1987 130.756 17.396 130.103 16.668C130.047 16.6307 129.982 16.612 129.907 16.612C129.608 16.612 129.235 16.9107 128.787 17.508C128.358 18.0867 128.143 18.656 128.143 19.216C128.143 19.9253 128.563 20.3733 129.403 20.56ZM133.917 17.956C133.917 16.164 134.533 15.268 135.765 15.268C135.989 15.268 136.232 15.3053 136.493 15.38C137.016 15.5293 137.277 15.884 137.277 16.444C137.277 16.6307 137.24 16.9293 137.165 17.34C137.109 17.7507 137.081 18.0493 137.081 18.236C137.081 18.6093 137.156 18.908 137.305 19.132C137.679 18.796 138.08 18.2173 138.509 17.396C139.013 16.4627 139.387 15.856 139.629 15.576C140.077 15.016 140.6 14.736 141.197 14.736C141.496 14.736 141.823 14.8107 142.177 14.96L142.737 15.492C142.812 15.7907 142.887 16.3413 142.961 17.144C143.036 17.816 143.148 18.3387 143.297 18.712C143.932 18.0027 144.557 17.2933 145.173 16.584C145.995 15.8187 146.779 15.436 147.525 15.436C147.88 15.436 148.235 15.5013 148.589 15.632C148.869 15.8187 149.037 16.136 149.093 16.584C149.112 16.9573 149.131 17.34 149.149 17.732C149.355 19.244 149.457 20.5973 149.457 21.792C149.457 23.9387 149.121 25.88 148.449 27.616C148.281 28.1947 147.805 28.484 147.021 28.484C146.592 28.484 146.181 28.372 145.789 28.148C145.715 28.148 145.659 28.0453 145.621 27.84C145.584 27.5973 145.593 27.3827 145.649 27.196C146.209 25.684 146.489 24.004 146.489 22.156C146.489 21.1107 146.396 20.0093 146.209 18.852C146.209 18.7213 146.172 18.656 146.097 18.656C145.873 18.656 145.677 18.8147 145.509 19.132C144.557 20.6813 143.68 22.576 142.877 24.816C142.747 25.096 142.485 25.348 142.093 25.572C141.72 25.796 141.347 25.908 140.973 25.908C140.525 25.908 140.199 25.7307 139.993 25.376C139.788 25.0027 139.685 24.564 139.685 24.06C139.685 23.724 139.741 23.192 139.853 22.464C139.965 21.736 140.021 21.1853 140.021 20.812C140.021 20.3453 139.956 19.9253 139.825 19.552C139.527 20.0747 139.051 21.064 138.397 22.52C137.856 23.752 137.361 24.704 136.913 25.376C136.615 25.7867 136.167 25.992 135.569 25.992C134.953 25.992 134.552 25.7773 134.365 25.348C134.197 24.9 134.085 24.3587 134.029 23.724C133.992 23.2573 133.983 22.66 134.001 21.932C134.039 20.8307 134.057 20.2147 134.057 20.084C134.057 19.8413 134.029 19.4867 133.973 19.02C133.936 18.5347 133.917 18.18 133.917 17.956ZM151.038 19.104C151.019 17.8347 151.393 16.78 152.158 15.94C152.923 15.0813 153.903 14.652 155.098 14.652C156.367 14.652 157.487 15.1373 158.458 16.108C159.447 17.06 159.933 18.18 159.914 19.468C159.746 19.9907 159.046 20.616 157.814 21.344C156.283 22.2587 155.434 22.8 155.266 22.968C154.949 23.1173 154.79 23.276 154.79 23.444C154.79 23.7427 154.995 24.0133 155.406 24.256C155.817 24.48 156.181 24.592 156.498 24.592C157.114 24.592 158.001 24.2933 159.158 23.696C159.513 23.9573 159.69 24.312 159.69 24.76C159.69 25.1147 159.578 25.4413 159.354 25.74C159.13 26.0387 158.841 26.216 158.486 26.272C157.291 26.4587 156.535 26.552 156.218 26.552C155.583 26.552 155.014 26.44 154.51 26.216C152.289 25.2267 151.131 22.856 151.038 19.104ZM154.09 20.532C155.751 20.4573 156.759 19.8693 157.114 18.768C157.189 18.6187 157.226 18.4693 157.226 18.32C157.226 17.928 157.021 17.6107 156.61 17.368C156.199 17.1253 155.742 17.004 155.238 17.004C154.865 17.004 154.547 17.0787 154.286 17.228C153.745 17.508 153.474 18.096 153.474 18.992C153.474 19.9813 153.679 20.4947 154.09 20.532ZM172.302 27.588C172.153 27.4947 171.994 27.2893 171.826 26.972C171.677 26.7107 171.537 26.58 171.406 26.58C170.417 26.412 169.418 26.244 168.41 26.076C167.309 25.796 166.525 25.2547 166.058 24.452C165.759 24.06 165.61 23.5373 165.61 22.884C165.61 21.932 165.843 21.148 166.31 20.532C167.43 19.02 169.073 18.264 171.238 18.264C172.171 18.264 172.619 18.292 172.582 18.348C172.731 18.124 172.806 17.8067 172.806 17.396C172.806 16.9107 172.666 16.64 172.386 16.584C172.106 16.5093 171.826 16.472 171.546 16.472C171.061 16.472 170.519 16.5933 169.922 16.836C169.343 17.06 168.774 17.2747 168.214 17.48C168.121 17.5173 168.037 17.536 167.962 17.536C167.663 17.536 167.421 17.3213 167.234 16.892C167.085 16.556 167.01 16.192 167.01 15.8C167.01 15.5573 167.038 15.408 167.094 15.352C168.326 14.512 169.717 14.092 171.266 14.092C172.89 14.092 173.982 14.6707 174.542 15.828C174.841 16.4627 174.99 17.1533 174.99 17.9C174.99 18.516 174.869 19.384 174.626 20.504C174.346 21.736 174.178 22.632 174.122 23.192C174.029 24.592 173.935 25.544 173.842 26.048C173.618 27.1867 173.263 27.756 172.778 27.756C172.629 27.756 172.47 27.7 172.302 27.588ZM171.798 24.2C171.854 23.9387 171.975 23.472 172.162 22.8C172.33 22.2773 172.414 21.848 172.414 21.512C172.414 21.12 172.33 20.728 172.162 20.336C171.21 20.5413 170.267 20.7373 169.334 20.924C168.233 21.2413 167.673 21.8947 167.654 22.884C167.635 23.3133 168.046 23.6773 168.886 23.976C169.614 24.256 170.342 24.396 171.07 24.396C171.499 24.396 171.742 24.3307 171.798 24.2ZM176.209 20.924C176.209 20.6253 176.181 20.1493 176.125 19.496C176.087 18.8427 176.069 18.3573 176.069 18.04C176.069 17.3307 176.153 16.752 176.321 16.304C176.489 15.912 176.843 15.716 177.385 15.716C178.001 15.716 178.383 15.9587 178.533 16.444C178.57 16.556 178.589 16.6867 178.589 16.836C178.589 17.0227 178.533 17.312 178.421 17.704C178.327 18.0773 178.281 18.3667 178.281 18.572C178.449 18.7213 178.533 18.8333 178.533 18.908C179.167 17.8627 179.587 17.228 179.793 17.004C180.315 16.388 180.903 16.08 181.557 16.08C181.799 16.08 182.051 16.1173 182.313 16.192C182.966 17.2747 183.395 18.628 183.601 20.252C183.657 20.7187 183.741 22.1653 183.853 24.592C184.058 25.4133 183.937 25.8893 183.489 26.02C182.985 26.1693 182.593 26.244 182.313 26.244C181.883 26.244 181.641 26.0853 181.585 25.768C181.491 25.0587 181.407 23.9013 181.333 22.296C181.277 20.84 181.165 19.7107 180.997 18.908C180.474 19.4867 179.989 20.3733 179.541 21.568C178.962 23.0613 178.551 24.0227 178.309 24.452C178.066 24.8627 177.702 25.068 177.217 25.068C176.713 25.068 176.386 24.7787 176.237 24.2C176.143 23.7893 176.106 23.248 176.125 22.576C176.181 21.3627 176.209 20.812 176.209 20.924ZM185.458 20.728C185.458 19.7013 185.86 18.8147 186.662 18.068C187.166 17.6013 188.053 17.06 189.322 16.444C190.61 15.8093 191.478 15.3147 191.926 14.96C192.169 14.7547 192.337 14.3067 192.43 13.616C192.524 12.7573 192.626 12.216 192.738 11.992C193.13 11.32 193.625 10.984 194.222 10.984C194.353 10.984 194.484 11.0027 194.614 11.04C195.268 11.32 195.538 11.684 195.426 12.132C194.586 14.428 194.166 16.9947 194.166 19.832C194.166 21.7547 194.362 23.8547 194.754 26.132C194.754 26.2627 194.624 26.412 194.362 26.58C194.101 26.7293 193.868 26.804 193.662 26.804C193.214 26.8413 192.832 26.5707 192.514 25.992C192.197 25.3947 191.954 25.0773 191.786 25.04C191.618 25.04 191.366 25.0587 191.03 25.096C190.694 25.1147 190.452 25.124 190.302 25.124C189.612 25.124 189.033 24.9653 188.566 24.648C187.502 23.9387 186.812 23.4253 186.494 23.108C185.804 22.4173 185.458 21.624 185.458 20.728ZM188.286 20.336C188.38 20.9147 188.678 21.4373 189.182 21.904C189.686 22.3707 190.237 22.604 190.834 22.604C191.058 22.604 191.282 22.5667 191.506 22.492C191.469 22.1933 191.45 21.876 191.45 21.54C191.45 21.1293 191.506 20.5133 191.618 19.692C191.73 18.852 191.786 18.2173 191.786 17.788C190.89 17.788 190.088 17.9933 189.378 18.404C188.52 18.8893 188.156 19.5333 188.286 20.336ZM203.762 11.432C204.938 10.312 206.282 9.752 207.794 9.752C209.306 9.752 210.258 10.452 210.65 11.852C210.687 12.1133 210.612 12.3467 210.426 12.552C210.239 12.7387 210.015 12.8133 209.754 12.776C209.567 12.7573 209.156 12.6733 208.522 12.524C208.018 12.3933 207.607 12.328 207.29 12.328C206.972 12.328 206.664 12.384 206.366 12.496C204.723 13.0747 203.902 14.316 203.902 16.22C203.902 17.3773 204.191 18.572 204.77 19.804C204.956 19.7667 205.666 19.4773 206.898 18.936C207.943 18.4693 208.708 18.236 209.194 18.236C209.343 18.236 209.474 18.2547 209.586 18.292C209.996 18.348 210.202 18.6093 210.202 19.076C210.202 19.2253 210.174 19.3653 210.118 19.496C209.968 19.9067 209.222 20.3547 207.878 20.84C206.552 21.3067 205.862 21.68 205.806 21.96C205.731 22.408 205.955 22.9587 206.478 23.612C207.131 24.4333 207.504 24.9933 207.598 25.292C207.635 25.3667 207.654 25.432 207.654 25.488C207.654 25.712 207.495 25.8987 207.178 26.048C206.879 26.1973 206.562 26.272 206.226 26.272C206.002 26.272 205.824 26.244 205.694 26.188C205.227 25.8893 204.76 25.32 204.294 24.48C203.827 23.6213 203.388 23.0707 202.978 22.828C202.642 22.8653 202.138 22.8467 201.466 22.772C201.279 22.7907 201.139 22.688 201.046 22.464C200.952 22.24 200.924 22.016 200.962 21.792C201.036 21.68 201.288 21.4933 201.718 21.232C202.054 21.0453 202.212 20.8027 202.194 20.504C202.175 20.0933 202.054 19.3653 201.83 18.32C201.643 17.368 201.55 16.6213 201.55 16.08C201.55 14.3813 202.287 12.832 203.762 11.432ZM211.92 18.32C211.883 18.0213 211.733 17.5267 211.472 16.836C211.229 16.2013 211.108 15.716 211.108 15.38C211.108 14.932 211.276 14.5587 211.612 14.26C211.948 13.9427 212.303 13.784 212.676 13.784C213.161 13.784 213.581 14.0173 213.936 14.484C214.291 14.932 214.468 15.464 214.468 16.08C214.468 16.2107 214.459 16.3413 214.44 16.472C214.925 16.3973 215.513 16.0053 216.204 15.296C216.839 14.624 217.417 14.288 217.94 14.288C218.127 14.288 218.323 14.316 218.528 14.372C219.312 14.6893 219.704 14.9973 219.704 15.296C219.704 15.4453 219.639 15.604 219.508 15.772C219.153 16.276 218.5 16.92 217.548 17.704C216.615 18.4693 215.952 19.1413 215.56 19.72C215.429 19.9253 215.345 20.2613 215.308 20.728C215.289 21.1947 215.224 21.5213 215.112 21.708C215.019 21.876 214.972 22.0813 214.972 22.324C214.972 22.716 215.121 23.108 215.42 23.5C215.663 23.7987 215.784 24.1813 215.784 24.648C215.784 25.3387 215.569 25.8893 215.14 26.3C214.86 26.748 214.44 26.972 213.88 26.972C213.413 26.972 213.04 26.7947 212.76 26.44C212.443 26.2347 212.303 25.8147 212.34 25.18C212.415 23.5187 212.275 21.232 211.92 18.32ZM220.327 19.104C220.308 17.8347 220.682 16.78 221.447 15.94C222.212 15.0813 223.192 14.652 224.387 14.652C225.656 14.652 226.776 15.1373 227.747 16.108C228.736 17.06 229.222 18.18 229.203 19.468C229.035 19.9907 228.335 20.616 227.103 21.344C225.572 22.2587 224.723 22.8 224.555 22.968C224.238 23.1173 224.079 23.276 224.079 23.444C224.079 23.7427 224.284 24.0133 224.695 24.256C225.106 24.48 225.47 24.592 225.787 24.592C226.403 24.592 227.29 24.2933 228.447 23.696C228.802 23.9573 228.979 24.312 228.979 24.76C228.979 25.1147 228.867 25.4413 228.643 25.74C228.419 26.0387 228.13 26.216 227.775 26.272C226.58 26.4587 225.824 26.552 225.507 26.552C224.872 26.552 224.303 26.44 223.799 26.216C221.578 25.2267 220.42 22.856 220.327 19.104ZM223.379 20.532C225.04 20.4573 226.048 19.8693 226.403 18.768C226.478 18.6187 226.515 18.4693 226.515 18.32C226.515 17.928 226.31 17.6107 225.899 17.368C225.488 17.1253 225.031 17.004 224.527 17.004C224.154 17.004 223.836 17.0787 223.575 17.228C223.034 17.508 222.763 18.096 222.763 18.992C222.763 19.9813 222.968 20.4947 223.379 20.532ZM229.815 19.104C229.797 17.8347 230.17 16.78 230.935 15.94C231.701 15.0813 232.681 14.652 233.875 14.652C235.145 14.652 236.265 15.1373 237.235 16.108C238.225 17.06 238.71 18.18 238.691 19.468C238.523 19.9907 237.823 20.616 236.591 21.344C235.061 22.2587 234.211 22.8 234.043 22.968C233.726 23.1173 233.567 23.276 233.567 23.444C233.567 23.7427 233.773 24.0133 234.183 24.256C234.594 24.48 234.958 24.592 235.275 24.592C235.891 24.592 236.778 24.2933 237.935 23.696C238.29 23.9573 238.467 24.312 238.467 24.76C238.467 25.1147 238.355 25.4413 238.131 25.74C237.907 26.0387 237.618 26.216 237.263 26.272C236.069 26.4587 235.313 26.552 234.995 26.552C234.361 26.552 233.791 26.44 233.287 26.216C231.066 25.2267 229.909 22.856 229.815 19.104ZM232.867 20.532C234.529 20.4573 235.537 19.8693 235.891 18.768C235.966 18.6187 236.003 18.4693 236.003 18.32C236.003 17.928 235.798 17.6107 235.387 17.368C234.977 17.1253 234.519 17.004 234.015 17.004C233.642 17.004 233.325 17.0787 233.063 17.228C232.522 17.508 232.251 18.096 232.251 18.992C232.251 19.9813 232.457 20.4947 232.867 20.532ZM241.572 23.64C241.702 23.7333 241.889 23.78 242.132 23.78C242.094 24.0227 242.113 24.368 242.188 24.816C242.281 25.264 242.328 25.5627 242.328 25.712C242.328 26.1787 242.122 26.524 241.712 26.748C241.413 26.9347 241.133 27.028 240.872 27.028C240.05 27.028 239.481 26.272 239.164 24.76C239.164 24.368 239.313 24.0413 239.611 23.78C239.91 23.5 240.265 23.36 240.676 23.36C241.012 23.36 241.31 23.4533 241.572 23.64ZM241.18 22.352C240.676 22.1653 240.424 21.792 240.424 21.232C240.424 21.0453 240.461 20.7747 240.535 20.42C240.629 19.9907 240.676 19.72 240.676 19.608C241.198 15.576 241.88 12.328 242.72 9.864C242.906 9.34133 243.308 9.08 243.924 9.08C244.26 9.08 244.549 9.17333 244.792 9.36C245.053 9.528 245.165 9.74267 245.128 10.004C245.016 11.4227 244.633 13.4293 243.98 16.024C243.252 18.8613 242.804 20.896 242.636 22.128C242.636 22.4453 242.477 22.604 242.16 22.604C241.936 22.604 241.609 22.52 241.18 22.352Z"
        fill="#858590" />
</svg>