<svg width="28" height="28" viewBox="0 0 28 28" fill="none" xmlns="http://www.w3.org/2000/svg">
<path d="M14 0C6.28052 0 0 6.28052 0 14C0 21.7195 6.28052 28 14 28C21.7195 28 28 21.7195 28 14C28 6.28052 21.7195 0 14 0ZM14 26.25C7.24524 26.25 1.75 20.7548 1.75 14C1.75 7.24524 7.24524 1.75 14 1.75C20.7548 1.75 26.25 7.24524 26.25 14C26.25 20.7548 20.7548 26.25 14 26.25Z" fill="white"/>
<path d="M13.125 19.25H14.875V21H13.125V19.25Z" fill="white"/>
<path d="M13.125 7H14.8749V17.5H13.125V7Z" fill="white"/>
</svg>
