<svg width="29" height="28" viewBox="0 0 29 28" fill="none" xmlns="http://www.w3.org/2000/svg">
<path d="M14.04 0C6.32056 0 0.0400391 6.28052 0.0400391 14C0.0400391 21.7195 6.32056 28 14.04 28C21.7595 28 28.04 21.7195 28.04 14C28.04 6.28052 21.7595 0 14.04 0ZM14.04 26.25C7.28528 26.25 1.79004 20.7548 1.79004 14C1.79004 7.24525 7.28528 1.75 14.04 1.75C20.7948 1.75 26.29 7.24525 26.29 14C26.29 20.7548 20.7948 26.25 14.04 26.25Z" fill="white"/>
<path d="M12.29 17.1377L8.53369 13.3814L7.29639 14.6187L12.29 19.6123L20.7837 11.1187L19.5464 9.88135L12.29 17.1377Z" fill="white"/>
</svg>
