<svg xmlns="http://www.w3.org/2000/svg" width="38" height="38" viewBox="0 0 38 38">
    <g fill="none" fill-rule="evenodd">
        <path fill="#1877F2" d="M38 18.899C38 8.46 29.493 0 19 0S0 8.461 0 18.899c0 9.433 6.948 17.252 16.031 18.67V24.361h-4.824v-5.463h4.824v-4.164c0-4.736 2.837-7.353 7.177-7.353 2.079 0 4.253.37 4.253.37v4.65h-2.396c-2.36 0-3.096 1.457-3.096 2.952v3.545h5.27l-.843 5.463h-4.427v13.206C31.052 36.151 38 28.332 38 18.898"/>
        <path fill="#FFF" d="M26.561 24.456l.85-5.506h-5.32v-3.574c0-1.506.744-2.975 3.127-2.975h2.418V7.713s-2.195-.372-4.293-.372c-4.382 0-7.245 2.637-7.245 7.412v4.197h-4.87v5.506h4.87v13.312c.976.153 1.977.232 2.997.232 1.02 0 2.02-.08 2.997-.232V24.456h4.47z"/>
    </g>
</svg>
