<svg id="Layer_1" data-name="Layer 1" xmlns="http://www.w3.org/2000/svg" width="200" height="126" viewBox="0 0 200 126"><title>fwcs_logo</title><polygon points="102.601 98.447 149.012 98.447 149.012 1 102.601 23.996 102.601 98.447" fill="#9b8579"/><polygon points="53.242 98.505 99.653 98.505 99.653 1.054 53.242 24.052 53.242 98.505" fill="#f7941d"/><polygon points="4.172 98.498 50.582 98.498 50.582 1.049 4.172 24.047 4.172 98.498" fill="#b0d57a"/><polygon points="151.807 98.483 198.22 98.483 198.22 1.031 151.807 24.028 151.807 98.483" fill="#58b7dd"/><path d="M22.517,63.1845H38.34v2.81H25.5448v8.4339H37.4387v2.8109H25.5448V88.7015H22.517Z" fill="#fff"/><path d="M59.55,63.1845h3.3518l5.8025,21.1924h.0725l6.271-21.1924h3.3882L84.67,84.3769h.0725l5.911-21.1924H93.825l-7.4965,25.517h-3.28l-6.3073-21.625H76.67l-6.3442,21.625H67.01Z" fill="#fff"/><path d="M134.3658,68.4438a7.8526,7.8526,0,0,0-6.38-3.0983c-5.6946,0-9.7316,5.0112-9.7316,10.5955,0,5.9118,4,10.5982,9.7316,10.5982a8.99,8.99,0,0,0,7.3882-3.5678l2.2713,1.9089c-2.2713,3.0629-5.5863,4.47-9.6595,4.47-7.3159,0-12.9757-5.66-12.9757-13.409,0-7.4972,5.4064-13.4064,12.9757-13.4064a11.046,11.046,0,0,1,9.011,4.001Z" fill="#fff"/><path d="M180.2567,67.69a5.3009,5.3009,0,0,0-4.65-2.3441c-2.6671,0-5.4425,1.26-5.4425,4.29,0,2.3428,1.2985,3.3885,5.371,4.6843,3.9642,1.263,7.64,2.5594,7.64,7.5687,0,5.0815-4.3606,7.4617-8.9741,7.4617-2.9559,0-6.1272-.9735-7.8562-3.5316l2.5936-2.1282a6.1833,6.1833,0,0,0,5.4432,2.849c2.5948,0,5.55-1.5151,5.55-4.4343,0-3.1344-2.1268-3.676-6.6668-5.1884-3.6051-1.1915-6.3444-2.7761-6.3444-7.0312,0-4.9009,4.2176-7.3507,8.6859-7.3507a8.751,8.751,0,0,1,7.1375,2.992Z" fill="#fff"/><path d="M2.394,114.6584a2.1826,2.1826,0,0,0-.5546-1.0644,1.3265,1.3265,0,0,0-.6-.1351c-.15,0-.24-.0147-.24-.135,0-.105.12-.1351.33-.1351.78,0,1.6044.0455,1.739.0455s.7947-.0455,1.6642-.0455c.21,0,.315.0455.315.1351,0,.12-.12.135-.27.135a.7887.7887,0,0,0-.3747.06c-.1347.06-.1648.1644-.1648.33a9.7956,9.7956,0,0,0,.33,1.3794c.2548.99,1.6488,5.5314,1.9189,6.3712h.0449L9.44,113.7886c.15-.4193.2548-.54.3748-.54.1648,0,.24.2246.4346.7047l3.1184,7.5406h.0448c.27-1.0042,1.4692-4.9624,1.9941-6.7162a3.1863,3.1863,0,0,0,.15-.87c0-.2393-.1347-.4493-.7194-.4493-.15,0-.2551-.0455-.2551-.135,0-.105.12-.1351.345-.1351.7943,0,1.4241.0455,1.5589.0455.1049,0,.75-.0455,1.2443-.0455.1651,0,.27.03.27.12,0,.1042-.0752.15-.21.15a1.6388,1.6388,0,0,0-.5248.0749c-.36.1351-.5245.7348-.8395,1.5893-.69,1.8888-2.2635,6.6561-2.9984,8.9046-.1648.5248-.24.7047-.4345.7047-.15,0-.24-.18-.4648-.7348L9.41,116.4871H9.38c-.2848.7649-2.2786,6.0716-2.9231,7.451-.2848.6144-.36.7943-.54.7943-.15,0-.21-.1645-.345-.5543Z"/><path d="M19.9946,117.5368c0-2.2786,0-2.6985-.03-3.1786-.03-.51-.15-.7495-.6449-.8545a3.0725,3.0725,0,0,0-.5843-.0448c-.1652,0-.2551-.03-.2551-.135s.1049-.1351.33-.1351c.4046,0,.8395.0154,1.2142.0154.39.0147.7345.03.9445.03.48,0,3.463,0,3.7479-.0154a5.7986,5.7986,0,0,0,.6445-.09,1.4381,1.4381,0,0,1,.24-.0595c.0749,0,.09.0595.09.1351a9.67,9.67,0,0,0-.12.9741c-.015.15-.0448.81-.0748.99-.0151.0749-.0449.1651-.15.1651s-.1351-.0748-.1351-.21a1.6093,1.6093,0,0,0-.09-.54c-.105-.27-.2548-.45-1.0046-.54-.2548-.0293-1.829-.06-2.1285-.06-.0752,0-.105.0455-.105.1505v3.793c0,.1049.0151.1644.105.1644.33,0,2.0536,0,2.3986-.03a1.0447,1.0447,0,0,0,.7194-.2247c.105-.12.1648-.1945.24-.1945.06,0,.1049.0294.1049.12s-.06.33-.12,1.0945c-.015.3-.06.8993-.06,1.0043,0,.12,0,.2848-.1346.2848a.119.119,0,0,1-.1351-.135,3.9971,3.9971,0,0,0-.06-.54c-.0749-.2995-.2848-.5248-.8394-.5843-.2848-.03-1.7692-.0455-2.1288-.0455-.0749,0-.09.06-.09.15v1.1841c0,.51-.0151,1.8889,0,2.3234.03,1.0344.27,1.26,1.7989,1.26a3.8042,3.8042,0,0,0,1.4091-.18c.39-.18.57-.4948.6746-1.11.03-.1645.06-.2247.1648-.2247.12,0,.12.12.12.27a11.7787,11.7787,0,0,1-.195,1.6642c-.1049.39-.24.39-.8093.39-1.1246,0-1.949-.03-2.5936-.0454-.6449-.03-1.1095-.0448-1.5591-.0448-.1648,0-.4949,0-.8546.0147-.3446,0-.7344.03-1.0343.03-.1949,0-.3-.0448-.3-.15,0-.0749.06-.12.24-.12a2.4477,2.4477,0,0,0,.54-.06c.3-.06.3747-.39.4346-.8244.0748-.63.0748-1.814.0748-3.1934Z"/><path d="M34.5667,120.61c-.0749,0-.1049.03-.1347.12l-.81,2.1436a2.914,2.914,0,0,0-.225.9146c0,.2695.1351.4647.6.4647h.225c.18,0,.2246.03.2246.12,0,.12-.09.15-.2547.15-.48,0-1.1243-.0448-1.589-.0448-.1652,0-.99.0448-1.7691.0448-.1949,0-.2848-.03-.2848-.15,0-.09.06-.12.18-.12a4.6168,4.6168,0,0,0,.4647-.03c.69-.09.9745-.6,1.2744-1.3492l3.7629-9.4148c.18-.4346.27-.6.42-.6.135,0,.225.1351.375.4794.36.8251,2.7584,6.9416,3.7179,9.22.57,1.3493,1.0043,1.5593,1.3192,1.6342a3.3112,3.3112,0,0,0,.63.06c.12,0,.1949.0147.1949.12,0,.12-.1347.15-.6894.15-.54,0-1.6341,0-2.8335-.03-.27-.0147-.45-.0147-.45-.12,0-.09.06-.12.21-.1351a.2438.2438,0,0,0,.1346-.3443L38.06,120.7147a.1444.1444,0,0,0-.15-.1049Zm3.0583-.75c.0749,0,.09-.0448.0749-.09l-1.3489-3.7034c-.0151-.0595-.03-.1344-.0753-.1344s-.0749.0749-.09.1344l-1.379,3.688c-.0151.06,0,.105.06.105Z"/><path d="M44.4616,117.5368c0-2.2786,0-2.6985-.03-3.1786-.03-.51-.15-.7495-.6449-.8545a3.0735,3.0735,0,0,0-.5847-.0448c-.1648,0-.2547-.03-.2547-.135s.105-.1351.33-.1351c.7942,0,1.739.0455,2.0536.0455.51,0,1.6491-.0455,2.1138-.0455a4.797,4.797,0,0,1,2.7587.6445,2.5992,2.5992,0,0,1,1.0193,2.054c0,1.1092-.4647,2.1289-1.9788,3.3585,1.3342,1.6788,2.3686,3.0134,3.2532,3.9428a2.9836,2.9836,0,0,0,1.6789,1.0189,2.3559,2.3559,0,0,0,.42.0455c.12,0,.18.0448.18.12,0,.12-.1049.15-.2848.15H53.0669a3.0494,3.0494,0,0,1-1.6043-.2849,7.22,7.22,0,0,1-2.0537-2.2037c-.6-.8244-1.2894-1.844-1.4842-2.0687a.3119.3119,0,0,0-.27-.105l-1.3041-.03c-.0752,0-.12.03-.12.12v.2092c0,1.3948,0,2.5789.0749,3.2088.0451.4345.1351.7642.5847.8244a6.8928,6.8928,0,0,0,.7345.06c.12,0,.18.0448.18.12,0,.105-.105.15-.3.15-.87,0-1.9791-.0448-2.2038-.0448-.2848,0-1.23.0448-1.829.0448-.1948,0-.3-.0448-.3-.15,0-.0749.06-.12.24-.12a2.4467,2.4467,0,0,0,.54-.06c.3-.06.3747-.39.4346-.8244.0749-.63.0749-1.814.0749-3.1934Zm1.7691,1.1841c0,.1652.03.2247.1351.27a3.9491,3.9491,0,0,0,1.1393.15,1.5022,1.5022,0,0,0,1.0644-.2547,2.6435,2.6435,0,0,0,.8843-2.2493c0-2.1289-1.4091-2.7433-2.2937-2.7433a3.2571,3.2571,0,0,0-.7943.06c-.105.0294-.1351.09-.1351.21Z"/><path d="M55.7805,117.5368c0-2.2786,0-2.6985-.03-3.1786-.03-.51-.15-.7495-.6448-.8545a3.0742,3.0742,0,0,0-.5847-.0448c-.1648,0-.2547-.03-.2547-.135s.1049-.1351.33-.1351c.4049,0,.8395.0154,1.2142.0154.39.0147.7345.03.9444.03.48,0,3.4631,0,3.748-.0154a5.7986,5.7986,0,0,0,.6445-.09,1.4405,1.4405,0,0,1,.24-.0595c.0749,0,.09.0595.09.1351a9.6489,9.6489,0,0,0-.12.9741c-.015.15-.0447.81-.0749.99-.015.0749-.0451.1651-.15.1651s-.1351-.0748-.1351-.21a1.6093,1.6093,0,0,0-.09-.54c-.105-.27-.2547-.45-1.0046-.54-.2547-.0293-1.829-.06-2.1285-.06-.0753,0-.105.0455-.105.1505v3.793c0,.1049.015.1644.105.1644.33,0,2.0536,0,2.3986-.03a1.0446,1.0446,0,0,0,.72-.2247c.1049-.12.1648-.1945.24-.1945.06,0,.1046.0294.1046.12s-.06.33-.12,1.0945c-.015.3-.06.8993-.06,1.0043,0,.12,0,.2848-.1348.2848a.119.119,0,0,1-.135-.135,4.0118,4.0118,0,0,0-.06-.54c-.0749-.2995-.2849-.5248-.84-.5843-.2848-.03-1.7692-.0455-2.1289-.0455-.0749,0-.09.06-.09.15v1.1841c0,.51-.015,1.8889,0,2.3234.03,1.0344.27,1.26,1.7989,1.26a3.8042,3.8042,0,0,0,1.4091-.18c.39-.18.57-.4948.6747-1.11.03-.1645.06-.2247.1651-.2247.12,0,.12.12.12.27a11.735,11.735,0,0,1-.1949,1.6642c-.105.39-.24.39-.8094.39-1.1246,0-1.949-.03-2.5935-.0454-.6449-.03-1.11-.0448-1.5592-.0448-.1649,0-.4948,0-.8546.0147-.345,0-.7344.03-1.0343.03-.1949,0-.3-.0448-.3-.15,0-.0749.06-.12.24-.12a2.4477,2.4477,0,0,0,.54-.06c.3-.06.3747-.39.4345-.8244.0749-.63.0749-1.814.0749-3.1934Z"/><path d="M71.4321,120.64a3.177,3.177,0,0,0-.345-1.5739c-.1046-.24-2.1138-3.5383-2.6384-4.3179a3.6516,3.6516,0,0,0-1.0343-1.0938,1.5158,1.5158,0,0,0-.63-.1953c-.12,0-.2247-.03-.2247-.135,0-.09.105-.1351.2848-.1351.27,0,1.3941.0455,1.8889.0455.3149,0,.9294-.0455,1.604-.0455.15,0,.225.0455.225.1351s-.105.1049-.33.1651a.2709.2709,0,0,0-.21.2694,1.385,1.385,0,0,0,.18.51c.21.4493,2.3088,4.0625,2.5485,4.4824.15-.36,2.0389-3.658,2.2489-4.1227a1.958,1.958,0,0,0,.21-.78.3585.3585,0,0,0-.3149-.3751c-.1351-.0294-.27-.06-.27-.15,0-.105.0749-.1351.2548-.1351.4947,0,.9745.0455,1.4091.0455.33,0,1.3191-.0455,1.6043-.0455.1648,0,.27.03.27.12,0,.1042-.12.15-.2848.15a1.6222,1.6222,0,0,0-.66.18,2.2246,2.2246,0,0,0-.81.7348,47.76,47.76,0,0,0-2.8634,4.7672,3.5832,3.5832,0,0,0-.225,1.499v1.23c0,.2394,0,.8692.0452,1.4991.03.4345.1648.7642.6144.8244a6.3143,6.3143,0,0,0,.7495.06c.1652,0,.24.0448.24.12,0,.105-.12.15-.3149.15-.9444,0-1.8889-.0448-2.2937-.0448-.3748,0-1.3192.0448-1.8738.0448-.21,0-.33-.03-.33-.15,0-.0749.0749-.12.24-.12a2.4072,2.4072,0,0,0,.5245-.06c.3-.06.4349-.39.4647-.8244.0451-.63.0451-1.26.0451-1.4991Z"/><path d="M77.8639,118.8559a5.7737,5.7737,0,0,1,6.1916-5.877c3.7333,0,6.0567,2.1743,6.0567,5.6069a5.9261,5.9261,0,0,1-6.2068,6.1466A5.71,5.71,0,0,1,77.8639,118.8559Zm10.15.2849c0-3.3584-1.934-5.4425-4.3928-5.4425-1.724,0-3.6877.96-3.6877,4.693,0,3.1177,1.724,5.5916,4.6024,5.5916C85.5846,123.9829,88.0134,123.4734,88.0134,119.1408Z"/><path d="M92.7512,117.5368c0-2.2786,0-2.6985-.0308-3.1786-.0294-.51-.15-.7495-.6445-.8545a3.07,3.07,0,0,0-.5844-.0448c-.1645,0-.2547-.03-.2547-.135s.1049-.1351.33-.1351c.7943,0,1.7391.0455,2.189.0455.36,0,1.3038-.0455,1.8441-.0455.2247,0,.33.03.33.1351s-.09.135-.24.135a2.2465,2.2465,0,0,0-.4346.0448c-.4052.0756-.5248.33-.555.8545-.0293.48-.0293.9-.0293,3.1786v2.0988c0,2.1736.4345,3.0883,1.1687,3.688a2.7782,2.7782,0,0,0,1.8741.6145,2.9382,2.9382,0,0,0,2.0694-.81c.8244-.8244.8692-2.1736.8692-3.7182v-1.8734c0-2.2786,0-2.6985-.03-3.1786-.03-.51-.15-.7495-.6445-.8545a2.8957,2.8957,0,0,0-.54-.0448c-.1652,0-.2555-.03-.2555-.135s.1057-.1351.3156-.1351c.7643,0,1.7084.0455,1.7237.0455.18,0,1.1246-.0455,1.709-.0455.21,0,.3149.03.3149.1351s-.09.135-.27.135a2.2465,2.2465,0,0,0-.4346.0448c-.4045.0756-.5249.33-.555.8545-.0294.48-.0294.9-.0294,3.1786v1.604c0,1.6642-.1651,3.4326-1.4248,4.5125a4.4722,4.4722,0,0,1-3.1177,1.0791,4.8221,4.8221,0,0,1-3.3284-1.0343c-.7642-.6894-1.3339-1.7993-1.3339-3.9729Z"/><path d="M106.1683,117.5368c0-2.2786,0-2.6985-.03-3.1786-.0294-.51-.15-.7495-.6445-.8545a3.0708,3.0708,0,0,0-.5844-.0448c-.1652,0-.2547-.03-.2547-.135s.1049-.1351.33-.1351c.7943,0,1.7391.0455,2.0539.0455.51,0,1.6488-.0455,2.1135-.0455a4.7963,4.7963,0,0,1,2.7587.6445,2.5982,2.5982,0,0,1,1.019,2.054c0,1.1092-.4647,2.1289-1.9784,3.3585,1.3339,1.6788,2.3682,3.0134,3.2528,3.9428a2.9844,2.9844,0,0,0,1.68,1.0189,2.3489,2.3489,0,0,0,.4192.0455c.12,0,.18.0448.18.12,0,.12-.1051.15-.2849.15h-1.4241a3.0491,3.0491,0,0,1-1.604-.2849,7.2234,7.2234,0,0,1-2.054-2.2037c-.5991-.8244-1.2891-1.844-1.4837-2.0687a.3122.3122,0,0,0-.27-.105l-1.3045-.03c-.0749,0-.12.03-.12.12v.2092c0,1.3948,0,2.5789.0749,3.2088.0448.4345.1351.7642.5851.8244a6.8776,6.8776,0,0,0,.7341.06c.12,0,.18.0448.18.12,0,.105-.1049.15-.3.15-.87,0-1.9791-.0448-2.2037-.0448-.2848,0-1.23.0448-1.8294.0448-.1945,0-.3-.0448-.3-.15,0-.0749.06-.12.24-.12a2.4459,2.4459,0,0,0,.54-.06c.3-.06.3744-.39.4346-.8244.0749-.63.0749-1.814.0749-3.1934Zm1.7691,1.1841c0,.1652.03.2247.1351.27a3.9491,3.9491,0,0,0,1.1393.15,1.5016,1.5016,0,0,0,1.0644-.2547,2.6443,2.6443,0,0,0,.8846-2.2493c0-2.1289-1.4094-2.7433-2.294-2.7433a3.2592,3.2592,0,0,0-.7943.06c-.105.0294-.1351.09-.1351.21Z"/><path d="M121.1606,124.3426c-.24-.105-.2848-.18-.2848-.51,0-.8244.06-1.7243.0749-1.9637.0147-.2253.06-.39.18-.39.1351,0,.15.1344.15.2547a3.1726,3.1726,0,0,0,.135.7642,2.0656,2.0656,0,0,0,2.1436,1.5145,1.822,1.822,0,0,0,2.0092-1.709c0-.7348-.2247-1.4241-1.4689-2.399l-.69-.54c-1.6488-1.2891-2.2184-2.3388-2.2184-3.5531,0-1.6488,1.3794-2.8335,3.4627-2.8335a7.2161,7.2161,0,0,1,1.9938.2554c.1351.0294.21.0749.21.1791,0,.1953-.0595.63-.0595,1.7992,0,.33-.0454.45-.1651.45-.105,0-.15-.09-.15-.27a1.8162,1.8162,0,0,0-.39-.9895,1.9,1.9,0,0,0-1.6341-.7341,1.5776,1.5776,0,0,0-1.7839,1.5437c0,.69.3444,1.2143,1.5887,2.1591l.42.3148c1.8139,1.364,2.4584,2.3984,2.4584,3.8225a3.022,3.022,0,0,1-1.4087,2.609,4.3354,4.3354,0,0,1-2.3837.6144A5.1948,5.1948,0,0,1,121.1606,124.3426Z"/><path d="M130.9357,123.0983a5.9364,5.9364,0,0,1-.1049-8.53,6.542,6.542,0,0,1,4.7371-1.5892,14.8673,14.8673,0,0,1,2.1736.15c.57.0756,1.05.21,1.4991.2554.1652.0147.2253.09.2253.18,0,.12-.0454.3-.0756.8244-.0293.4948-.0146,1.3192-.0447,1.6194-.0147.2246-.0448.3443-.18.3443-.12,0-.15-.12-.15-.33a2.1418,2.1418,0,0,0-.5851-1.3794,4.4686,4.4686,0,0,0-3.0429-.9293,3.908,3.908,0,0,0-2.8182.9293,5.6036,5.6036,0,0,0,3.3431,9.22c1.3339,0,2.1436-.15,2.7434-.84a2.5051,2.5051,0,0,0,.5094-.9895c.0448-.24.0749-.3.1953-.3.1049,0,.1344.105.1344.2247a14.2535,14.2535,0,0,1-.33,1.9938.5287.5287,0,0,1-.39.4346,8.68,8.68,0,0,1-2.6985.345A7.49,7.49,0,0,1,130.9357,123.0983Z"/><path d="M150.3951,117.956c.0448,0,.09-.0294.09-.1043v-.3149c0-2.2786,0-2.6985-.03-3.1786-.03-.51-.15-.7495-.6445-.8545a3.0708,3.0708,0,0,0-.5844-.0448c-.1651,0-.2547-.03-.2547-.135s.1043-.1351.3142-.1351c.81,0,1.7544.0455,2.1589.0455.36,0,1.3045-.0455,1.8889-.0455.21,0,.3149.03.3149.1351s-.09.135-.2695.135a2.65,2.65,0,0,0-.4352.0448c-.4046.0756-.5242.33-.5543.8545-.03.48-.03.9-.03,3.1786v2.6383c0,1.3794,0,2.5635.0748,3.208.0448.42.1351.75.5843.81a6.3244,6.3244,0,0,0,.7649.06c.1652,0,.24.0448.24.12,0,.105-.12.15-.3.15-.9742,0-1.9189-.0448-2.3388-.0448-.3444,0-1.2891.0448-1.8735.0448-.21,0-.3149-.0448-.3149-.15,0-.0749.06-.12.24-.12a2.4459,2.4459,0,0,0,.54-.06c.2995-.06.3744-.39.4346-.8244.0749-.63.0749-1.814.0749-3.1934v-1.3192a.0864.0864,0,0,0-.09-.09h-5.7273a.079.079,0,0,0-.09.09v1.3192c0,1.3794,0,2.5635.0749,3.208.0447.42.135.75.5843.81a6.3212,6.3212,0,0,0,.7649.06c.1652,0,.24.0448.24.12,0,.105-.12.15-.3.15-.9742,0-1.9189-.0448-2.3388-.0448-.3443,0-1.289.0448-1.8888.0448-.1946,0-.2995-.0448-.2995-.15,0-.0749.06-.12.24-.12a2.4449,2.4449,0,0,0,.54-.06c.3-.06.3745-.39.4346-.8244.0749-.63.0749-1.814.0749-3.1934v-2.6383c0-2.2786,0-2.6985-.03-3.1786-.0294-.51-.15-.7495-.6445-.8545a3.07,3.07,0,0,0-.5844-.0448c-.1651,0-.2547-.03-.2547-.135s.105-.1351.3142-.1351c.81,0,1.7545.0455,2.159.0455.36,0,1.3044-.0455,1.8888-.0455.21,0,.3149.03.3149.1351s-.09.135-.2694.135a2.6514,2.6514,0,0,0-.4353.0448c-.4045.0756-.5242.33-.5543.8545-.03.48-.03.9-.03,3.1786v.3149c0,.0749.0447.1043.09.1043Z"/><path d="M155.4926,118.8559a5.7737,5.7737,0,0,1,6.1914-5.877c3.7328,0,6.0569,2.1743,6.0569,5.6069a5.9265,5.9265,0,0,1-6.2067,6.1466A5.71,5.71,0,0,1,155.4926,118.8559Zm10.15.2849c0-3.3584-1.9343-5.4425-4.3928-5.4425-1.7237,0-3.6881.96-3.6881,4.693,0,3.1177,1.7243,5.5916,4.6027,5.5916C163.2131,123.9829,165.6422,123.4734,165.6422,119.1408Z"/><path d="M169.39,118.8559a5.7737,5.7737,0,0,1,6.1914-5.877c3.7328,0,6.057,2.1743,6.057,5.6069a5.9265,5.9265,0,0,1-6.2068,6.1466A5.71,5.71,0,0,1,169.39,118.8559Zm10.15.2849c0-3.3584-1.9343-5.4425-4.3928-5.4425-1.7237,0-3.6881.96-3.6881,4.693,0,3.1177,1.7244,5.5916,4.6028,5.5916C177.1109,123.9829,179.54,123.4734,179.54,119.1408Z"/><path d="M186.6467,120.1751c0,1.9189,0,2.9533.3149,3.2234.2548.2247.6445.33,1.8139.33.7944,0,1.3794-.0153,1.7538-.42a1.8807,1.8807,0,0,0,.39-.8993c.0153-.1351.0447-.2253.1651-.2253.105,0,.12.0755.12.2553a11.8568,11.8568,0,0,1-.2247,1.7237c-.09.33-.1652.4052-.9447.4052-1.0792,0-1.8588-.03-2.5334-.0454-.6747-.03-1.2143-.0448-1.8287-.0448-.1651,0-.4948,0-.8551.0147-.3444,0-.7342.03-1.0344.03-.1946,0-.2995-.0448-.2995-.15,0-.0749.06-.12.24-.12a2.4467,2.4467,0,0,0,.54-.06c.2995-.06.3744-.39.4345-.8244.075-.63.075-1.814.075-3.1934v-2.6383c0-2.2786,0-2.6985-.03-3.1786-.03-.51-.15-.7495-.6446-.8545a2.2154,2.2154,0,0,0-.4947-.0448c-.1645,0-.2548-.03-.2548-.135s.105-.1351.33-.1351c.7048,0,1.6495.0455,2.054.0455.36,0,1.4542-.0455,2.0393-.0455.2093,0,.3142.03.3142.1351s-.09.135-.2694.135a3.9767,3.9767,0,0,0-.5851.0448c-.4045.0756-.5242.33-.5542.8545-.03.48-.03.9-.03,3.1786Z"/><path d="M193.0186,124.3426c-.24-.105-.2848-.18-.2848-.51,0-.8244.06-1.7243.0748-1.9637.0154-.2253.06-.39.18-.39.1351,0,.15.1344.15.2547a3.1726,3.1726,0,0,0,.135.7642,2.0655,2.0655,0,0,0,2.1436,1.5145,1.822,1.822,0,0,0,2.0092-1.709c0-.7348-.2247-1.4241-1.4689-2.399l-.69-.54c-1.6488-1.2891-2.2184-2.3388-2.2184-3.5531,0-1.6488,1.3793-2.8335,3.4627-2.8335a7.2168,7.2168,0,0,1,1.9938.2554c.1351.0294.21.0749.21.1791,0,.1953-.06.63-.06,1.7992,0,.33-.0455.45-.1652.45-.105,0-.15-.09-.15-.27a1.8167,1.8167,0,0,0-.39-.9895,1.9,1.9,0,0,0-1.6341-.7341,1.5776,1.5776,0,0,0-1.7839,1.5437c0,.69.3443,1.2143,1.5886,2.1591l.42.3148c1.814,1.364,2.4585,2.3984,2.4585,3.8225a3.0219,3.0219,0,0,1-1.4088,2.609,4.335,4.335,0,0,1-2.3836.6144A5.1942,5.1942,0,0,1,193.0186,124.3426Z"/></svg>