<?xml version="1.0" encoding="UTF-8"?>
<svg width="83px" height="27px" viewBox="0 0 83 27" version="1.1" xmlns="http://www.w3.org/2000/svg" xmlns:xlink="http://www.w3.org/1999/xlink">
    <title>CEEF7F53-E1A9-45DA-B0C9-9BAC5D702D23@0.5x</title>
    <g id="Chatbot-Tab" stroke="none" stroke-width="1" fill="none" fill-rule="evenodd">
        <g id="1b-Dialogue-Chat-choice-" transform="translate(-1024.000000, -406.000000)">
            <g id="Group-2-Copy" transform="translate(916.000000, 406.000000)">
                <g id="Group-Copy-4" transform="translate(108.000000, 0.000000)">
                    <g id="One-Piece-Arrows"></g>
                    <text id="Let’s-Talk!" fill="#FFFFFF" fill-rule="nonzero" font-family="Helvetica" font-size="14.2621875" font-weight="normal" letter-spacing="0.094651185">
                        <tspan x="18" y="18">Let’s Talk!</tspan>
                    </text>
                    <path d="M40,21.2267476 C41.1883883,21.1691745 41.8374405,21.1403879 41.9471564,21.1403879 C42.1117303,21.1403879 44.8237418,21 44.9783673,21 C45.0037607,21.5516287 45.0335356,22.1675217 45.0335356,22.2286967 C44.3548378,22.2650003 42.6337677,22.3344535 42.6521749,22.3435013 C43.5624652,22.790946 44.2844899,23.0743359 44.8515986,23.2834764 C45.6047078,23.5638279 46.3385118,23.7564702 47.0949155,23.9308812 C48.1387046,24.1715573 49.2099928,24.2708283 49.7413664,24.2708283 C50.0273421,24.2802902 50.2825008,24.2800512 50.5767723,24.2708283 C50.6688119,24.2679436 51.9643927,24.1795918 52.5411749,24.0709562 C53.386732,23.8977625 53.7623367,23.8065623 54.6835699,23.4694644 C56.1122684,22.9413153 57.3644932,22.175781 58.4402442,21.1728618 C58.7910533,21.5512633 59.0609719,21.8454026 59.25,22.0552797 C58.8478761,22.4603845 58.3226932,22.8534316 58.2034648,22.9440757 C57.6218302,23.386267 56.9738953,23.75 56.3629741,24.0709562 C55.9931334,24.2652573 55.6121639,24.4263278 55.2644227,24.5680682 C54.9166815,24.7098086 54.4638357,24.8499374 54.0406653,24.9787822 C52.7893237,25.3597842 51.1217386,25.5107999 50.1893911,25.5199896 C49.2570436,25.5291793 47.971546,25.4503305 46.4152702,25.0427191 C45.7650938,24.8724284 45.1176736,24.7036149 44.3883538,24.4250038 C43.9716432,24.2658141 43.4370036,24.0742339 42.6902261,23.7209572 C42.2664977,23.5205047 41.7814786,23.2707601 41.2351688,22.9717234 C41.3198808,24.8574002 41.3682262,26.0129916 41.380205,26.4384975 C40.6296874,26.4761562 40.3668,26.4761562 40.2243174,26.5 C40.2106894,26.0972918 40.1359169,24.339541 40,21.2267476 Z" id="Bottom-Arrow-Body-2-Copy" fill="#FFFFFF" fill-rule="nonzero"></path>
                    <path d="M40.8112625,5.32221502 C41.1447503,5.02152328 41.3678786,4.82865438 41.4806475,4.74360832 C41.930119,4.40463353 42.1990144,4.23430497 42.2822652,4.17897349 C42.9091606,3.76231603 43.488878,3.49291193 43.8582958,3.32095781 C44.2891059,3.12042722 44.8216646,2.91279726 45.3817526,2.75 C45.9854448,2.57452859 46.5981615,2.42951992 47.1235591,2.36107312 C47.8300332,2.26903637 48.1910727,2.20940963 49.0190175,2.20940963 C49.5322234,2.20940963 50.441291,2.26317283 51.1008317,2.36107312 C51.7603724,2.4589734 52.9722599,2.70229232 53.8340943,3.01102944 C54.3284098,3.18810932 54.9823281,3.40471364 55.9170566,3.82756659 C56.0165716,3.87258525 56.4325115,4.07251636 56.5989598,4.15694641 C56.2752291,4.17790422 54.6183555,4.24395499 54.2278965,4.26038105 C54.2278965,4.40323634 54.2533809,4.78079062 54.2783019,5.5 C54.8557093,5.47735986 58.2475322,5.3070313 59.25,5.26125203 C59.2141141,4.30789206 59.0243796,0.571093254 59.0243796,0 C58.7958324,0 58.413608,0.0164621001 57.8777062,0.0493863003 C57.9753614,2.14478279 58.024189,3.30138177 58.024189,3.51918323 C57.5315552,3.2481231 56.7131977,2.83998785 56.4188165,2.71341972 C55.4920462,2.31495818 54.9026715,2.08588921 54.4226152,1.90901055 C54.3279431,1.87412824 53.0377543,1.43866151 51.6981359,1.20771224 C50.6404448,1.02536704 49.561328,0.976480271 49.0891782,0.976480271 C48.6055491,0.976480271 47.1524585,1.09545926 46.9345391,1.12670431 C45.8074567,1.28830416 44.4400023,1.66324475 42.9256103,2.40566021 C41.8106707,2.97872636 40.8354672,3.65849516 40,4.44496663 L40.8112625,5.32221502 Z" id="Top-Arrow-Body-Copy" fill="#FFFFFF" fill-rule="nonzero"></path>
                </g>
            </g>
        </g>
    </g>
</svg>