<svg xmlns="http://www.w3.org/2000/svg" viewBox="0 0.4 209 43.75" fill="#009BFF"><title>The Indianapolis Star Logo</title><path d="M8.79 34.92H0V2.77h8.79v32.15zm14.66-13.28v13.29h-8.23V10.86h7.52l.43 3.17a8.92 8.92 0 013.07-2.74 8.53 8.53 0 014.16-1.04c2.62 0 4.71.85 6.29 2.55 1.58 1.7 2.36 4.14 2.36 7.33v14.8h-8.23V21.07c0-1.42-.32-2.47-.95-3.14a3.43 3.43 0 00-2.65-1.02A3.6 3.6 0 0024.48 18c-.68.72-1.03 1.94-1.03 3.64zm37.92 13.28l-.42-3.17a8.36 8.36 0 01-2.93 2.77 8.3 8.3 0 01-4.16 1.02c-2.18 0-4.08-.54-5.72-1.61-1.64-1.07-2.92-2.56-3.83-4.47s-1.37-4.11-1.37-6.6.46-4.68 1.37-6.57a10.95 10.95 0 013.76-4.44 9.65 9.65 0 015.51-1.61 8.93 8.93 0 017.09 3.4V.41h8.23v34.51h-7.53zm-5.3-5.91c1.42 0 2.56-.56 3.43-1.68a7.09 7.09 0 001.3-4.47c0-1.86-.43-3.35-1.3-4.47a4.13 4.13 0 00-3.43-1.68c-1.45 0-2.61.56-3.47 1.68a7.09 7.09 0 00-1.3 4.47c0 1.86.43 3.35 1.3 4.47a4.15 4.15 0 003.47 1.68zm35.27 4.02c-1.45 3.72-3.1 6.49-4.96 8.32a9.68 9.68 0 01-7.09 2.74 13.05 13.05 0 01-6.15-1.47l2.32-5.67a9 9 0 001.47.57c.54.16 1.1.24 1.7.24.85 0 1.61-.21 2.29-.61a4.92 4.92 0 001.77-2.22l.38-.85L72.2 10.86h9.08l5.34 14.42 4.4-14.42h8.94l-8.62 22.17z"/><path fill="#404040" d="M115.31 35.54c-2.62 0-5.12-.45-7.52-1.35-2.4-.9-4.48-2.18-6.24-3.85L105.8 25a14.6 14.6 0 004.25 2.67c1.58.65 3.31.97 5.2.97 1.26 0 2.25-.22 2.98-.66a2.18 2.18 0 001.09-1.99c0-.85-.43-1.54-1.28-2.06a18.7 18.7 0 00-4.49-1.63l-1.99-.52c-2.9-.76-5.11-1.91-6.62-3.48a8.19 8.19 0 01-2.27-5.93c0-2.05.54-3.85 1.61-5.39a10.4 10.4 0 014.44-3.57 16.04 16.04 0 016.57-1.25c2.46 0 4.81.45 7.04 1.35 2.24.9 4.22 2.12 5.96 3.66l-4.4 5.53a17.34 17.34 0 00-4-2.55 10.65 10.65 0 00-4.56-1.09c-1.26 0-2.23.21-2.91.64a2.08 2.08 0 00-1.02 1.87c0 .76.36 1.41 1.06 1.96.71.55 1.93 1.06 3.66 1.54l2.41.66c3.47.94 5.92 2.24 7.35 3.88a8.45 8.45 0 012.15 5.72c0 2.05-.53 3.84-1.58 5.37a10.4 10.4 0 01-4.47 3.57 16.23 16.23 0 01-6.67 1.27zm35.13-2.18a13.34 13.34 0 01-7.33 2.17c-2.59 0-4.64-.75-6.17-2.25-1.53-1.5-2.29-3.51-2.29-6.03V17h-3.92v-6.15h4.3l1.04-6.71h6.81v6.71h6.29V17h-6.29v9.22c0 .82.24 1.46.73 1.92.49.46 1.14.69 1.96.69.41 0 .83-.08 1.25-.24a7.9 7.9 0 001.21-.57l2.41 5.34zm17.64 1.56l-.43-3.17c-1.58 2.52-3.97 3.78-7.19 3.78-1.42 0-2.7-.31-3.85-.92a6.82 6.82 0 01-3.76-6.26 7.2 7.2 0 013.14-6.24c2.1-1.48 4.86-2.22 8.3-2.22 1.07 0 2.21.09 3.4.28a3.58 3.58 0 00-1.54-2.72 5.71 5.71 0 00-3.29-.92c-1.13 0-2.28.21-3.43.64-1.15.43-2.25.94-3.29 1.54l-2.79-5.3a20.26 20.26 0 0110.59-3.17c2.21 0 4.19.38 5.96 1.13a9.22 9.22 0 014.16 3.45 10.52 10.52 0 011.51 5.86v14.23h-7.49zm-7.23-7.8c0 .73.27 1.32.8 1.77.54.46 1.23.69 2.08.69a3.95 3.95 0 004.02-4.07v-.8c-.85-.16-1.75-.24-2.69-.24-1.2 0-2.2.21-3 .61a2.13 2.13 0 00-1.21 2.04zm28.22-1.51v9.31h-8.23V10.86h7.52l.52 4.02a6.83 6.83 0 016.48-4.35c.85 0 1.5.11 1.94.33v7.52a5.48 5.48 0 00-1.16-.28c-.43-.06-.91-.1-1.44-.1-1.64 0-2.99.61-4.04 1.82-1.06 1.21-1.59 3.14-1.59 5.79z"/><circle cx="203.35" cy="29.94" r="5.5"/></svg>