<svg xmlns="http://www.w3.org/2000/svg" viewBox="0 0 450 177"><defs><style>.cls-1{fill:#a81c21;}.cls-2{fill:#fff;}</style></defs><g id="Layer_2" data-name="Layer 2"><g id="Layer_1-2" data-name="Layer 1"><rect x="265.17" y="9.38" width="144.66" height="79.56"/><rect class="cls-1" x="265.17" y="88.94" width="144.66" height="41"/><path class="cls-2" d="M290,20.33a.42.42,0,0,1,.25.44v4.78a.34.34,0,0,1-.36.36h-3.17a.33.33,0,0,1-.35-.36V23.36a.29.29,0,0,0-.22-.33,9.58,9.58,0,0,0-3.6-.64c-2.7,0-4,1.26-4,3.16s1.05,3,4.43,3.42l1.3.18c4.71.65,7.3,3,7.3,7.24,0,4.43-3,7.49-9.1,7.49a16.25,16.25,0,0,1-8-2,.45.45,0,0,1-.26-.43V36.6a.35.35,0,0,1,.36-.36H278a.35.35,0,0,1,.36.36V39a.24.24,0,0,0,.18.25,11.71,11.71,0,0,0,4.24.83c2.92,0,4.61-1.3,4.61-3.53,0-1.77-1.08-3-4.46-3.46l-1.3-.18c-4.71-.65-7.31-2.84-7.31-7.12,0-4.58,3.21-7.2,8.57-7.2A16.1,16.1,0,0,1,290,20.33Z"/><path class="cls-2" d="M311.53,20.48a.53.53,0,0,1,.29.5v4.86a.34.34,0,0,1-.36.36h-3.24a.34.34,0,0,1-.36-.36V23.36a.27.27,0,0,0-.18-.29,7.63,7.63,0,0,0-3.13-.65c-3.06,0-4.32,1.26-5,3.24-.33,1-.47,2-.47,5.58s.11,4.57.43,5.58c.68,2,1.91,3.24,5,3.24a7.64,7.64,0,0,0,3.13-.58.27.27,0,0,0,.18-.28V36.6a.35.35,0,0,1,.36-.36h3.24a.34.34,0,0,1,.36.36v4.9a.53.53,0,0,1-.29.5,13.3,13.3,0,0,1-7.38,1.88c-4.53,0-7.56-1.77-8.82-5.76-.5-1.52-.57-3-.57-6.88s.11-5.15.61-6.66c1.26-4,4.39-6,8.82-6A13.22,13.22,0,0,1,311.53,20.48Z"/><path class="cls-2" d="M336.62,19a.34.34,0,0,1,.36.36v2.81a.34.34,0,0,1-.36.36H334.9a.19.19,0,0,0-.22.22v17c0,.14.07.21.22.21h1.72a.34.34,0,0,1,.36.36v2.81a.34.34,0,0,1-.36.36h-8.13a.34.34,0,0,1-.36-.36V40.31a.34.34,0,0,1,.36-.36h1.73a.19.19,0,0,0,.21-.21V33.22a.19.19,0,0,0-.21-.21h-8.86a.19.19,0,0,0-.22.21v6.52a.19.19,0,0,0,.22.21h1.73a.35.35,0,0,1,.36.36v2.81a.34.34,0,0,1-.36.36H315a.34.34,0,0,1-.36-.36V40.31A.35.35,0,0,1,315,40h1.73c.15,0,.22-.07.22-.21v-17a.19.19,0,0,0-.22-.22H315a.34.34,0,0,1-.36-.36V19.36A.35.35,0,0,1,315,19h8.14a.35.35,0,0,1,.36.36v2.81a.34.34,0,0,1-.36.36h-1.73a.2.2,0,0,0-.22.22V29a.2.2,0,0,0,.22.22h8.86a.19.19,0,0,0,.21-.22V22.75c0-.15-.07-.22-.21-.22h-1.73a.34.34,0,0,1-.36-.36V19.36a.34.34,0,0,1,.36-.36Z"/><path class="cls-2" d="M357.83,24.51c.5,1.51.64,2.88.64,6.73s-.14,5.22-.64,6.73c-1.26,3.89-4.43,5.91-8.68,5.91s-7.38-2-8.64-5.91c-.5-1.51-.64-2.88-.64-6.73s.14-5.22.64-6.73c1.26-3.89,4.43-5.9,8.64-5.9S356.57,20.62,357.83,24.51Zm-13.21,1.12c-.29.9-.44,2.12-.44,5.61s.15,4.72.44,5.62a4.83,4.83,0,0,0,9.1,0c.29-.9.44-2.16.44-5.62s-.15-4.71-.44-5.61a4.83,4.83,0,0,0-9.1,0Z"/><path class="cls-2" d="M380,24.51c.5,1.51.64,2.88.64,6.73s-.14,5.22-.64,6.73c-1.26,3.89-4.43,5.91-8.68,5.91s-7.38-2-8.64-5.91c-.5-1.51-.64-2.88-.64-6.73s.14-5.22.64-6.73c1.26-3.89,4.43-5.9,8.64-5.9S378.71,20.62,380,24.51Zm-13.21,1.12c-.29.9-.44,2.12-.44,5.61s.15,4.72.44,5.62a4.83,4.83,0,0,0,9.1,0c.29-.9.44-2.16.44-5.62s-.15-4.71-.44-5.61a4.83,4.83,0,0,0-9.1,0Z"/><path class="cls-2" d="M392,19a.34.34,0,0,1,.36.36v2.81a.34.34,0,0,1-.36.36h-1.73c-.14,0-.21.07-.21.22v16.7a.19.19,0,0,0,.21.21H397a.19.19,0,0,0,.21-.21V37.29a.34.34,0,0,1,.36-.36h3.24a.34.34,0,0,1,.36.36v5.83a.34.34,0,0,1-.36.36H383.86a.34.34,0,0,1-.36-.36V40.31a.34.34,0,0,1,.36-.36h1.72c.15,0,.22-.07.22-.21v-17a.19.19,0,0,0-.22-.22h-1.72a.34.34,0,0,1-.36-.36V19.36a.34.34,0,0,1,.36-.36Z"/><path class="cls-2" d="M288.42,52.33a.42.42,0,0,1,.25.44v4.78a.34.34,0,0,1-.36.36h-3.17a.34.34,0,0,1-.36-.36V55.36a.29.29,0,0,0-.21-.33,9.62,9.62,0,0,0-3.6-.64c-2.7,0-4,1.26-4,3.16s1,3,4.43,3.42l1.3.18c4.71.65,7.3,3,7.3,7.24,0,4.43-3,7.49-9.1,7.49a16.25,16.25,0,0,1-8-1.95.45.45,0,0,1-.26-.43V68.6a.35.35,0,0,1,.36-.36h3.32a.34.34,0,0,1,.35.36V71a.25.25,0,0,0,.19.25,11.67,11.67,0,0,0,4.24.83c2.92,0,4.61-1.3,4.61-3.53,0-1.77-1.08-3-4.46-3.46l-1.3-.18c-4.71-.65-7.31-2.84-7.31-7.12,0-4.58,3.21-7.2,8.57-7.2A16.13,16.13,0,0,1,288.42,52.33Z"/><path class="cls-2" d="M306.24,51a.47.47,0,0,1,.47.36l7.09,20.41a.22.22,0,0,0,.25.18h1.08a.34.34,0,0,1,.36.36v2.81a.34.34,0,0,1-.36.36h-7.38a.34.34,0,0,1-.36-.36V72.31a.35.35,0,0,1,.36-.36h1.55a.19.19,0,0,0,.18-.25l-1.08-3.17h-8.32l-1,3.13a.19.19,0,0,0,.18.29h1.48a.35.35,0,0,1,.36.36v2.81a.34.34,0,0,1-.36.36h-7.35a.34.34,0,0,1-.36-.36V72.31a.35.35,0,0,1,.36-.36h1.19c.14,0,.22,0,.29-.21L302,51.36a.46.46,0,0,1,.46-.36Zm-4.9,13.82h5.84l-2.81-8.45h-.11Z"/><path class="cls-2" d="M336.26,51a.34.34,0,0,1,.36.36v5.76a.34.34,0,0,1-.36.36h-3.09a.34.34,0,0,1-.36-.36V55c0-.14-.07-.21-.22-.21h-7.34c-.15,0-.22.07-.22.21v6.3a.19.19,0,0,0,.22.22h5c.14,0,.21-.07.21-.22V60a.34.34,0,0,1,.36-.36h3a.34.34,0,0,1,.36.36v6.76a.34.34,0,0,1-.36.36h-3a.34.34,0,0,1-.36-.36V65.44c0-.15-.07-.22-.21-.22h-5a.19.19,0,0,0-.22.22v6.3c0,.14.07.21.22.21h2.23a.34.34,0,0,1,.36.36v2.81a.34.34,0,0,1-.36.36h-8.64a.34.34,0,0,1-.36-.36V72.31a.35.35,0,0,1,.36-.36h1.73a.19.19,0,0,0,.22-.21v-17a.2.2,0,0,0-.22-.22h-1.73a.34.34,0,0,1-.36-.36V51.36a.35.35,0,0,1,.36-.36Z"/><path class="cls-2" d="M358.3,51a.34.34,0,0,1,.35.36v5.58a.33.33,0,0,1-.35.36h-3.1a.34.34,0,0,1-.36-.36V55c0-.14-.07-.21-.22-.21h-7.3c-.15,0-.22.07-.22.21v6a.2.2,0,0,0,.22.22h4.93a.19.19,0,0,0,.21-.22v-1.3a.35.35,0,0,1,.36-.36h3a.34.34,0,0,1,.36.36v6.77a.34.34,0,0,1-.36.36h-3a.34.34,0,0,1-.36-.36v-1.3a.19.19,0,0,0-.21-.21h-4.93c-.15,0-.22.07-.22.21v6.34a.2.2,0,0,0,.22.22h7.3a.2.2,0,0,0,.22-.22V69.36a.34.34,0,0,1,.36-.36h3.1a.33.33,0,0,1,.35.36v5.76a.33.33,0,0,1-.35.36H340.91a.34.34,0,0,1-.36-.36V72.31a.34.34,0,0,1,.36-.36h1.73a.19.19,0,0,0,.21-.21v-17c0-.15-.07-.22-.21-.22h-1.73a.34.34,0,0,1-.36-.36V51.36a.34.34,0,0,1,.36-.36Z"/><path class="cls-2" d="M381.87,51a.34.34,0,0,1,.36.36v5.76a.34.34,0,0,1-.36.36h-3.09a.34.34,0,0,1-.36-.36V55c0-.14-.07-.21-.22-.21h-3.67a.19.19,0,0,0-.22.21V71.74a.19.19,0,0,0,.22.21h1.87a.34.34,0,0,1,.36.36v2.81a.34.34,0,0,1-.36.36H368a.34.34,0,0,1-.36-.36V72.31A.34.34,0,0,1,368,72h1.87c.15,0,.22-.07.22-.21V55c0-.14-.07-.21-.22-.21h-3.67A.19.19,0,0,0,366,55v2.16a.34.34,0,0,1-.36.36h-3.09a.34.34,0,0,1-.36-.36V51.36a.34.34,0,0,1,.36-.36Z"/><path class="cls-2" d="M403.83,51a.34.34,0,0,1,.36.36v2.81a.34.34,0,0,1-.36.36h-1a.31.31,0,0,0-.25.18l-6.19,10.76v6.27a.19.19,0,0,0,.21.21h1.8a.35.35,0,0,1,.37.36v2.81a.34.34,0,0,1-.37.36h-8.27a.34.34,0,0,1-.36-.36V72.31a.34.34,0,0,1,.36-.36H392a.19.19,0,0,0,.21-.21V65.47L386,54.75a.41.41,0,0,0-.32-.22h-.9a.34.34,0,0,1-.36-.36V51.36a.34.34,0,0,1,.36-.36H392a.35.35,0,0,1,.36.36v2.81a.34.34,0,0,1-.36.36H390.7c-.18,0-.33.11-.22.32l3.82,6.84h.1l3.89-6.91c.07-.14,0-.25-.18-.25H396.6a.34.34,0,0,1-.36-.36V51.36a.34.34,0,0,1,.36-.36Z"/><path class="cls-2" d="M290.56,97.45a.31.31,0,0,1,.33.33v5.28a.31.31,0,0,1-.33.33h-2.84a.31.31,0,0,1-.33-.33v-2a.18.18,0,0,0-.2-.2h-3.36a.18.18,0,0,0-.2.2v15.38a.18.18,0,0,0,.2.2h1.71a.31.31,0,0,1,.33.33v2.57a.31.31,0,0,1-.33.33h-7.72a.31.31,0,0,1-.33-.33V117a.31.31,0,0,1,.33-.33h1.72c.13,0,.19-.07.19-.2V101.08c0-.13-.06-.2-.19-.2h-3.37a.18.18,0,0,0-.2.2v2a.31.31,0,0,1-.33.33H272.8a.31.31,0,0,1-.33-.33V97.78a.31.31,0,0,1,.33-.33Z"/><path class="cls-2" d="M300.29,97.45a.31.31,0,0,1,.33.33v2.58a.31.31,0,0,1-.33.32h-1.58a.18.18,0,0,0-.2.2v15.58a.18.18,0,0,0,.2.2h1.58a.31.31,0,0,1,.33.33v2.57a.31.31,0,0,1-.33.33h-7.45a.31.31,0,0,1-.33-.33V117a.31.31,0,0,1,.33-.33h1.58a.18.18,0,0,0,.2-.2V100.88a.18.18,0,0,0-.2-.2h-1.58a.31.31,0,0,1-.33-.32V97.78a.31.31,0,0,1,.33-.33Z"/><path class="cls-2" d="M313.63,97.45c4.35,0,7.39,2.81,7.39,7s-3,7-7.39,7h-4.49a.18.18,0,0,0-.2.2v4.85a.18.18,0,0,0,.2.2h2a.31.31,0,0,1,.33.33v2.57a.31.31,0,0,1-.33.33h-7.92a.31.31,0,0,1-.33-.33V117a.31.31,0,0,1,.33-.33h1.59a.18.18,0,0,0,.2-.2V100.88a.18.18,0,0,0-.2-.2h-1.59a.31.31,0,0,1-.33-.32V97.78a.31.31,0,0,1,.33-.33Zm-4.49,3.5a.18.18,0,0,0-.2.2v6.53a.18.18,0,0,0,.2.2h4.25c2.32,0,3.74-1.39,3.74-3.47s-1.42-3.46-3.74-3.46Z"/><path class="cls-2" d="M339.27,97.45a.31.31,0,0,1,.33.33v2.58a.31.31,0,0,1-.33.32h-1.58a.18.18,0,0,0-.2.2V116.2a.18.18,0,0,0,.2.2h6.14a.18.18,0,0,0,.2-.2v-2a.31.31,0,0,1,.33-.33h3a.31.31,0,0,1,.33.33v5.34a.31.31,0,0,1-.33.33H331.81a.31.31,0,0,1-.33-.33V117a.31.31,0,0,1,.33-.33h1.59a.18.18,0,0,0,.2-.2V100.88a.18.18,0,0,0-.2-.2h-1.59a.31.31,0,0,1-.33-.32V97.78a.31.31,0,0,1,.33-.33Z"/><path class="cls-2" d="M357.59,97.45a.31.31,0,0,1,.33.33v2.58a.31.31,0,0,1-.33.32H356c-.13,0-.19.07-.19.2v15.58c0,.13.06.2.19.2h1.59a.31.31,0,0,1,.33.33v2.57a.31.31,0,0,1-.33.33h-7.46a.31.31,0,0,1-.33-.33V117a.31.31,0,0,1,.33-.33h1.58a.18.18,0,0,0,.2-.2V100.88a.18.18,0,0,0-.2-.2h-1.58a.31.31,0,0,1-.33-.32V97.78a.31.31,0,0,1,.33-.33Z"/><path class="cls-2" d="M380.72,97.45a.31.31,0,0,1,.33.33v2.58a.31.31,0,0,1-.33.32h-1.58a.18.18,0,0,0-.2.2v18.68a.31.31,0,0,1-.33.33h-3a.58.58,0,0,1-.56-.33L366,104.12h-.13v12.34a.18.18,0,0,0,.2.2h1.58a.31.31,0,0,1,.33.33v2.57a.31.31,0,0,1-.33.33h-7.06a.31.31,0,0,1-.33-.33V117a.31.31,0,0,1,.33-.33h1.58a.18.18,0,0,0,.2-.2V100.88a.18.18,0,0,0-.2-.2h-1.58a.31.31,0,0,1-.33-.32V97.78a.31.31,0,0,1,.33-.33h5.11a.57.57,0,0,1,.56.33l9.08,15.48h.13V100.88a.18.18,0,0,0-.2-.2h-1.58a.31.31,0,0,1-.33-.32V97.78a.31.31,0,0,1,.33-.33Z"/><path class="cls-2" d="M399.63,97.45a.31.31,0,0,1,.33.33v5.12a.31.31,0,0,1-.33.33h-2.84a.31.31,0,0,1-.33-.33v-1.82a.18.18,0,0,0-.2-.2h-6.7c-.13,0-.19.07-.19.2v5.55a.17.17,0,0,0,.19.19h4.53a.17.17,0,0,0,.19-.19v-1.19a.31.31,0,0,1,.33-.33h2.74a.31.31,0,0,1,.33.33v6.2a.31.31,0,0,1-.33.33h-2.74a.31.31,0,0,1-.33-.33v-1.19a.17.17,0,0,0-.19-.19h-4.53a.17.17,0,0,0-.19.19v5.81c0,.14.06.2.19.2h6.7c.14,0,.2-.06.2-.2v-2a.31.31,0,0,1,.33-.33h2.84a.31.31,0,0,1,.33.33v5.28a.31.31,0,0,1-.33.33H383.69a.31.31,0,0,1-.33-.33V117a.31.31,0,0,1,.33-.33h1.58a.18.18,0,0,0,.2-.2V100.88a.18.18,0,0,0-.2-.2h-1.58a.31.31,0,0,1-.33-.32V97.78a.31.31,0,0,1,.33-.33Z"/><polygon class="cls-1" points="230.8 84.99 112.06 89.08 110.01 121.84 236.94 129 230.8 84.99"/><polygon points="229 78 220 42 220 43 127 52 127 85 229 78"/><polygon points="204 0 115 16 126 47 210 39 204 0"/><path class="cls-2" d="M125.77,98.6c3.17.13,4.94,1.92,4.82,4.77a4.35,4.35,0,0,1-3.25,4.13l1.9,4.52c0,.09.09.12.18.12l1,0a.23.23,0,0,1,.22.24l-.08,1.79a.21.21,0,0,1-.24.22l-2.82-.11a.33.33,0,0,1-.34-.25l-2.68-6.41-2.39-.1c-.09,0-.14,0-.14.13l-.17,4a.12.12,0,0,0,.14.14l1.1,0a.22.22,0,0,1,.22.24l-.07,1.79a.22.22,0,0,1-.24.22l-5.2-.21a.23.23,0,0,1-.22-.24l.08-1.8a.22.22,0,0,1,.24-.22l1.1,0c.09,0,.14,0,.14-.13l.45-10.85c0-.09,0-.14-.13-.14l-1.11,0a.22.22,0,0,1-.22-.24l.08-1.79a.22.22,0,0,1,.24-.22Zm-3.36,2.23c-.09,0-.14,0-.15.13l-.16,4.11c0,.09,0,.14.13.15l3.17.13a2.19,2.19,0,0,0,2.48-2.11,2.16,2.16,0,0,0-2.3-2.28Z"/><path class="cls-2" d="M143.92,99.34a.22.22,0,0,1,.22.24l-.14,3.56a.22.22,0,0,1-.24.22l-2-.08a.22.22,0,0,1-.22-.24l.05-1.26c0-.09,0-.14-.13-.15l-4.66-.19c-.1,0-.14,0-.15.13l-.16,3.87c0,.09,0,.13.14.14l3.14.13c.1,0,.14,0,.15-.13l0-.83a.22.22,0,0,1,.24-.22l1.91.08a.22.22,0,0,1,.22.24l-.18,4.32a.23.23,0,0,1-.24.22l-1.91-.08a.23.23,0,0,1-.22-.24l0-.83c0-.09,0-.14-.13-.14l-3.15-.13c-.09,0-.14,0-.15.13l-.16,4c0,.1,0,.14.13.15l4.66.19c.1,0,.14,0,.15-.13l0-1.38a.22.22,0,0,1,.24-.22l2,.08a.22.22,0,0,1,.22.24l-.15,3.67a.23.23,0,0,1-.24.23l-11.1-.46a.22.22,0,0,1-.22-.24l.08-1.79a.21.21,0,0,1,.23-.22l1.11,0a.12.12,0,0,0,.14-.13l.45-10.84c0-.1,0-.14-.13-.15l-1.11,0a.22.22,0,0,1-.22-.24l.08-1.79a.21.21,0,0,1,.23-.22Z"/><path class="cls-2" d="M153.35,99.73c3,.12,5.06,2.16,4.94,5.06s-2.31,4.78-5.34,4.66l-3.13-.13c-.09,0-.14,0-.14.13l-.14,3.38a.12.12,0,0,0,.13.14l1.42.06a.23.23,0,0,1,.23.24l-.08,1.79a.21.21,0,0,1-.24.22l-5.51-.22a.22.22,0,0,1-.22-.24l.07-1.79a.23.23,0,0,1,.24-.23l1.1,0c.1,0,.14,0,.15-.13l.44-10.85a.12.12,0,0,0-.13-.14l-1.1,0a.21.21,0,0,1-.22-.23l.07-1.8a.23.23,0,0,1,.24-.22ZM150.12,102a.12.12,0,0,0-.14.13l-.19,4.55c0,.09,0,.14.13.14l3,.12a2.42,2.42,0,1,0,.19-4.82Z"/><path class="cls-2" d="M171.63,104a12.76,12.76,0,0,1,.24,4.32,12.75,12.75,0,0,1-.59,4.28,5.94,5.94,0,0,1-11.05-.46,12.43,12.43,0,0,1-.24-4.31,12.65,12.65,0,0,1,.59-4.28,5.94,5.94,0,0,1,11,.45Zm-8.46.37a12.23,12.23,0,0,0-.42,3.57,12.31,12.31,0,0,0,.12,3.6,3.1,3.1,0,0,0,5.82.24,12.86,12.86,0,0,0,.42-3.58,12.34,12.34,0,0,0-.13-3.59,3.09,3.09,0,0,0-5.81-.24Z"/><path class="cls-2" d="M181.61,100.89c3.17.13,4.94,1.93,4.82,4.78a4.34,4.34,0,0,1-3.25,4.12l1.91,4.52a.17.17,0,0,0,.17.13l1,0a.22.22,0,0,1,.22.24l-.07,1.79a.22.22,0,0,1-.24.22l-2.83-.12a.32.32,0,0,1-.33-.24L180.36,110l-2.39-.09a.12.12,0,0,0-.14.13l-.16,4a.12.12,0,0,0,.13.14l1.1,0a.22.22,0,0,1,.22.24l-.07,1.8a.23.23,0,0,1-.24.22l-5.2-.22a.21.21,0,0,1-.21-.24l.07-1.79a.22.22,0,0,1,.24-.22l1.1.05a.12.12,0,0,0,.14-.14L175.4,103c0-.09,0-.14-.13-.14l-1.1,0a.22.22,0,0,1-.23-.24l.08-1.79a.21.21,0,0,1,.24-.22Zm-3.36,2.23a.12.12,0,0,0-.14.14l-.17,4.11a.12.12,0,0,0,.13.14l3.17.13a2.19,2.19,0,0,0,2.48-2.1,2.16,2.16,0,0,0-2.3-2.29Z"/><path class="cls-2" d="M200.48,101.67a.22.22,0,0,1,.22.24l-.15,3.67a.22.22,0,0,1-.24.22l-2-.08a.21.21,0,0,1-.22-.24l.06-1.37c0-.1,0-.15-.14-.15l-2.34-.1a.12.12,0,0,0-.14.14l-.44,10.7c0,.1,0,.14.13.15l1.19.05a.21.21,0,0,1,.22.24l-.07,1.79a.22.22,0,0,1-.24.22l-5.37-.22a.22.22,0,0,1-.22-.24l.07-1.79a.21.21,0,0,1,.24-.22l1.19,0c.09,0,.14,0,.15-.13l.44-10.7c0-.1,0-.14-.14-.15l-2.34-.09a.12.12,0,0,0-.14.13l-.06,1.38a.23.23,0,0,1-.24.22l-2-.09a.21.21,0,0,1-.21-.23l.15-3.68a.21.21,0,0,1,.24-.22Z"/><path class="cls-2" d="M212.06,102.15a.21.21,0,0,1,.22.23l-.07,1.8a.23.23,0,0,1-.24.22l-1.11-.05c-.09,0-.14,0-.14.13l-.44,10.85a.12.12,0,0,0,.13.14l1.1,0a.21.21,0,0,1,.22.24l-.07,1.79a.22.22,0,0,1-.24.22l-5.19-.22a.22.22,0,0,1-.23-.23l.08-1.8a.22.22,0,0,1,.24-.22l1.1,0c.09,0,.14,0,.14-.13l.45-10.85c0-.09,0-.14-.13-.14l-1.1,0a.22.22,0,0,1-.23-.24l.08-1.79a.22.22,0,0,1,.24-.22Z"/><path class="cls-2" d="M225.82,102.71a.22.22,0,0,1,.22.24l-.15,3.68a.22.22,0,0,1-.24.22l-2-.08a.22.22,0,0,1-.22-.24l0-1.38c0-.09,0-.14-.13-.15l-2.34-.09a.12.12,0,0,0-.14.13l-.44,10.71c0,.09,0,.14.13.14l1.19,0a.22.22,0,0,1,.22.24l-.07,1.79a.22.22,0,0,1-.24.22l-5.38-.22a.23.23,0,0,1-.22-.24l.08-1.79a.21.21,0,0,1,.24-.22l1.19,0a.12.12,0,0,0,.14-.14l.44-10.7c0-.09,0-.14-.13-.15l-2.34-.09a.12.12,0,0,0-.14.13l-.06,1.38a.22.22,0,0,1-.24.22l-2-.08a.23.23,0,0,1-.22-.24l.15-3.68a.23.23,0,0,1,.24-.22Z"/><path class="cls-2" d="M227.41,115.62a.21.21,0,0,1,.22.24l-.09,2.34a.22.22,0,0,1-.24.22l-2.3-.09a.22.22,0,0,1-.22-.24l.1-2.35a.22.22,0,0,1,.24-.22Z"/><path class="cls-2" d="M141.19,20.76a.26.26,0,0,1,.2.26l.43,3.17a.23.23,0,0,1-.21.27l-2.09.28a.23.23,0,0,1-.27-.21l-.2-1.45c0-.12,0-.16-.17-.19a6.34,6.34,0,0,0-2.43-.11c-1.79.24-2.53,1.19-2.36,2.45s.95,1.86,3.23,1.87h.87c3.18,0,5.1,1.35,5.48,4.13s-1.33,5.22-5.35,5.76a10.91,10.91,0,0,1-5.46-.57.31.31,0,0,1-.2-.27l-.44-3.23a.23.23,0,0,1,.21-.27l2.19-.3a.22.22,0,0,1,.26.21l.22,1.59a.15.15,0,0,0,.14.15,7.82,7.82,0,0,0,2.88.17c1.93-.26,2.93-1.27,2.73-2.74-.16-1.17-1-1.88-3.26-1.89h-.87c-3.17,0-5.08-1.23-5.46-4.06-.41-3,1.47-5,5-5.52A10.72,10.72,0,0,1,141.19,20.76Z"/><path class="cls-2" d="M155.48,17.93a.23.23,0,0,1,.27.21l.5,3.69a.23.23,0,0,1-.21.27l-2,.27a.22.22,0,0,1-.27-.2l-.18-1.31a.13.13,0,0,0-.16-.13l-4.83.66c-.1,0-.14.06-.12.16l.54,4a.13.13,0,0,0,.16.13l3.26-.44a.13.13,0,0,0,.12-.16l-.12-.86a.24.24,0,0,1,.21-.27l2-.27a.22.22,0,0,1,.26.21l.61,4.47a.23.23,0,0,1-.21.27l-2,.27a.23.23,0,0,1-.27-.21l-.12-.85a.13.13,0,0,0-.16-.13l-3.26.44a.13.13,0,0,0-.12.16l.57,4.19c0,.1.06.14.16.12l4.83-.65a.13.13,0,0,0,.12-.16l-.19-1.43a.23.23,0,0,1,.2-.27l2.05-.27a.23.23,0,0,1,.27.2l.51,3.81a.23.23,0,0,1-.2.27l-11.49,1.55a.23.23,0,0,1-.27-.21l-.25-1.85a.23.23,0,0,1,.2-.27l1.14-.15a.14.14,0,0,0,.13-.17l-1.52-11.22a.13.13,0,0,0-.16-.13l-1.14.16a.23.23,0,0,1-.27-.21l-.25-1.85a.22.22,0,0,1,.2-.27Z"/><path class="cls-2" d="M169.25,16.07a.23.23,0,0,1,.27.21L170,20a.22.22,0,0,1-.21.27l-2,.28a.23.23,0,0,1-.27-.2L167.32,19a.13.13,0,0,0-.16-.13l-4.83.66a.12.12,0,0,0-.12.16l.54,4a.13.13,0,0,0,.16.13l3.26-.44a.13.13,0,0,0,.12-.16l-.12-.86a.24.24,0,0,1,.21-.27l2-.27a.23.23,0,0,1,.27.21l.6,4.47a.23.23,0,0,1-.21.27l-2,.27a.23.23,0,0,1-.27-.21l-.12-.86c0-.09-.06-.13-.16-.12l-3.26.44a.13.13,0,0,0-.12.16l.57,4.19a.12.12,0,0,0,.16.12l4.83-.65a.13.13,0,0,0,.12-.16l-.19-1.43a.23.23,0,0,1,.2-.27l2.05-.27a.23.23,0,0,1,.27.2l.51,3.81a.23.23,0,0,1-.2.27L160,33.8a.22.22,0,0,1-.27-.21l-.25-1.85a.23.23,0,0,1,.2-.27l1.15-.16c.09,0,.13-.06.12-.16l-1.52-11.23a.13.13,0,0,0-.16-.12l-1.14.16a.23.23,0,0,1-.27-.21l-.25-1.86a.23.23,0,0,1,.2-.27Z"/><path class="cls-2" d="M182.33,14.3a.23.23,0,0,1,.27.21l.25,1.85a.23.23,0,0,1-.2.28l-1.15.15a.13.13,0,0,0-.12.16l1.52,11.23a.12.12,0,0,0,.16.12l1.14-.15a.23.23,0,0,1,.27.2l.25,1.86a.23.23,0,0,1-.2.27l-5.38.73a.24.24,0,0,1-.27-.21l-.25-1.86a.23.23,0,0,1,.21-.27l1.14-.15a.13.13,0,0,0,.12-.16l-1.52-11.23c0-.09-.06-.13-.16-.12l-1.14.15a.23.23,0,0,1-.27-.2l-.25-1.86A.23.23,0,0,1,177,15Z"/><path class="cls-2" d="M196.58,12.38a.23.23,0,0,1,.27.2l.51,3.81a.23.23,0,0,1-.2.27l-2,.28a.23.23,0,0,1-.27-.21l-.19-1.43a.13.13,0,0,0-.16-.12l-2.43.33c-.1,0-.14.06-.12.16l1.49,11.08a.14.14,0,0,0,.17.13l1.23-.17a.22.22,0,0,1,.27.21l.25,1.85a.23.23,0,0,1-.2.27l-5.57.75a.23.23,0,0,1-.27-.2l-.25-1.86a.23.23,0,0,1,.21-.27l1.23-.16a.14.14,0,0,0,.13-.17l-1.5-11.08a.12.12,0,0,0-.16-.12l-2.43.32a.14.14,0,0,0-.12.17l.19,1.42a.22.22,0,0,1-.2.27l-2,.28a.23.23,0,0,1-.27-.21l-.51-3.8a.23.23,0,0,1,.2-.27Z"/><path class="cls-2" d="M200.56,25.36a.23.23,0,0,1,.27.2l.33,2.43a.23.23,0,0,1-.21.27l-2.38.32a.23.23,0,0,1-.27-.21L198,26a.23.23,0,0,1,.21-.27Z"/><path class="cls-2" d="M147.33,60.23a.21.21,0,0,1,.25.21l.14,1.78a.22.22,0,0,1-.21.25l-1.1.09c-.09,0-.14,0-.13.15l.85,10.82c0,.09.05.13.14.12l1.1-.08a.22.22,0,0,1,.25.21l.14,1.79a.21.21,0,0,1-.21.24l-5.18.41a.22.22,0,0,1-.25-.21L143,74.22a.22.22,0,0,1,.21-.25l1.1-.08c.1,0,.14-.06.13-.15l-.32-4.15c0-.09-.06-.14-.15-.13l-5.64.44c-.09,0-.14.06-.13.15l.33,4.15c0,.09.05.13.14.13l1.1-.09a.22.22,0,0,1,.25.21l.14,1.79a.22.22,0,0,1-.21.25l-5.18.4a.22.22,0,0,1-.25-.21l-.14-1.79a.22.22,0,0,1,.21-.24l1.1-.09c.1,0,.14-.06.13-.15L135,63.59c0-.09,0-.13-.14-.13l-1.1.09a.22.22,0,0,1-.25-.21l-.14-1.79a.22.22,0,0,1,.21-.25l5.18-.4a.22.22,0,0,1,.25.21l.14,1.79a.22.22,0,0,1-.21.25l-1.1.08c-.09,0-.14.06-.13.15l.31,4a.13.13,0,0,0,.15.13l5.64-.45c.09,0,.13,0,.13-.14l-.32-4a.12.12,0,0,0-.14-.13l-1.1.09a.22.22,0,0,1-.25-.22l-.14-1.78a.22.22,0,0,1,.21-.25Z"/><path class="cls-2" d="M160.29,59.21a.21.21,0,0,1,.24.21l.28,3.56a.23.23,0,0,1-.21.25l-2,.15a.22.22,0,0,1-.25-.21l-.1-1.26a.12.12,0,0,0-.14-.13l-4.66.36a.12.12,0,0,0-.12.15l.3,3.85c0,.1.05.14.14.13l3.14-.25c.1,0,.14,0,.13-.14l-.06-.83a.22.22,0,0,1,.21-.25l1.9-.14a.21.21,0,0,1,.25.21l.33,4.31a.21.21,0,0,1-.21.24l-1.9.15a.22.22,0,0,1-.25-.21l-.06-.82c0-.1-.06-.14-.15-.13l-3.14.24a.13.13,0,0,0-.13.15l.32,4a.12.12,0,0,0,.15.12L159,72.6a.13.13,0,0,0,.13-.15L159,71.08a.22.22,0,0,1,.21-.25l2-.15a.21.21,0,0,1,.25.21l.29,3.66a.22.22,0,0,1-.21.25l-11.08.87a.22.22,0,0,1-.24-.21l-.14-1.79a.21.21,0,0,1,.21-.25l1.1-.08a.12.12,0,0,0,.12-.15l-.84-10.82c0-.1-.06-.14-.15-.13l-1.1.08a.21.21,0,0,1-.25-.21L149,60.32a.22.22,0,0,1,.21-.24Z"/><path class="cls-2" d="M170.22,58.44a.29.29,0,0,1,.31.2l5.53,12.65a.15.15,0,0,0,.17.1l.69,0a.22.22,0,0,1,.25.21l.14,1.79a.22.22,0,0,1-.21.24l-4.7.37a.22.22,0,0,1-.25-.21L172,72a.22.22,0,0,1,.21-.25l1-.07a.12.12,0,0,0,.1-.17l-.85-2-5.29.42-.51,2a.12.12,0,0,0,.13.18l.94-.07a.22.22,0,0,1,.25.21l.13,1.78a.21.21,0,0,1-.21.25l-4.67.37a.22.22,0,0,1-.25-.21l-.14-1.79a.22.22,0,0,1,.21-.25l.76-.06c.09,0,.13,0,.17-.15l3.53-13.33a.29.29,0,0,1,.28-.25Zm-2.43,9,3.71-.29L169.29,62h-.07Z"/><path class="cls-2" d="M184.62,57.31c3.16-.24,5.13,1.33,5.35,4.17A4.35,4.35,0,0,1,187.23,66l2.43,4.26a.19.19,0,0,0,.2.1l1-.08a.21.21,0,0,1,.24.21l.14,1.79a.21.21,0,0,1-.21.24l-2.82.22a.31.31,0,0,1-.36-.2l-3.43-6.05-2.38.18a.13.13,0,0,0-.13.15l.32,4a.12.12,0,0,0,.14.13l1.1-.09a.22.22,0,0,1,.25.21l.14,1.79a.22.22,0,0,1-.21.25l-5.18.4a.21.21,0,0,1-.25-.21l-.14-1.78a.22.22,0,0,1,.21-.25l1.1-.09c.1,0,.14,0,.13-.15l-.85-10.82c0-.09,0-.13-.14-.12l-1.1.08a.22.22,0,0,1-.25-.21l-.14-1.79a.21.21,0,0,1,.21-.24Zm-3.07,2.62c-.1,0-.14,0-.13.15l.32,4.1a.13.13,0,0,0,.15.13l3.16-.25a2.2,2.2,0,1,0-.34-4.38Z"/><path class="cls-2" d="M202.07,56a.23.23,0,0,1,.25.21l.13,1.79a.22.22,0,0,1-.21.25l-1.1.08a.12.12,0,0,0-.12.15l.84,10.82a.13.13,0,0,0,.15.13l1.1-.09a.22.22,0,0,1,.25.21l.14,1.79a.22.22,0,0,1-.22.25l-5.18.4a.21.21,0,0,1-.24-.21l-.14-1.79a.21.21,0,0,1,.21-.24l1.1-.09a.13.13,0,0,0,.13-.15l-.85-10.82a.13.13,0,0,0-.15-.13l-1.1.09a.21.21,0,0,1-.24-.21l-.14-1.79a.21.21,0,0,1,.21-.25Z"/><path class="cls-2" d="M215.8,54.88a.22.22,0,0,1,.25.21l.28,3.67a.21.21,0,0,1-.21.24l-2,.16a.23.23,0,0,1-.25-.21l-.1-1.38a.13.13,0,0,0-.15-.13l-2.34.19c-.09,0-.13,0-.13.14L212,68.46c0,.09,0,.13.15.12l1.19-.09a.22.22,0,0,1,.25.21l.14,1.79a.22.22,0,0,1-.22.25l-5.36.42a.22.22,0,0,1-.25-.21l-.14-1.79a.22.22,0,0,1,.21-.25l1.2-.09a.12.12,0,0,0,.12-.15L208.48,58c0-.1-.06-.14-.15-.13L206,58a.13.13,0,0,0-.13.15l.11,1.38a.21.21,0,0,1-.21.24l-2,.16a.22.22,0,0,1-.25-.21l-.28-3.67a.21.21,0,0,1,.21-.25Z"/><path class="cls-2" d="M218.91,67.5a.22.22,0,0,1,.25.22l.18,2.33a.22.22,0,0,1-.21.25l-2.29.18a.22.22,0,0,1-.25-.21l-.18-2.34a.22.22,0,0,1,.21-.25Z"/><rect y="140" width="450" height="37"/><path class="cls-2" d="M16.67,149.88c3.31,0,4.87,1.66,4.87,4.16a3.46,3.46,0,0,1-1.81,3.31v.05a3.7,3.7,0,0,1,2.09,3.52c0,3.1-1.95,4.6-5.38,4.6H9.61a.22.22,0,0,1-.23-.23v-1.8a.22.22,0,0,1,.23-.23h1.1c.1,0,.14,0,.14-.13V152.27a.12.12,0,0,0-.14-.14H9.61a.22.22,0,0,1-.23-.23v-1.79a.22.22,0,0,1,.23-.23Zm-3,2.37a.13.13,0,0,0-.14.14v3.86a.13.13,0,0,0,.14.14h2.94a2.08,2.08,0,1,0,0-4.14Zm0,6.53a.13.13,0,0,0-.14.14V163a.13.13,0,0,0,.14.14h3.08a2.13,2.13,0,0,0,2.37-2.21,2.1,2.1,0,0,0-2.37-2.16Z"/><path class="cls-2" d="M34.7,149.88a.22.22,0,0,1,.23.23v3.57a.22.22,0,0,1-.23.23h-2a.23.23,0,0,1-.23-.23v-1.27c0-.09,0-.14-.13-.14H27.69a.13.13,0,0,0-.14.14v3.86a.12.12,0,0,0,.14.14h3.15a.12.12,0,0,0,.14-.14v-.82a.22.22,0,0,1,.23-.23h1.9a.22.22,0,0,1,.23.23v4.32a.22.22,0,0,1-.23.23h-1.9a.22.22,0,0,1-.23-.23v-.83a.13.13,0,0,0-.14-.14H27.69a.13.13,0,0,0-.14.14V163a.13.13,0,0,0,.14.14h4.67c.09,0,.13,0,.13-.14v-1.38a.22.22,0,0,1,.23-.23h2a.22.22,0,0,1,.23.23v3.68a.22.22,0,0,1-.23.23H23.59a.22.22,0,0,1-.23-.23v-1.8a.23.23,0,0,1,.23-.23H24.7c.09,0,.14,0,.14-.13V152.27a.13.13,0,0,0-.14-.14H23.59a.22.22,0,0,1-.23-.23v-1.79a.22.22,0,0,1,.23-.23Z"/><path class="cls-2" d="M49.21,149.88c3.32,0,4.88,1.66,4.88,4.16a3.47,3.47,0,0,1-1.82,3.31v.05a3.69,3.69,0,0,1,2.09,3.52c0,3.1-2,4.6-5.38,4.6H42.15a.22.22,0,0,1-.23-.23v-1.8a.23.23,0,0,1,.23-.23h1.11c.09,0,.14,0,.14-.13V152.27a.13.13,0,0,0-.14-.14H42.15a.22.22,0,0,1-.23-.23v-1.79a.22.22,0,0,1,.23-.23Zm-3,2.37c-.09,0-.13.05-.13.14v3.86c0,.09,0,.14.13.14h3a2.08,2.08,0,1,0,0-4.14Zm0,6.53c-.09,0-.13.05-.13.14V163c0,.09,0,.14.13.14h3.09a2.12,2.12,0,0,0,2.36-2.21,2.1,2.1,0,0,0-2.36-2.16Z"/><path class="cls-2" d="M67.8,153.4a12.76,12.76,0,0,1,.41,4.3,12.76,12.76,0,0,1-.41,4.3,5.38,5.38,0,0,1-5.54,3.77A5.36,5.36,0,0,1,56.74,162a12.41,12.41,0,0,1-.42-4.3,12.41,12.41,0,0,1,.42-4.3,5.36,5.36,0,0,1,5.52-3.77A5.38,5.38,0,0,1,67.8,153.4Zm-8.44.71a12.11,12.11,0,0,0-.28,3.59,12.21,12.21,0,0,0,.28,3.59,3.1,3.1,0,0,0,5.82,0,12.77,12.77,0,0,0,.27-3.59,12.67,12.67,0,0,0-.27-3.59,3.1,3.1,0,0,0-5.82,0Z"/><path class="cls-2" d="M75.48,149.88a.22.22,0,0,1,.23.23v1.79a.22.22,0,0,1-.23.23h-1.1a.12.12,0,0,0-.14.14v10.67a.12.12,0,0,0,.14.14h4.27a.12.12,0,0,0,.14-.14v-1.38a.22.22,0,0,1,.23-.23h2.07a.22.22,0,0,1,.23.23v3.73a.22.22,0,0,1-.23.23H70.28a.22.22,0,0,1-.23-.23v-1.8a.23.23,0,0,1,.23-.23h1.11c.09,0,.14,0,.14-.13V152.27a.13.13,0,0,0-.14-.14H70.28a.22.22,0,0,1-.23-.23v-1.79a.22.22,0,0,1,.23-.23Z"/><path class="cls-2" d="M89.79,149.88c2.69,0,4.48,1.2,5.22,3.47a13.58,13.58,0,0,1,.39,4.35,13.63,13.63,0,0,1-.39,4.35c-.74,2.27-2.53,3.47-5.22,3.47H82.86a.22.22,0,0,1-.23-.23v-1.8a.23.23,0,0,1,.23-.23H84c.09,0,.14,0,.14-.13V152.27a.13.13,0,0,0-.14-.14H82.86a.22.22,0,0,1-.23-.23v-1.79a.22.22,0,0,1,.23-.23ZM87,152.32a.12.12,0,0,0-.14.14v10.48a.13.13,0,0,0,.14.14h2.18c1.73,0,2.78-.57,3.24-2a10.35,10.35,0,0,0,.28-3.4,10.2,10.2,0,0,0-.28-3.4c-.46-1.41-1.51-2-3.24-2Z"/><path class="cls-2" d="M107.35,159.67a2.64,2.64,0,1,1-2.64-2.64A2.54,2.54,0,0,1,107.35,159.67Z"/><path class="cls-2" d="M124.3,150.73a.26.26,0,0,1,.16.28v3.06a.22.22,0,0,1-.23.23h-2a.22.22,0,0,1-.23-.23v-1.41c0-.11,0-.16-.14-.2a5.91,5.91,0,0,0-2.3-.42c-1.72,0-2.55.81-2.55,2s.67,1.88,2.83,2.18l.83.12c3,.41,4.66,1.93,4.66,4.62s-1.93,4.78-5.81,4.78a10.42,10.42,0,0,1-5.11-1.24.3.3,0,0,1-.16-.28v-3.12a.22.22,0,0,1,.23-.23h2.12a.22.22,0,0,1,.23.23v1.54a.15.15,0,0,0,.11.16,7.59,7.59,0,0,0,2.71.53c1.87,0,3-.83,3-2.26,0-1.12-.69-1.91-2.85-2.21l-.83-.11c-3-.41-4.67-1.82-4.67-4.55,0-2.92,2-4.6,5.47-4.6A10.3,10.3,0,0,1,124.3,150.73Z"/><path class="cls-2" d="M134.35,149.88c3,0,5.15,2,5.15,4.85s-2.11,4.88-5.15,4.88h-3.12c-.1,0-.14,0-.14.14v3.38c0,.09,0,.13.14.13h1.42a.22.22,0,0,1,.23.23v1.8a.22.22,0,0,1-.23.23h-5.52a.22.22,0,0,1-.23-.23v-1.8a.23.23,0,0,1,.23-.23h1.11c.09,0,.13,0,.13-.13V152.27c0-.09,0-.14-.13-.14h-1.11a.22.22,0,0,1-.23-.23v-1.79a.22.22,0,0,1,.23-.23Zm-3.12,2.44c-.1,0-.14,0-.14.14V157a.12.12,0,0,0,.14.14h3a2.42,2.42,0,1,0,0-4.83Z"/><path class="cls-2" d="M152.25,149.88a.22.22,0,0,1,.23.23v3.57a.23.23,0,0,1-.23.23h-2a.22.22,0,0,1-.23-.23v-1.27a.13.13,0,0,0-.14-.14h-4.67a.13.13,0,0,0-.14.14v3.86a.12.12,0,0,0,.14.14h3.15c.1,0,.14,0,.14-.14v-.82a.22.22,0,0,1,.23-.23h1.91a.22.22,0,0,1,.23.23v4.32a.22.22,0,0,1-.23.23h-1.91a.22.22,0,0,1-.23-.23v-.83a.12.12,0,0,0-.14-.14h-3.15a.13.13,0,0,0-.14.14V163a.13.13,0,0,0,.14.14h4.67A.13.13,0,0,0,150,163v-1.38a.22.22,0,0,1,.23-.23h2a.22.22,0,0,1,.23.23v3.68a.22.22,0,0,1-.23.23H141.14a.22.22,0,0,1-.23-.23v-1.8a.22.22,0,0,1,.23-.23h1.1c.1,0,.14,0,.14-.13V152.27a.12.12,0,0,0-.14-.14h-1.1a.22.22,0,0,1-.23-.23v-1.79a.22.22,0,0,1,.23-.23Z"/><path class="cls-2" d="M162.21,149.88a.3.3,0,0,1,.3.23l4.53,13a.14.14,0,0,0,.16.11h.69a.23.23,0,0,1,.23.23v1.8a.22.22,0,0,1-.23.23h-4.72a.22.22,0,0,1-.23-.23v-1.8a.22.22,0,0,1,.23-.23h1c.09,0,.14-.06.12-.16l-.69-2h-5.32l-.66,2c-.05.12,0,.18.11.18h.94a.22.22,0,0,1,.23.23v1.8a.22.22,0,0,1-.23.23H154a.22.22,0,0,1-.23-.23v-1.8a.23.23,0,0,1,.23-.23h.76a.18.18,0,0,0,.19-.13l4.55-13a.3.3,0,0,1,.3-.23Zm-3.13,8.83h3.72l-1.79-5.4h-.07Z"/><path class="cls-2" d="M182.17,149.88a.22.22,0,0,1,.23.23v1.79a.22.22,0,0,1-.23.23h-.94a.25.25,0,0,0-.21.1l-3.52,4,3.84,6.92a.24.24,0,0,0,.23.11h1.15a.22.22,0,0,1,.23.23v1.8a.22.22,0,0,1-.23.23h-2.8a.34.34,0,0,1-.35-.19l-3.89-7.08L173.25,161v2.12c0,.09,0,.13.13.13h1.11a.22.22,0,0,1,.23.23v1.8a.22.22,0,0,1-.23.23h-5.2a.22.22,0,0,1-.23-.23v-1.8a.22.22,0,0,1,.23-.23h1.11c.09,0,.13,0,.13-.13V152.27c0-.09,0-.14-.13-.14h-1.11a.22.22,0,0,1-.23-.23v-1.79a.22.22,0,0,1,.23-.23h5.2a.22.22,0,0,1,.23.23v1.79a.22.22,0,0,1-.23.23h-1.11c-.09,0-.13.05-.13.14v5.27l4.78-5.29a.07.07,0,0,0-.05-.12h-.62a.22.22,0,0,1-.23-.23v-1.79a.22.22,0,0,1,.23-.23Z"/><path class="cls-2" d="M203.28,149.88a.22.22,0,0,1,.23.23v1.79a.22.22,0,0,1-.23.23h-1.06c-.09,0-.13.05-.13.14V160a5.74,5.74,0,1,1-11.48,0v-7.75a.12.12,0,0,0-.14-.14h-1.05a.22.22,0,0,1-.23-.23v-1.79a.22.22,0,0,1,.23-.23h5.1a.22.22,0,0,1,.23.23v1.79a.22.22,0,0,1-.23.23h-1.06c-.09,0-.13.05-.13.14V160c0,2.16,1.24,3.35,3,3.35s3-1.19,3-3.35v-7.71c0-.09,0-.14-.13-.14h-1.06a.22.22,0,0,1-.23-.23v-1.79a.22.22,0,0,1,.23-.23Z"/><path class="cls-2" d="M212,149.88c3,0,5.15,2,5.15,4.85s-2.11,4.88-5.15,4.88H208.9c-.1,0-.14,0-.14.14v3.38c0,.09,0,.13.14.13h1.42a.22.22,0,0,1,.23.23v1.8a.22.22,0,0,1-.23.23H204.8a.22.22,0,0,1-.23-.23v-1.8a.23.23,0,0,1,.23-.23h1.11c.09,0,.14,0,.14-.13V152.27a.13.13,0,0,0-.14-.14H204.8a.22.22,0,0,1-.23-.23v-1.79a.22.22,0,0,1,.23-.23Zm-3.12,2.44c-.1,0-.14,0-.14.14V157a.12.12,0,0,0,.14.14h3a2.42,2.42,0,1,0,0-4.83Z"/><path class="cls-2" d="M228.64,159.67A2.64,2.64,0,1,1,226,157,2.54,2.54,0,0,1,228.64,159.67Z"/><path class="cls-2" d="M246.22,149.88a.22.22,0,0,1,.23.23v3.57a.22.22,0,0,1-.23.23h-2a.22.22,0,0,1-.23-.23v-1.27a.13.13,0,0,0-.14-.14H239.2c-.09,0-.13,0-.13.14v3.86c0,.1,0,.14.13.14h3.16c.09,0,.13,0,.13-.14v-.82a.22.22,0,0,1,.23-.23h1.91a.22.22,0,0,1,.23.23v4.32a.22.22,0,0,1-.23.23h-1.91a.22.22,0,0,1-.23-.23v-.83c0-.09,0-.14-.13-.14H239.2c-.09,0-.13,0-.13.14V163c0,.09,0,.14.13.14h4.67A.13.13,0,0,0,244,163v-1.38a.22.22,0,0,1,.23-.23h2a.22.22,0,0,1,.23.23v3.68a.22.22,0,0,1-.23.23H235.11a.22.22,0,0,1-.23-.23v-1.8a.22.22,0,0,1,.23-.23h1.11c.09,0,.13,0,.13-.13V152.27c0-.09,0-.14-.13-.14h-1.11a.22.22,0,0,1-.23-.23v-1.79a.22.22,0,0,1,.23-.23Z"/><path class="cls-2" d="M262.48,149.88a.22.22,0,0,1,.23.23v1.79a.22.22,0,0,1-.23.23h-1.11c-.09,0-.13.05-.13.14v13a.22.22,0,0,1-.23.23h-2.07a.4.4,0,0,1-.39-.23l-6.35-10.76h-.09v8.6c0,.09,0,.13.14.13h1.1a.22.22,0,0,1,.23.23v1.8a.22.22,0,0,1-.23.23h-4.92a.22.22,0,0,1-.23-.23v-1.8a.22.22,0,0,1,.23-.23h1.1c.09,0,.14,0,.14-.13V152.27a.13.13,0,0,0-.14-.14h-1.1a.22.22,0,0,1-.23-.23v-1.79a.22.22,0,0,1,.23-.23H252a.4.4,0,0,1,.39.23l6.33,10.79h.09v-8.63a.13.13,0,0,0-.14-.14h-1.1a.22.22,0,0,1-.23-.23v-1.79a.22.22,0,0,1,.23-.23Z"/><path class="cls-2" d="M271.29,149.88c2.69,0,4.48,1.2,5.22,3.47a13.58,13.58,0,0,1,.39,4.35,13.63,13.63,0,0,1-.39,4.35c-.74,2.27-2.53,3.47-5.22,3.47h-6.92a.22.22,0,0,1-.23-.23v-1.8a.22.22,0,0,1,.23-.23h1.1c.09,0,.14,0,.14-.13V152.27a.13.13,0,0,0-.14-.14h-1.1a.22.22,0,0,1-.23-.23v-1.79a.22.22,0,0,1,.23-.23Zm-2.83,2.44a.12.12,0,0,0-.14.14v10.48a.13.13,0,0,0,.14.14h2.18c1.73,0,2.79-.57,3.25-2a10.85,10.85,0,0,0,.27-3.4,10.7,10.7,0,0,0-.27-3.4c-.46-1.41-1.52-2-3.25-2Z"/><path class="cls-2" d="M291.32,149.88c3.31,0,4.88,1.66,4.88,4.16a3.47,3.47,0,0,1-1.82,3.31v.05a3.7,3.7,0,0,1,2.09,3.52c0,3.1-2,4.6-5.38,4.6h-6.83a.22.22,0,0,1-.23-.23v-1.8a.22.22,0,0,1,.23-.23h1.11c.09,0,.13,0,.13-.13V152.27c0-.09,0-.14-.13-.14h-1.11a.22.22,0,0,1-.23-.23v-1.79a.22.22,0,0,1,.23-.23Zm-3,2.37a.13.13,0,0,0-.14.14v3.86a.13.13,0,0,0,.14.14h2.95a2.08,2.08,0,1,0,0-4.14Zm0,6.53a.13.13,0,0,0-.14.14V163a.13.13,0,0,0,.14.14h3.08a2.13,2.13,0,0,0,2.37-2.21,2.1,2.1,0,0,0-2.37-2.16Z"/><path class="cls-2" d="M311.74,149.88a.22.22,0,0,1,.23.23v1.79a.22.22,0,0,1-.23.23h-1.05a.12.12,0,0,0-.14.14V160a5.74,5.74,0,1,1-11.48,0v-7.75c0-.09,0-.14-.13-.14h-1.06a.22.22,0,0,1-.23-.23v-1.79a.22.22,0,0,1,.23-.23H303a.22.22,0,0,1,.23.23v1.79a.22.22,0,0,1-.23.23h-1.06c-.09,0-.13.05-.13.14V160c0,2.16,1.24,3.35,3,3.35s3-1.19,3-3.35v-7.71c0-.09,0-.14-.13-.14h-1.06a.22.22,0,0,1-.23-.23v-1.79a.22.22,0,0,1,.23-.23Z"/><path class="cls-2" d="M318.46,149.88a.22.22,0,0,1,.23.23v1.79a.22.22,0,0,1-.23.23h-1.1a.13.13,0,0,0-.14.14v10.67a.13.13,0,0,0,.14.14h4.27a.12.12,0,0,0,.14-.14v-1.38a.22.22,0,0,1,.23-.23h2.07a.22.22,0,0,1,.23.23v3.73a.22.22,0,0,1-.23.23H313.26a.22.22,0,0,1-.23-.23v-1.8a.23.23,0,0,1,.23-.23h1.11c.09,0,.14,0,.14-.13V152.27a.13.13,0,0,0-.14-.14h-1.11a.22.22,0,0,1-.23-.23v-1.79a.22.22,0,0,1,.23-.23Z"/><path class="cls-2" d="M331,149.88a.22.22,0,0,1,.23.23v1.79a.22.22,0,0,1-.23.23h-1.1a.13.13,0,0,0-.14.14v10.67a.13.13,0,0,0,.14.14h4.28c.09,0,.13-.05.13-.14v-1.38a.23.23,0,0,1,.23-.23h2.07a.22.22,0,0,1,.23.23v3.73a.22.22,0,0,1-.23.23h-10.8a.22.22,0,0,1-.23-.23v-1.8a.22.22,0,0,1,.23-.23H327c.09,0,.14,0,.14-.13V152.27a.13.13,0,0,0-.14-.14h-1.1a.22.22,0,0,1-.23-.23v-1.79a.22.22,0,0,1,.23-.23Z"/><path class="cls-2" d="M348.61,149.88a.22.22,0,0,1,.23.23v1.79a.22.22,0,0,1-.23.23H348c-.07,0-.11.05-.16.12l-3.95,6.88v4c0,.09,0,.13.13.13h1.15a.22.22,0,0,1,.23.23v1.8a.22.22,0,0,1-.23.23h-5.29a.22.22,0,0,1-.23-.23v-1.8a.23.23,0,0,1,.23-.23H341c.1,0,.14,0,.14-.13v-4l-4-6.86a.28.28,0,0,0-.21-.14h-.57a.22.22,0,0,1-.23-.23v-1.79a.22.22,0,0,1,.23-.23h4.64a.22.22,0,0,1,.23.23v1.79a.22.22,0,0,1-.23.23h-.85c-.12,0-.21.07-.14.21l2.44,4.37h.07l2.48-4.41a.11.11,0,0,0-.11-.17h-1a.22.22,0,0,1-.23-.23v-1.79a.22.22,0,0,1,.23-.23Z"/><path class="cls-2" d="M355.17,149.88a.22.22,0,0,1,.23.23v1.79a.22.22,0,0,1-.23.23h-1.1a.12.12,0,0,0-.14.14v10.86c0,.09,0,.13.14.13h1.1a.22.22,0,0,1,.23.23v1.8a.22.22,0,0,1-.23.23H350a.22.22,0,0,1-.23-.23v-1.8a.22.22,0,0,1,.23-.23h1.11c.09,0,.13,0,.13-.13V152.27c0-.09,0-.14-.13-.14H350a.22.22,0,0,1-.23-.23v-1.79a.22.22,0,0,1,.23-.23Z"/><path class="cls-2" d="M371.11,149.88a.22.22,0,0,1,.23.23v1.79a.22.22,0,0,1-.23.23H370a.13.13,0,0,0-.14.14v13a.22.22,0,0,1-.23.23h-2.07a.42.42,0,0,1-.39-.23l-6.34-10.76h-.1v8.6c0,.09,0,.13.14.13H362a.23.23,0,0,1,.23.23v1.8a.22.22,0,0,1-.23.23h-4.92a.22.22,0,0,1-.23-.23v-1.8a.22.22,0,0,1,.23-.23h1.1c.09,0,.14,0,.14-.13V152.27a.13.13,0,0,0-.14-.14h-1.1a.22.22,0,0,1-.23-.23v-1.79a.22.22,0,0,1,.23-.23h3.56a.41.41,0,0,1,.39.23l6.32,10.79h.1v-8.63a.13.13,0,0,0-.14-.14h-1.11a.21.21,0,0,1-.22-.23v-1.79a.21.21,0,0,1,.22-.23Z"/><path class="cls-2" d="M384.42,151.15a.35.35,0,0,1,.16.32v2.76a.22.22,0,0,1-.23.23h-2.07a.22.22,0,0,1-.23-.23v-1.36a.17.17,0,0,0-.09-.18,4.41,4.41,0,0,0-2.41-.62c-1.93,0-2.81.82-3.24,2.09a10.74,10.74,0,0,0-.37,3.59,11.51,11.51,0,0,0,.3,3.54c.43,1.26,1.29,2,3.19,2a4.81,4.81,0,0,0,2.56-.55c.18-.11.23-.18.23-.37v-3.06c0-.09-.05-.13-.14-.13h-2.49a.22.22,0,0,1-.23-.23v-1.84a.22.22,0,0,1,.23-.23h5a.22.22,0,0,1,.23.23v6.6a.55.55,0,0,1-.3.55,8.7,8.7,0,0,1-5.15,1.47c-3.15,0-5-1.17-5.82-3.66a13.33,13.33,0,0,1-.39-4.36,12.46,12.46,0,0,1,.44-4.33c.8-2.48,2.85-3.79,6-3.79A7.82,7.82,0,0,1,384.42,151.15Z"/><path class="cls-2" d="M406.43,149.88a.22.22,0,0,1,.23.23v1.79a.22.22,0,0,1-.23.23h-1.1a.13.13,0,0,0-.14.14v13a.22.22,0,0,1-.23.23h-2.07a.41.41,0,0,1-.39-.23l-6.35-10.76h-.09v8.6c0,.09.05.13.14.13h1.1a.22.22,0,0,1,.23.23v1.8a.22.22,0,0,1-.23.23h-4.92a.22.22,0,0,1-.23-.23v-1.8a.23.23,0,0,1,.23-.23h1.11c.09,0,.13,0,.13-.13V152.27c0-.09,0-.14-.13-.14h-1.11a.22.22,0,0,1-.23-.23v-1.79a.22.22,0,0,1,.23-.23H396a.41.41,0,0,1,.39.23l6.32,10.79h.09v-8.63c0-.09,0-.14-.13-.14h-1.11a.22.22,0,0,1-.23-.23v-1.79a.22.22,0,0,1,.23-.23Z"/><path class="cls-2" d="M420,153.4a12.76,12.76,0,0,1,.41,4.3A12.76,12.76,0,0,1,420,162a5.94,5.94,0,0,1-11.06,0,12.76,12.76,0,0,1-.41-4.3,12.76,12.76,0,0,1,.41-4.3,5.94,5.94,0,0,1,11.06,0Zm-8.44.71a12.67,12.67,0,0,0-.27,3.59,12.77,12.77,0,0,0,.27,3.59,3.1,3.1,0,0,0,5.82,0,12.77,12.77,0,0,0,.27-3.59,12.67,12.67,0,0,0-.27-3.59,3.1,3.1,0,0,0-5.82,0Z"/><path class="cls-2" d="M441.46,149.88a.22.22,0,0,1,.23.23v1.79a.22.22,0,0,1-.23.23h-.64a.15.15,0,0,0-.14.12l-3.34,13a.26.26,0,0,1-.27.23h-2a.3.3,0,0,1-.28-.23l-3.05-10.86h-.05l-3.08,10.86a.3.3,0,0,1-.28.23h-2a.3.3,0,0,1-.28-.23l-3.35-13c0-.07-.07-.14-.17-.14H422a.22.22,0,0,1-.23-.23v-1.79a.22.22,0,0,1,.23-.23h4.6a.22.22,0,0,1,.23.23v1.79a.22.22,0,0,1-.23.23H425.5c-.11,0-.18.07-.14.21l2.14,8.46h.05l3-10.69a.28.28,0,0,1,.27-.23h1.84c.16,0,.23.09.28.23L436,160.64h0l2.12-8.34c0-.1,0-.17-.12-.17h-1.19a.22.22,0,0,1-.23-.23v-1.79a.22.22,0,0,1,.23-.23Z"/><polygon points="43.88 28.14 33.22 28.14 24.55 32.81 27.21 54.81 31.88 54.81 31.88 76.14 45.22 76.14 45.22 54.81 49.88 54.81 52.55 32.81 43.88 28.14"/><path class="cls-2" d="M43.88,28.14l8.67,4.67-2.67,22H45.22V76.14H31.88V54.81H27.22l-2.67-22,8.67-4.67H43.88m.25-1H33l-.22.12-8.67,4.67-.6.32.09.68,2.66,22,.11.88h4.55V77.14H46.22V55.81h4.55l.1-.88,2.67-22,.08-.68-.6-.32-8.66-4.67-.23-.12Z"/><circle cx="38.55" cy="19.48" r="6.67"/><path class="cls-2" d="M38.55,12.81a6.67,6.67,0,1,1-6.67,6.67,6.67,6.67,0,0,1,6.67-6.67m0-1a7.67,7.67,0,1,0,7.67,7.67,7.68,7.68,0,0,0-7.67-7.67Z"/><polygon points="80.18 29.25 69.51 29.25 60.85 33.92 63.51 55.92 68.18 55.92 68.18 77.25 81.51 77.25 81.51 55.92 86.18 55.92 88.85 33.92 80.18 29.25"/><path class="cls-2" d="M80.18,29.26l8.67,4.66-2.67,22H81.51V77.26H68.18V55.92H63.51l-2.66-22,8.66-4.66H80.18m.25-1H69.26l-.22.12L60.37,33l-.6.33.08.67,2.67,22,.11.88h4.55V78.26H82.51V56.92h4.56l.1-.88,2.67-22,.08-.67-.6-.33-8.67-4.66-.22-.12Z"/><circle cx="74.85" cy="20.59" r="6.67"/><path class="cls-2" d="M74.85,13.92a6.67,6.67,0,1,1-6.67,6.67,6.67,6.67,0,0,1,6.67-6.67m0-1a7.67,7.67,0,1,0,7.66,7.67,7.68,7.68,0,0,0-7.66-7.67Z"/><polygon points="59.23 44.59 48.57 44.59 39.9 49.25 42.57 71.25 47.23 71.25 47.23 92.59 60.57 92.59 60.57 71.25 65.23 71.25 67.9 49.25 59.23 44.59"/><path class="cls-2" d="M59.23,44.59l8.67,4.66-2.67,22H60.57V92.59H47.23V71.25H42.57l-2.67-22,8.67-4.66H59.23m.51-2H48.06l-.44.23L39,47.49l-1.2.65.16,1.35,2.67,22,.21,1.76h4.44V94.59H62.57V73.25H67l.22-1.76,2.66-22,.17-1.35-1.2-.65-8.67-4.67-.44-.23Z"/><circle cx="53.9" cy="35.92" r="6.67"/><path class="cls-2" d="M53.9,29.25a6.67,6.67,0,1,1-6.67,6.67,6.67,6.67,0,0,1,6.67-6.67m0-2a8.67,8.67,0,1,0,8.67,8.67,8.68,8.68,0,0,0-8.67-8.67Z"/><polygon points="98.53 45.7 87.86 45.7 79.2 50.37 81.86 72.37 86.53 72.37 86.53 93.7 99.86 93.7 99.86 72.37 104.53 72.37 107.2 50.37 98.53 45.7"/><path class="cls-2" d="M98.53,45.7l8.67,4.67-2.67,22H99.86V93.7H86.53V72.37H81.86l-2.66-22,8.66-4.67H98.53m.51-2H87.36l-.44.24L78.25,48.6l-1.2.65.16,1.36,2.67,22,.21,1.76h4.44V95.7h17.33V74.37h4.44l.22-1.76,2.66-22,.17-1.36-1.2-.65-8.67-4.66L99,43.7Z"/><circle cx="93.2" cy="37.03" r="6.67"/><path class="cls-2" d="M93.2,30.37A6.67,6.67,0,1,1,86.53,37a6.66,6.66,0,0,1,6.67-6.66m0-2A8.67,8.67,0,1,0,101.86,37a8.67,8.67,0,0,0-8.66-8.66Z"/><polygon class="cls-1" points="81.9 64.42 65.9 64.42 52.9 71.42 56.9 104.42 63.9 104.42 63.9 136.42 83.9 136.42 83.9 104.42 90.9 104.42 94.9 71.42 81.9 64.42"/><path class="cls-2" d="M81.9,64.42l13,7-4,33h-7v32h-20v-32h-7l-4-33,13-7h16m.76-3H65.14l-.66.36-13,7-1.81,1,.25,2,4,33,.32,2.64H60.9v32h26v-32h6.66l.32-2.64,4-33,.24-2-1.8-1-13-7-.66-.36Z"/><circle class="cls-1" cx="73.9" cy="51.42" r="10"/><path class="cls-2" d="M73.9,41.42a10,10,0,1,1-10,10,10,10,0,0,1,10-10m0-3a13,13,0,1,0,13,13,13,13,0,0,0-13-13Z"/></g></g></svg>